<svg width="34" height="34" viewBox="0 0 34 34" fill="none" xmlns="http://www.w3.org/2000/svg">
  <g clip-path="url(#a)">
    <path d="M24.77 6.126c4.347-.82 7.145 3.272 8.367 6.741 1.742 4.947.767 10.102-2.048 14.506-2.685 4.2-7.214 6.502-12.242 6.627-.268.005-4.835-.224-4.782-.49l1.582-8.417 6.587-9.784 1.362-5.682-1.255-3.052s2.423-.454 2.429-.46z" fill="#D90000"/>
    <path d="M13.85 5.818s5.8-2.468 10.829.308L20.428 7.69z" fill="url(#b)"/>
    <path opacity=".92" d="M15.829 6.277c.59-.376 1.677-.631 2.385-.86.67-.215 1.839-.251 2.54-.063.515.14 1.475.422 1.786.892 1.168 1.758-3.495 1.7-4.154 1.591-.547-.088-2.847-.574-2.563-1.565z" fill="#932723"/>
    <path d="M18.3 4.57c-2.402 1.707-5.462.58-6.78-.062-.414-.203-.66-.35-.66-.35-1.383-.704-3.318-.537-3.977-.245-.595.261-2.691.788-3.083.882.89-.266 2.648-2.113 2.648-2.113C7.912 1.44 9.118.877 9.118.877a10 10 0 0 1 1.056-.418c6.04-2.05 8.035 3.554 8.035 3.554l.09.563z" fill="url(#c)"/>
    <path d="M19.533 5.234S16.247 1.132 9.439 2.04c0 0-1.656.235-2.728.976 0 0 6.706-2.896 12.13 2.02l.515.641.177-.438z" fill="#3B6A33"/>
    <path d="M14.124.548s1.817.97 2.493 2.53l-.349-.161s-.707-1.435-2.15-2.37zM11.825.323s1.694.454 2.701 1.978l-.402-.1s-.793-1.277-2.3-1.883zm-2.852.882s1.683-.182 2.616.705h-.311s-.493-.58-2.305-.705m4.588 1.169s-.316 1.263-2.83 1.279c0 0 2.23-.204 2.616-1.352l.209.073zm3.822 1.534s-1.05 1.305-3.64.679c0 0 2.263.401 3.453-.799zM9.472 2.301S8.844 3.1 7.885 3.35c0 0 .986-.558 1.324-1.049z" fill="#3B6A33"/>
    <path opacity=".65" d="M10.581 3.386a6.3 6.3 0 0 0 .938 1.122c-.413-.203-.66-.35-.66-.35-1.382-.704-3.317-.537-3.976-.245-.595.261-2.691.788-3.083.882.89-.266 2.648-2.113 2.648-2.113C7.912 1.44 9.118.877 9.118.877a10 10 0 0 1 1.056-.418 5 5 0 0 0-.295.136c-.563.287-.997.777-1.458 1.19-.3.276-.649.59-.793.96.686.041 1.302-.246 2.01-.073.498.125.686.323.943.72zM14.103.057v-.02c.01 0 .016 0 .027.01-.011 0-.022.01-.027.01" fill="#81C04C"/>
    <path d="M20.948.929s-2.246 2.76-1.415 5.886l.793.135s-.552-3.297 1.973-5.687c0 0-.552-.574-1.351-.334" fill="#5E361A"/>
    <path d="M29.197 19.009a27.7 27.7 0 0 1-.707 4.915c-.016.063-.032.12-.048.188a15 15 0 0 1-1.158 2.938 15.3 15.3 0 0 1-3.367 4.273c-.643.574-1.313 1.143-2.08 1.581q-.226.124-.476.225c-.536.208-1.158.344-1.689.47-1.71.406-3.51.297-5.242.104a16.4 16.4 0 0 1-4.835-1.295c-2.37-1.043-4.412-2.65-6.004-4.576-.595-.72-1.184-1.497-1.618-2.327a9 9 0 0 1-.188-.386 27 27 0 0 1-.504-1.205C-.037 20.486-.482 16.729.643 13.19c.29-.903.676-1.785 1.169-2.609.166-.282.343-.558.541-.824 2.16-2.975 6.052-4.295 9.804-4.347 1.833-.02 4.047.1 5.773.762.483.188.997.297 1.522.37h.016c.36.047.73.079 1.088.105.435.026.858.052 1.27.099 1.202.115 2.311.355 3.372 1.08a8.46 8.46 0 0 1 2.97 3.616c1.024 2.38 1.174 5.035 1.03 7.566" fill="#F20A0A"/>
    <path opacity=".87" d="M3.441 20.34s5.044 2.123 11.08-4.284c0 0 4.336-6.935-.863-9.137 0 0-4.781-2.186-10.554 3.141 0 0-4.68 5.098-1.528 9.168 0 0 .788.631 1.865 1.106z" fill="#FF6243"/>
    <path opacity=".87" d="M4.358 16.473s3.645 1.534 8.008-3.1c0 0 3.136-5.009-.622-6.6 0 0-3.457-1.581-7.627 2.27 0 0-3.383 3.684-1.105 6.626 0 0 .569.454 1.346.799z" fill="#FF9583"/>
    <path d="M9.766 11.046c-1.066.465-2.246.173-2.626-.652-.38-.824.177-1.873 1.243-2.343 1.067-.464 2.246-.177 2.627.653s-.177 1.873-1.244 2.342" fill="#FBE3D7"/>
  </g>
  <defs>
    <linearGradient id="b" x1="18.139" y1="-1.962" x2="19.547" y2="8.489" gradientUnits="userSpaceOnUse">
      <stop stop-color="#EC7440"/>
      <stop offset=".28" stop-color="#EB6331"/>
      <stop offset=".64" stop-color="#D42F19"/>
    </linearGradient>
    <linearGradient id="c" x1="3.071" y1="1.931" x2="17.506" y2="3.268" gradientUnits="userSpaceOnUse">
      <stop stop-color="#6BB831"/>
      <stop offset="1" stop-color="#2D7E3A"/>
    </linearGradient>
    <clipPath id="a">
      <path fill="#fff" d="M0 0h34v34H0z"/>
    </clipPath>
  </defs>
</svg>
