<svg width="31" height="48" viewBox="0 0 31 48" fill="none" xmlns="http://www.w3.org/2000/svg">
  <g clip-path="url(#a)">
    <path d="M23.749 13.541c1.946 2.18 2.254 4.786 1.99 7.526a23.3 23.3 0 0 1-1.973 7.361 74 74 0 0 1-4.678 8.686c-1.385 2.219-2.933 4.31-4.787 6.164-.757.758-1.563 1.47-2.572 1.908-1.711.747-2.726.288-3.674-1.254-.947-1.533-1.278-3.28-1.532-5.036-.67-4.614-.58-9.233-.166-13.857.209-2.355.546-4.68 1.398-6.906.903-2.356 2.07-4.528 4.178-6.07.453-.33 1.003-.514 1.396-.93.12.096.258.068.38.023.942-.366 1.922-.5 2.925-.474 1.752.038 3.388.507 4.948 1.308.807.412 1.513.94 2.168 1.547z" fill="#FA8A2B"/>
    <path d="M23.749 13.541a9.5 9.5 0 0 0-2.168-1.547c-1.562-.797-3.197-1.266-4.948-1.308-.999-.024-1.983.108-2.925.474-.123.05-.26.07-.38-.024-1.076-1.785-1.981-3.638-2.016-5.77-.03-2.067 2.131-3.446 3.87-2.476.959.536 1.502 1.425 1.933 2.394.102.223.19.451.328.775.275-.57.497-1.068.757-1.546.733-1.327 1.927-1.882 3.274-1.53 1.141.297 1.855 1.224 1.95 2.525.065.888.062.882.86.574 1.177-.455 2.288-.488 3.253.502.775.795.995 1.86.543 2.874-.502 1.136-1.38 1.958-2.323 2.72-.633.509-1.328.923-2.01 1.367z" fill="#6DBB36"/>
    <path d="M9.791 17.369c.326-.579.668-1.149 1.076-1.67.735-.647 1.206-1.566 2.112-2.046.29-.152.556-.32.854-.04.281.262.383.572.244.94-.226.6-.557 1.147-.937 1.663-.35.324-.473.796-.781 1.144-.799 1.488-1.624 2.964-2.105 4.593q-.073.262-.247.478c-.19.232-.365.511-.727.388-.335-.111-.53-.337-.58-.725-.098-.731 0-1.458.147-2.154.187-.894.483-1.768.95-2.574zm-.011 6.908c.429.354.469.926.096 1.365-.4.476-.95.512-1.44.097-.413-.345-.485-.878-.171-1.264.288-.354 1.184-.47 1.516-.199" fill="#FDAA3E"/>
    <path d="M9.995 17.036c-.25-.363-.63-.195-.957-.235.11-.74.56-1.303.983-1.881.321.212.75.183 1.05.442-.409.526-.749 1.091-1.075 1.67zm2.563-.009c.309-.349.436-.824.781-1.145.5.234.986.517 1.505.695.588.201 1.049.612 1.608.853.082.035.19.108.119.228-.048.078-.139.058-.222.04-1.106-.248-2.23-.353-3.354-.467-.184-.02-.307-.1-.437-.205m10.213-.64c.058.064.184.102.129.226-.04.085-.133.069-.216.068a12.3 12.3 0 0 1-3.066-.442c-.685-.184-1.298-.618-1.939-.946a.2.2 0 0 1-.085-.158c0-.083.087-.094.151-.09 1.735.151 3.432.44 4.98 1.304.016.004.025.02.047.034z" fill="#F87923"/>
    <path d="M12.351 44.896c-1.456.976-2.939 1.15-4.033-.733-.184-.314-.26-.67-.447-.972-.454-.748-.66-1.57-.816-2.412 1.473 1.321 2.377.915 3.554.26 1.129-.624 2.027-1.598 2.866-2.583 1.478-1.727 2.766-3.601 3.971-5.524.375-.596.658-1.242 1.052-1.829.145-.213.155-.363-.203-.52-.602-.261-1.277-.35-1.808-.776-.116-.092-.389-.074-.319-.285.052-.16.292-.122.45-.106.724.068 1.452.123 2.147.349.331.106.507.04.597-.28.013-.048.038-.09.059-.136.555-1.087 1.11-2.179 1.674-3.264.116-.221-.036-.358-.177-.373-.634-.075-1.167-.448-1.785-.583-.324-.07-.743-.047-.992-.431.99-.183 1.927-.107 2.857.06.31.053.547.008.706-.29.582-1.092.892-2.28 1.1-3.482.177-1.023.327-2.058.35-3.113.044-1.72-.128-3.373-1.078-4.876-.142-.225-.32-.46-.348-.75.078.02.162.017.232.053.672.31 1.192.829 1.73 1.316.11.126.168.303.341.38q.07.077.148.152c2.147 3.152 1.792 7.217.732 10.68-.948 3.079-2.396 6.612-4.213 9.297-1.183 1.742-2.372 3.686-3.62 5.462-.817 1.16-2.747 3.986-4.729 5.317z" fill="#F87923"/>
    <path d="M6.837 34.245c.874.217 1.748.43 2.624.651 1.074.27 2.065.736 3.028 1.307-1.842-.093-3.673-.196-5.502-.203-.373-.561-.177-1.161-.146-1.754zm3.933-1.631c1.057-.073 2.022.211 2.98.538a.4.4 0 0 1 .164.109c.107.11.353.16.287.355-.07.212-.298.112-.436.088-.879-.131-1.76-.272-2.557-.703-.169-.093-.341-.187-.437-.387" fill="#F87923"/>
    <path opacity=".53" d="M12.17 4.85c.145-.735.654-1.26 1.144-1.168s.258.774.113 1.51c-.144.736-.146 1.25-.636 1.161s-.766-.762-.622-1.498zm7.073-.528c.422-.622 1.1-.906 1.515-.634s-.064.81-.49 1.431c-.42.623-.626 1.094-1.041.822s-.41-.997.012-1.62zm5.524 2.551c.63-.415 1.369-.421 1.646-.012.282.407-.374.723-1.003 1.137-.63.415-1.002.772-1.279.362-.277-.409.006-1.073.636-1.487" fill="#E6F9D7"/>
  </g>
  <defs>
    <clipPath id="a">
      <path fill="#fff" d="m12.37.544 17.907 4.798-11.416 42.604L.955 43.148z"/>
    </clipPath>
  </defs>
</svg>
