<svg width="44" height="31" viewBox="0 0 44 31" fill="none" xmlns="http://www.w3.org/2000/svg">
  <g clip-path="url(#a)">
    <path d="M7.638.709c2.595-.06 5.073.596 7.547 1.268.11.03.223.07.322.13 2.181 1.287 4.626 1.954 6.898 3.029 1.28.604 2.694.78 4.043 1.167.762.22 1.48.53 2.144 1.007.92.66 1.352 1.555 1.528 2.652.15.954.18 1.905.073 2.86-.044.388.06.444.396.295 3.251-1.451 6.539-1.403 9.849-.235 1.103.388 2.004 1.085 2.726 2.018.436.563.686 1.227.748 1.928.088.984.103 1.98.073 2.972-.025.85-.373 1.48-1.044 2.003-1.748 1.354-3.753 1.827-5.89 1.92-.429.02-.858.023-1.287 0-.307-.014-.465.072-.432.418.224 2.29-.993 3.82-2.66 5.061a11 11 0 0 1-3.267 1.66c-.172.056-.351.1-.531.108-1.818.067-3.628.056-5.42-.343-.664-.15-1.247-.406-1.753-.873-1.268-1.175-2.382-2.454-3.016-4.117-.334-.88-.315-1.7.114-2.521.216-.414.403-.847.648-1.246.235-.377.15-.548-.253-.69a261 261 0 0 1-4.948-1.783c-2.866-1.07-5.732-2.137-8.396-3.692-1.434-.835-2.694-1.872-3.838-3.073C.238 10.767-.12 8.462.033 6.005c.055-.862.238-1.69.704-2.44 1.052-1.704 2.69-2.416 4.53-2.73.777-.13 1.58-.09 2.371-.126m18.784 27.986c.682.03 1.356.008 2.016-.168 2.716-.73 4.677-2.424 5.864-4.982.92-1.98.473-4.14-1.03-5.475-.846-.754-1.87-1.153-2.98-1.332-1.818-.298-3.573-.171-5.263.638a13.83 13.83 0 0 0-5.373 4.535c-.473.664-.865 1.406-.916 2.245-.095 1.503.733 2.484 1.924 3.189 1.778 1.052 3.742 1.332 5.758 1.354zm-1.418-11.808c.29.056.483-.06.692-.104.869-.198 1.708-.537 2.606-.582.337-.015.447-.104.462-.455.033-.783.18-1.536.817-2.085.11-.097.125-.223.147-.361.19-1.306.19-2.593-.15-3.883a2.75 2.75 0 0 0-.788-1.354c-.785-.75-1.741-1.096-2.75-1.41-2.066-.637-4.672.493-5.486 2.179-.238.492-.597.92-.945 1.35a7.4 7.4 0 0 0-1.514 3.133c-.037.164-.062.335-.136.48-.154.325-.14.672-.055.982.11.387.165.786.275 1.17.407 1.4.766 2.824 1.851 3.894.513.504.52.522 1.019-.048.817-.936 1.74-1.738 2.833-2.328.08-.044.194-.074.165-.212-.964-.422-1.122-1.194-.396-1.97a7 7 0 0 1 .652-.611c.451-.366.788-.235.84.358.051.612.14 1.235-.136 1.854zm11.827 4.129c2.404.004 4.677-.694 6.088-2.103.923-.922.997-2.436.392-3.286-.605-.847-1.297-1.664-2.24-2.081-1.821-.81-3.709-1.514-5.754-1.268-1.69.205-3.39.332-4.944 1.23-.93.538-1.356 1.246-1.418 2.268-.015.242.022.358.315.433.953.246 1.935.406 2.84.824 1.33.611 2.555 1.313 2.698 3.02.01.146.106.284.128.43.048.332.194.44.546.47.477.04.953.03 1.349.06zm-11.886-5.251c0-.202.022-.403-.007-.6-.033-.24-.191-.474-.425-.306-.382.272-.807.53-.976 1.025-.131.392.012.765.356.921.381.172.847.019 1.012-.346.099-.22.05-.463.04-.694" fill="#78B23D"/>
    <path d="M26.422 28.695c-2.016-.019-3.98-.302-5.758-1.354-1.191-.705-2.02-1.686-1.924-3.189.051-.839.443-1.58.916-2.245a13.86 13.86 0 0 1 5.373-4.535c1.69-.81 3.445-.936 5.263-.638 1.11.183 2.133.578 2.98 1.332 1.5 1.335 1.95 3.495 1.03 5.475-1.187 2.555-3.152 4.252-5.864 4.982-.656.176-1.334.198-2.016.168zm-.363-6.452c-.495.011-.99-.008-1.48.037-.488.045-.77.373-.84.854-.062.425.132.757.502.955.363.19.89.052 1.166-.28.19-.23.355-.48.553-.704.242-.273.268-.553.092-.862.799-.041.865-.104.869-.985 0-.28-.034-.566-.085-.842-.088-.482-.425-.728-.92-.705-.49.026-.784.32-.835.813-.048.432.18.716.44 1.01.194.22.546.329.534.713zm2.423.13v-.014c-.15 0-.297-.008-.447 0-.213.01-.448-.015-.565.223-.11.224-.007.433.11.616.21.32.447.626.748.857.337.262.718.332 1.103.079.37-.243.458-.612.367-1.015-.1-.432-.378-.7-.829-.745-.165-.015-.33 0-.495 0zm-.58-.443a3.6 3.6 0 0 0 1.067-.18c.425-.145.616-.488.63-.928a.84.84 0 0 0-.542-.828c-.374-.16-.762-.09-1.04.239a6 6 0 0 0-.61.85c-.347.615-.19.865.496.847m-.216 2.864c-.07-.59-.377-1.119-.765-1.593-.147-.179-.426-.2-.543.049-.242.526-.506 1.063-.484 1.663.019.5.447.858.931.847s.858-.407.865-.966z" fill="#E0FDA0"/>
    <path d="M25.004 16.887c.274-.619.186-1.242.135-1.853-.051-.593-.388-.724-.84-.358-.23.186-.45.395-.651.611-.726.772-.565 1.548.399 1.97.026.138-.088.171-.169.212-1.092.59-2.015 1.388-2.833 2.328-.498.57-.506.552-1.019.048-1.084-1.07-1.44-2.495-1.85-3.894-.114-.384-.165-.783-.275-1.17-.088-.31-.103-.657.055-.982.07-.149.099-.32.135-.48a7.4 7.4 0 0 1 1.514-3.134c.348-.425.71-.854.945-1.35.81-1.685 3.42-2.812 5.487-2.178 1.008.31 1.968.66 2.749 1.41.396.38.645.813.788 1.354.34 1.287.34 2.577.15 3.882-.018.138-.036.265-.146.362-.634.548-.785 1.302-.818 2.085-.014.35-.124.436-.461.455-.895.045-1.738.384-2.606.582-.206.048-.404.16-.693.104zm.194-4.684c0 .138-.037.366.007.57.07.34.312.508.623.322.466-.28.935-.575 1.25-1.041.25-.37.224-.768.015-1.138-.235-.414-.623-.54-1.063-.447-.396.086-.675.336-.763.76-.062.295-.113.594-.07.974m.627 1.276c-.594-.019-.858.216-.697.552.238.488.47 1.007.902 1.357.374.302.806.384 1.242.142.4-.22.517-.604.444-1.03-.08-.477-.385-.764-.858-.846-.388-.067-.777-.127-1.037-.172zm-2.53-3.018c-.447-.03-.7.25-.86.586-.18.377-.1.768.183 1.07.432.463 1.004.694 1.587.88.29.094.472-.096.458-.365-.033-.641-.19-1.264-.568-1.79-.184-.258-.473-.418-.803-.384zm-.886 4.726c.396 0 1.51-.657 1.697-1.018.132-.261.095-.474-.206-.608-.425-.19-.876-.276-1.326-.355-.609-.1-1.115.261-1.17.843-.066.657.367 1.142 1.008 1.138z" fill="#E0FDA0"/>
    <path d="M36.831 21.016c-.396-.03-.872-.019-1.349-.06-.352-.03-.502-.138-.546-.47-.022-.145-.117-.283-.128-.428-.143-1.712-1.367-2.413-2.698-3.021-.909-.418-1.887-.578-2.84-.825-.293-.074-.33-.19-.315-.432.062-1.026.49-1.73 1.418-2.268 1.554-.895 3.255-1.026 4.944-1.23 2.042-.25 3.93.458 5.755 1.268.941.417 1.638 1.234 2.239 2.08.605.847.531 2.365-.392 3.286-1.411 1.41-3.68 2.107-6.088 2.104zm-2.635-3.237c.66-.011 1.459-.787 1.477-1.369.01-.328-.202-.403-.462-.354q-.583.107-1.154.264c-.466.127-.733.482-.642.87.106.454.455.574.784.589zm3.922-2.07h-.11c-.341.063-.829-.127-.96.31-.133.428.358.574.611.805.415.373.887.5 1.419.25.249-.116.4-.306.41-.578.011-.299-.161-.5-.418-.63-.322-.165-.667-.165-.953-.153zm-.778-1.831c-.824-.011-1.176.41-1.238 1.38-.03.48.19.652.637.466.32-.135.62-.306.92-.478.349-.194.477-.507.37-.891-.11-.392-.44-.455-.692-.477zm-3.339 1.682c-.102-.336-.447-.511-.197-.843.22-.287.52-.28.81-.228.384.064.63.37.813.683.147.25-.055.313-.264.313h-1.037v.138c.436.123.89.071 1.334.06.37-.008.47-.22.253-.53a2.9 2.9 0 0 0-.73-.746c-.424-.29-.868-.294-1.3-.007-.246.164-.33.421-.264.705.058.268.245.406.575.451zm2.716 2.939c.558.007.931-.295.924-.746-.007-.452-.733-1.265-1.125-1.26-.323 0-.697.656-.708 1.245-.01.451.352.757.913.764zm-11.772-2.734c.015.231.059.473-.04.694-.162.361-.63.518-1.012.346-.344-.156-.487-.53-.355-.92.168-.497.593-.754.974-1.027.235-.167.393.068.426.306.025.198.007.4.007.6" fill="#E0FDA0"/>
    <path d="M26.056 22.24c.175.309.153.588-.092.86-.198.225-.367.474-.554.706-.274.335-.806.473-1.165.28-.37-.198-.56-.53-.502-.955.07-.482.352-.81.84-.854.49-.045.985-.027 1.48-.038zm-1.353 1.618c.323 0 1.144-.772 1.14-1.06 0-.134-.073-.22-.202-.245-.388-.086-.784-.112-1.158.026-.315.111-.454.384-.392.72.062.339.238.589.616.559z" fill="#78B23D"/>
    <path d="M26.06 22.243c.01-.38-.342-.492-.536-.712-.26-.295-.487-.578-.44-1.011.055-.492.345-.787.836-.813.495-.026.835.22.92.705.051.276.088.563.084.843-.003.876-.07.94-.869.984zm.586-1.06c0-.22.018-.39-.004-.555-.059-.399-.264-.638-.697-.604-.37.03-.59.31-.575.731.011.332.216.567.447.746.21.16.381.522.686.373.278-.134.099-.489.146-.69zm1.836 1.191c.165 0 .33-.015.495 0 .447.044.729.313.828.745.092.403.004.769-.367 1.015-.388.253-.766.183-1.103-.078-.3-.232-.539-.537-.748-.858-.117-.183-.22-.392-.11-.616.118-.238.352-.212.565-.223.147-.008.297 0 .447 0v.015zm1.044.913c.011-.332-.18-.522-.472-.615a1.95 1.95 0 0 0-.972-.034c-.348.067-.443.243-.227.537q.279.383.645.687c.227.186.458.179.686.052a.62.62 0 0 0 .34-.627m-1.623-1.357c-.686.018-.84-.231-.495-.847.172-.302.381-.585.608-.85.279-.328.667-.396 1.041-.239.33.142.557.433.543.828-.015.44-.202.783-.63.929a3.6 3.6 0 0 1-1.067.179m.022-.213c.256-.044.527-.097.802-.138.349-.056.528-.298.546-.615.015-.284-.076-.574-.384-.694s-.605-.045-.807.201a3.6 3.6 0 0 0-.487.806c-.125.28-.008.451.33.44m-.238 3.077c-.008.56-.382.955-.866.966-.483.011-.912-.35-.93-.847-.022-.6.242-1.137.483-1.663.118-.254.396-.231.543-.048.388.477.696 1.006.766 1.592zm-.264-.168c-.015-.056-.037-.246-.121-.403-.15-.283-.21-.734-.572-.738-.403 0-.367.485-.506.768-.051.105-.08.22-.11.332-.08.328.125.545.323.739.16.16.4.201.593.067.22-.146.43-.325.389-.768zm-2.225-12.423c-.04-.384.01-.679.07-.973.087-.425.362-.675.762-.761.44-.093.832.037 1.063.447.209.37.234.769-.015 1.138-.315.466-.784.76-1.25 1.04-.311.187-.55.02-.623-.32-.044-.21-.007-.433-.007-.57m.176-.239c.033.343-.03.63.198.758.249.138.469-.041.663-.206.154-.126.315-.242.458-.38.25-.246.345-.56.176-.869-.161-.298-.418-.548-.799-.481-.34.06-.539.302-.594.656-.033.213-.124.418-.106.53zm.451 1.514c.26.044.648.104 1.037.171.473.082.773.37.858.847.073.429-.044.81-.444 1.03-.44.242-.872.16-1.242-.143-.437-.35-.664-.869-.902-1.357-.161-.332.102-.57.696-.552zm.868 1.89c.447-.01.623-.309.693-.7.07-.396-.154-.653-.48-.761a4.4 4.4 0 0 0-1.103-.198c-.286-.019-.499.127-.323.47.205.399.47.76.8 1.066.116.109.26.135.413.127zm-3.397-4.908a.87.87 0 0 1 .802.384c.378.526.535 1.15.568 1.79.015.27-.168.46-.458.366-.582-.19-1.154-.418-1.587-.88-.286-.302-.363-.697-.183-1.07.158-.336.41-.616.861-.586zm-.598 1c.008.522.968 1.328 1.474 1.257.16-.023.252-.172.234-.28-.102-.548-.132-1.134-.62-1.53-.263-.212-.549-.137-.79-.018a.57.57 0 0 0-.298.57m-.289 3.727c-.645 0-1.074-.481-1.008-1.138.058-.582.564-.943 1.169-.843.454.075.901.16 1.327.355.3.134.34.347.205.608-.187.361-1.297 1.018-1.697 1.018zm.183-1.72c-.392-.014-.711.049-.84.437-.102.31-.025.585.224.81.297.264.605.324.938.085.228-.164.466-.313.678-.492.29-.247.25-.508-.087-.635-.308-.115-.62-.234-.917-.205zm11.604 4.312c-.33-.015-.678-.134-.785-.59-.088-.387.176-.742.642-.869q.572-.154 1.154-.264c.26-.049.47.026.462.354-.018.582-.817 1.358-1.477 1.369zm.102-.28c.404.015 1.016-.522 1.067-.936.026-.198-.059-.295-.246-.261-.333.063-.674.127-.997.235-.238.078-.461.227-.403.54.063.31.286.426.58.422m3.819-1.79c.285-.008.633-.008.952.153.257.13.43.328.418.63-.01.272-.165.459-.41.578-.532.254-1.005.127-1.419-.25-.253-.231-.744-.377-.612-.805.136-.437.623-.247.96-.31h.11zm.087.186c-.282.019-.516-.03-.733.09-.106.06-.22.12-.095.26.275.318.564.624.986.724.345.082.733-.156.77-.458.047-.403-.231-.519-.54-.582-.142-.03-.292-.026-.388-.037zm-.865-2.017c.253.018.583.082.693.477.106.384-.022.697-.37.891-.3.168-.605.343-.92.478-.447.19-.667.015-.638-.466.063-.97.41-1.391 1.24-1.38zm-.964 1.208c-.01.466.107.552.514.362.223-.105.425-.254.641-.366.22-.112.235-.302.216-.51-.018-.213-.15-.321-.33-.392-.575-.228-1.03.164-1.044.906zm-2.374.474c-.33-.045-.517-.183-.576-.452-.062-.283.018-.54.264-.705.429-.287.876-.28 1.301.008.29.198.528.459.73.746.216.31.117.522-.253.53-.444.01-.898.063-1.335-.06v-.138h1.038c.209 0 .414-.064.264-.314-.187-.313-.43-.615-.814-.682-.29-.049-.59-.06-.81.227-.253.329.095.508.198.843zm2.715 2.939c-.56-.008-.923-.31-.912-.765.014-.593.385-1.246.707-1.246.396 0 1.118.81 1.125 1.26.008.452-.366.754-.923.747zm-.018-.22c.345-.06.66-.176.711-.575.037-.272-.608-.944-.865-.902-.506.078-.418.53-.462.861-.062.448.282.545.616.616" fill="#78B23D"/>
    <path d="M24.703 23.858c-.377.026-.55-.224-.616-.56-.062-.335.08-.607.393-.72.373-.134.77-.107 1.158-.025.128.026.198.111.201.246.004.287-.817 1.063-1.14 1.059zm1.943-2.674c-.044.201.131.552-.147.69-.304.149-.48-.217-.685-.373-.231-.175-.433-.41-.448-.746-.014-.422.206-.701.576-.731.432-.034.641.205.696.604.022.164.004.336.004.556zm2.88 2.103a.62.62 0 0 1-.34.627c-.228.127-.459.138-.686-.052a3.8 3.8 0 0 1-.645-.686c-.213-.295-.12-.47.227-.538.33-.063.653-.067.971.034.294.093.484.28.473.615m-1.601-1.57c-.338.011-.455-.16-.33-.44a3.8 3.8 0 0 1 .487-.806c.202-.25.499-.32.807-.2.308.119.4.41.384.693-.018.317-.197.56-.546.615-.274.045-.546.093-.802.138m-.502 2.909c.036.444-.173.623-.389.768a.465.465 0 0 1-.594-.067c-.198-.194-.403-.41-.322-.738.03-.112.058-.228.11-.332.139-.284.102-.768.505-.768.363 0 .422.455.572.738.085.157.103.347.121.403zm-2.049-12.662c-.019-.108.073-.317.106-.53.055-.354.253-.596.594-.656.377-.067.637.187.799.481.168.31.07.623-.176.87-.14.137-.304.253-.458.38-.195.164-.418.343-.664.205-.227-.127-.16-.414-.198-.757zm1.319 3.406c-.154.007-.297-.02-.414-.127a3.8 3.8 0 0 1-.799-1.067c-.176-.343.037-.485.323-.47.37.023.75.082 1.103.198.326.108.55.365.48.76-.07.392-.246.69-.693.702zm-3.995-3.91a.57.57 0 0 1 .297-.57c.242-.119.528-.194.792.019.487.395.517.98.62 1.53.021.107-.074.256-.235.279-.506.07-1.466-.731-1.474-1.257m-.106 2.006c.297-.03.608.09.916.205.341.127.378.388.088.635-.212.182-.45.332-.678.492-.337.239-.645.183-.938-.086-.25-.224-.326-.5-.224-.81.128-.387.444-.45.84-.436zm11.706 4.032c-.297.004-.52-.112-.579-.421-.062-.314.165-.463.404-.541.322-.105.663-.168.996-.235.187-.037.272.063.246.26-.051.415-.66.952-1.067.937m3.907-1.604c.096.008.246.004.389.038.308.063.586.179.539.582-.037.302-.425.54-.77.458-.422-.1-.707-.41-.986-.723-.125-.142-.01-.202.095-.261.217-.12.451-.071.733-.09zm-1.828-.809c.014-.742.469-1.138 1.044-.906.18.07.312.179.33.391.015.21 0 .396-.216.511-.22.112-.422.261-.642.366-.41.19-.524.104-.513-.362zm.322 3.193c-.334-.071-.674-.168-.616-.616.048-.332-.044-.783.462-.861.253-.038.902.63.865.902-.051.403-.366.515-.711.575" fill="#E0FDA0"/>
    <path d="M19.128 25.943c-.117-.463-.392-.866-.407-1.369-.032-1.044.451-1.884.968-2.711.088-.138.205-.254.231-.426.656-.652 1.231-1.39 1.942-1.995 2.192-1.868 4.59-3.133 7.554-2.857 1.305.123 2.57.418 3.632 1.257 1.701 1.343 2.255 3.58 1.276 5.703-1.18 2.554-3.115 4.37-5.857 4.949s-5.446.194-7.935-1.22c-.56-.32-1.023-.787-1.396-1.331zm14.573-4.144c.01-1.343-.356-2.375-1.239-3.192-1.03-.955-2.313-1.197-3.628-1.32-2.122-.194-3.951.637-5.593 1.857-1.177.873-2.254 1.92-2.954 3.27-.843 1.63-.624 2.738.487 3.711 1.712 1.5 3.86 1.683 5.985 1.72 1.074.018 2.126-.276 3.108-.825 1.466-.816 2.588-1.961 3.354-3.457.3-.589.6-1.2.48-1.764" fill="#C0E073"/>
    <path d="M26.763 25.47c-.36-.012-.517-.277-.649-.557-.117-.246.209-1.32.436-1.458.143-.086.286-.086.396.071.246.35.455.72.495 1.16.037.406-.315.798-.678.787zm-2.731-1.951c-.135-.351.037-.608.239-.847.175-.209 1.279-.32 1.495-.153.136.104.194.242.099.41-.216.377-.466.724-.843.936-.352.198-.85.012-.986-.343zm1.826-3.551c.359-.09.586.123.791.354.18.205.136 1.332-.055 1.53-.12.122-.26.163-.414.044-.337-.268-.641-.567-.795-.98-.143-.381.106-.858.473-.948m3.416.556c.172.335.025.608-.147.869-.154.227-1.239.455-1.47.313-.146-.09-.22-.22-.14-.395.177-.4.39-.772.745-1.022.33-.232.843-.105 1.015.235zm.241 3.2c-.216.34-.527.358-.835.343-.271-.015-.96-.877-.942-1.168.01-.182.095-.32.286-.346.432-.06.857-.071 1.238.111.356.172.473.713.25 1.06z" fill="#C0E073"/>
    <path d="M30.3 11.987c-.074.265-.18.526-.33.775-.587-1.51.381-3.285-.898-4.643-1.411-1.499-3.17-2.14-5.157-1.853-1.235.179-2.39.705-3.112 1.872-.56.906-1.242 1.723-1.803 2.622-.722 1.156-1.28 2.454-1.14 3.826.132 1.306.565 2.581 1.122 3.79.333.72.813 1.305 1.393 1.816 0 .201-.008.395-.29.335-.48-.097-1.008-.1-1.437-.313-1.011-.5-2.104-.727-3.144-1.122-1.705-.646-3.427-1.231-5.128-1.891a23 23 0 0 1-2.463-1.1c-.806-.43-1.642-.802-2.397-1.32C3.434 13.358 1.638 11.553.561 9.2l.135 1.212C-.56 7.66-.154 3.84 2.192 1.823c3.324-2.86 8.004-1.823 11.72-.48 4.366 1.574 8.53 3.546 12.931 5.064 1.998.69 4.083 3.294 3.457 5.58M1.385 3.644c.008.052.015.086.019.12.172 1.718.63 3.326 1.803 4.62.726.798 1.396 1.667 2.35 2.212 1.715.984 3.54 1.715 5.369 2.431.89.35 1.796.664 2.683 1.015 1.176.466 2.39.828 3.559 1.313.384.16.465.014.443-.351-.022-.388-.011-.776-.03-1.164-.032-.734.235-1.387.5-2.043.102-.258.12-.448-.177-.623-.7-.414-1.389-.862-2.155-1.115-1.62-.537-3.255-1.026-4.867-1.6-1.474-.53-2.95-1.056-4.398-1.649-1.012-.414-2.06-.805-2.83-1.69-.513-.589-1.07-1.14-1.616-1.7-.14-.142-.32-.343-.488-.298-.205.06-.047.373-.172.518zM2.76 1.936c-.095.007-.21-.023-.271.078-.081.13.029.216.084.317.762 1.331 1.928 2.215 3.185 2.965 1.107.66 2.294 1.149 3.5 1.596 1.448.541 2.892 1.1 4.303 1.73.748.336 1.51.646 2.261.967.807.347 1.602.708 2.401 1.066.264.12.477.101.641-.16.55-.865 1.254-1.615 1.76-2.514.3-.53.333-.555-.224-.705-2.06-.548-3.944-1.544-5.86-2.454-1.415-.671-2.782-1.454-4.263-1.965-1.528-.526-3.097-.88-4.717-.925-.931-.026-1.866-.004-2.8-.004zm.216 7.548c.47.627.766 1.361 1.25 1.973.23.291.454.59.759.798a41 41 0 0 0 3.987 2.413c2.023 1.082 4.116 1.992 6.19 2.95 1.133.526 2.31.959 3.464 1.433.103.04.213.141.315.026.103-.112.008-.224-.04-.329-.26-.578-.744-1.025-.927-1.637-.136-.451-.436-.611-.836-.75-1.253-.428-2.496-.88-3.735-1.346-.953-.358-1.905-.73-2.866-1.055-.89-.299-1.803-.586-2.602-1.045-1.411-.813-2.811-1.674-4.057-2.763-.272-.239-.502-.563-.898-.664zm1.862-8.376c.722.037 1.444.06 2.166.119.803.067 1.598.164 2.4.254 1.324.141 2.482.798 3.659 1.346 2.807 1.305 5.63 2.555 8.55 3.565.257.09.524.217.807.045.505-.31 1.07-.447 1.73-.54a6.4 6.4 0 0 0-.88-.288c-1.067-.283-2.148-.53-3.17-.962-1.51-.634-2.984-1.358-4.49-1.992-1.463-.615-2.925-1.241-4.475-1.6-.821-.19-1.664-.2-2.496-.294-1.29-.15-2.548.063-3.801.35z" fill="#619633"/>
    <path d="M21.064 19.718c-.191.235-.341.53-.704.526-.58-.504-1.06-1.082-1.393-1.79-.56-1.19-.99-2.447-1.121-3.734-.14-1.353.417-2.629 1.14-3.77.56-.884 1.242-1.69 1.803-2.581.722-1.149 1.88-1.667 3.111-1.842 1.983-.284 3.746.35 5.157 1.827.583.612.58 1.473.726 2.253.18.95.01 1.902-.055 2.853-.114.13-.202.294-.4.313-.135-.063-.128-.168-.095-.294a6.1 6.1 0 0 0 .044-2.786c-.158-.739-.282-1.489-.898-2.063-.788-.735-1.726-1.048-2.723-1.302-1.781-.455-3.757.504-4.614 1.88-.184.299-.356.6-.565.884-.528.712-1.129 1.38-1.426 2.249-.27.79-.579 1.589-.432 2.44.176 1.002.436 1.99.85 2.93.36.817.777 1.586 1.602 2.015z" fill="#C0E073"/>
    <path d="M24.96 15.675v.504c-.004.354-.228.548-.517.66-.286.112-.557.037-.774-.172-.223-.216-.263-.492-.168-.787.165-.518.605-.79 1.004-1.066.227-.16.396.074.436.31.03.178.008.368.008.551h.014zm.396-3.614c-.045-.242.058-.466.102-.693.066-.347.282-.578.627-.627.359-.048.594.198.77.463.186.28.12.593-.085.839-.146.175-.344.306-.52.459-.195.167-.41.343-.667.227-.271-.123-.198-.425-.224-.668zm1.231 3.312a.5.5 0 0 1-.334-.134 4 4 0 0 1-.806-1.067c-.172-.324.007-.514.297-.5.403.02.825.079 1.202.22.312.116.531.389.436.795-.091.395-.271.679-.795.69zm-3.167-4.636c.18.012.337.12.484.265.389.38.389.906.502 1.384.033.134-.066.298-.242.332-.385.07-1.4-.66-1.484-1.063-.106-.504.205-.903.737-.914zm-.85 4.219c-.458.007-.869-.403-.89-.802-.023-.418.248-.687.71-.72.404-.026.781.082 1.155.216.245.09.315.332.198.481a2.6 2.6 0 0 1-1.173.82zm11.52.63c-.15.007-.133-.142-.195-.239-.106-.168-.267-.332-.146-.544.128-.232.337-.329.615-.344.462-.03.73.254 1.001.549.095.104.172.22.125.361-.055.165-.21.123-.338.138-.175.023-.355-.01-.531-.018a1 1 0 0 0-.275.015c-.08.018-.15.07-.234.082h-.023m.283 1.921c-.308.014-.572-.068-.645-.407-.074-.347.183-.481.436-.567.293-.1.6-.164.909-.224.18-.033.333 0 .315.25-.03.358-.649.94-1.012.947zm4.134-.493c-.491-.07-.817-.406-1.118-.764-.143-.168.022-.25.143-.284.473-.134.95-.138 1.404.056.223.097.308.314.238.548-.095.321-.363.407-.663.44zm-2.47.534c.146-.235-.033-.746.546-.758.282-.003.894.668.876.94-.019.291-.447.593-.8.567-.42-.033-.644-.28-.619-.75zm1.502-2.398c-.183.13-.425.2-.615.298-.41.209-.558.123-.547-.336.004-.216.063-.432.096-.649.128-.25.355-.332.608-.365.264-.034.513.033.649.268.084.146.11.314.055.478a.6.6 0 0 1-.242.305z" fill="#C0E073"/>
    <path d="M34.866 20.143c.525-.007 1.056.056 1.573.052 2.137-.018 4.193-.302 5.783-2.02.722-.78.792-1.579.272-2.526-.7-1.264-1.807-2.077-3.2-2.491-.95-.284-1.913-.466-2.877-.675-.341-.075-.653.052-.979.074-.967.067-1.928.224-2.862.452a4.95 4.95 0 0 0-2.126 1.104 1.55 1.55 0 0 0-.52 1.156c-.008.35-.023.705-.037 1.055-1.243-.194-.986-.1-.865-1.122.095-.82.586-1.298 1.26-1.653.334-.175.65-.384.976-.581.297-.015.575-.101.846-.22 1.371-.228 2.734-.646 4.127-.526 2.005.168 3.962.615 5.64 1.842.573.418 1.038.977 1.456 1.56.498.693.385 1.495.37 2.278-1.063 1.652-2.584 2.554-4.468 2.927-1.407.28-2.818.198-4.233.187-.048-.29-.092-.582-.14-.876z" fill="#C0E073"/>
  </g>
  <defs>
    <clipPath id="a">
      <path fill="#fff" d="M0 0h44v31H0z"/>
    </clipPath>
  </defs>
</svg>
