<svg width="28" height="37" viewBox="0 0 28 37" fill="none" xmlns="http://www.w3.org/2000/svg">
  <g clip-path="url(#a)">
    <path d="M12.13 8.812c.298.878.734 1.693 1.147 2.518a20.7 20.7 0 0 0 2.254 3.527 23.9 23.9 0 0 0 7.835 6.502c3.475 1.815 5.297 5.471 4.414 9.176-.745 3.128-2.947 5.587-6.676 6.25a13.87 13.87 0 0 1-7.681-.804c-1.93-.778-3.439-2.206-4.832-3.72-3.912-4.266-6.501-9.206-7.548-14.916-.09-.491-.145-.99-.22-1.484.1-.945.12-1.894.22-2.838.112-1.06.354-2.068.902-2.995.067-.115.082-.327.268-.29.127.026.149.212.168.339.093.606.36 1.142.625 1.681.399.815 1.107 1.123 1.945 1.086 1.11-.048 2.146.026 2.895.993.141.183.242.164.327-.07.246-.662.593-1.272.92-1.897.492-.934.85-1.901.75-2.987-.068-.703-.202-1.38-.641-1.994.61-.09 1.08.011 1.482.417l.619.617c.287.286.436.7.827.882z" fill="#581348"/>
    <path d="M12.13 8.812c-.395-.182-.54-.595-.827-.882q-.31-.305-.619-.617c-.402-.405-.871-.506-1.482-.417.44.614.573 1.291.64 1.994.101 1.086-.257 2.053-.748 2.987-.328.621-.675 1.235-.92 1.897-.086.235-.19.253-.328.07-.75-.966-1.785-1.04-2.895-.992-.842.037-1.546-.272-1.945-1.087-.264-.539-.532-1.075-.626-1.68-.018-.127-.037-.31-.167-.34-.183-.04-.198.176-.268.29-.548.923-.786 1.931-.902 2.995-.1.945-.12 1.894-.22 2.838-.324-1.13-.741-2.243-.808-3.425-.116-2.005.369-3.876 1.415-5.595.176-.29.34-.606.582-.83.544-.494.506-1.008.272-1.64A12 12 0 0 1 1.52.365c-.008-.35.07-.38.417-.358.92.053 1.349.462 1.427 1.403.067.785.35 1.547.633 2.287.231.607.336.674.995.596.76-.09 1.52-.224 2.28 0 2.164.624 3.837 1.83 4.716 3.976.071.175.19.338.138.543z" fill="#609442"/>
    <path d="M7.723 26.29c-.164-.304-.797-1.67-.943-1.982-.506-1.07-1.55-5.959-.521-6.494.04-.019.09-.012.13-.015.157.442.294.896.47 1.332 1.233 3.035 3.546 5.185 6.318 6.833 1.691 1.008 7.529 2.86 7.495 5.166-.022 1.473-1.84 2.147-3.05 2.247-1.156.097-2.247-.25-3.294-.688-2.895-1.22-5.123-3.668-6.605-6.402z" fill="#8E4A67"/>
    <path d="M8.974 10.337q-.549-.841-1.091-1.681c-.596-.919-1.185-1.845-1.84-2.723-.079-.104-.25-.238-.101-.368.127-.112.26.04.384.119.838.535 1.59 1.153 2.06 2.053.316.606.417 1.272.559 1.93.044.209.06.425.089.64zm-2.92 1.194c-.35-.227-.47-.621-.663-.952-.738-1.246-1.45-2.507-2.161-3.764-.049-.09-.235-.175-.104-.287.13-.115.186.067.26.141 1.036 1.027 1.736 2.262 2.25 3.612.153.41.444.767.436 1.231l-.018.015z" fill="#A1CA45"/>
  </g>
  <defs>
    <clipPath id="a">
      <path fill="#fff" d="M0 0h28v37H0z"/>
    </clipPath>
  </defs>
</svg>
