<svg width="40" height="36" viewBox="0 0 40 36" fill="none" xmlns="http://www.w3.org/2000/svg">
  <g clip-path="url(#a)">
    <path d="m37.472 13.717.754.073s-.622 1.525-1.719 2.025c0 0 .227.06.81.081 0 0-.025.064-.077.17-.231.47-.981 1.787-2.515 2.423l.694.069s-.077.064-.21.162c-.33.248-1.016.696-1.826.901l.733.303s-1.196 1.902-6.895-.072l-1.419-.91-7.67-4.921s-2.259-1.188-2.422-2.196l.789.077s-.814-1.013-1.037-2.435l.475.047s-.527-.808-.882-1.367c0 0 1.898-.282 3.188.833l.026-.633s.128-.038.398-.06c.497-.034 1.47-.016 3.009.394 0 0-.442-1.449-.202-2.769l.917.85S22.237 4.649 23 3.73l.296.671s.822-2.02 1.984-2.375l.565.525S27.41.543 28.438 0c0 0-.094 1.102.171 1.769 0 0 .695 1.234.343 2.657l.84-.15s.24.897.253 2.474c0 0 .244-.21.6-.29 0 0 .321.905-.227 2.31 0 0 .887-.696 2.1-.858l-.09.94s1.572-.863 2.61-.693l-.082.82s1.226-.58 3.381.099c0 0 1.196.29 1.663.337 0 0-.724.795-1.131 2.568 0 0-.78 1.388-1.397 1.734" fill="url(#b)"/>
    <path d="M27.61 1.18s-4.186 11.076-.543 17.685l.544-.372s-3.703-4.178 0-17.314" fill="#36722E"/>
    <path d="M24.825 3.187s.09 2.068 1.265 3.704v.495s-1.449-1.636-1.265-4.2m1.26 5.798s2.01-.137 3.304-2.486c0 0-1.05 2.383-3.304 2.85zm-4.079-1.846s1.444 2.931 3.904 4.119l-.138.312s-2.948-1.615-3.766-4.43m5.061 9.676s3.124-5.02 11.335-6.797c0 0-6.921 1.811-11.155 6.959l-.18-.167zM16.473 8.993s5.036 1.636 7.247 5.374l-.322.316s-2.001-3.554-6.93-5.69z" fill="#36722E"/>
    <path d="M29.994 13.811s-.523-2.294 1.658-4.678c0 0-1.706 2.29-1.363 4.456zm4.551-4.964s-1.35 1.064-1.389 2.986l.292-.14s-.155-1.21 1.097-2.846m.758 2.311s1.26.748 3.244.278c0 0-2.112.175-2.991-.389l-.249.107zm-4.075 2.248s2.644 1.567 5.695 1.14c0 0-3.514.073-5.421-1.324zM19.404 8.6s1.573 1.208 1.877 3.13l-.338-.26s-.163-1.397-1.534-2.875zm-3.552 1.422s1.26.628 3.308.432l.244.166s-2.267.308-3.552-.598" fill="#36722E"/>
    <path opacity=".69" d="m37.472 13.717.754.073s-.621 1.525-1.719 2.025c0 0 .227.06.81.081 0 0-.025.064-.077.17-.634.04-1.285.005-1.89.01.467-.752 1.213-1.376 1.62-2.145-.107-.017-.21-.103-.321-.111 1.093-.889 1.581-2.209 1.988-3.524-1.105-.24-2.49-.667-3.642-.522-.347.043-.707.231-1.046.372-.557.235-1.41 1.09-2.014.859 0-.235.056-.475.043-.697-1.17-.047-2.152.342-3.082 1.021.288-1.102.81-1.973.858-3.148-.24.192-.566.333-.866.2-.017-.768.146-1.46-.009-2.23-.45-.034-.891.129-1.328.146.081-1.299.128-2.738-.231-4.003-.626.406-1.256.68-1.758 1.247-.728.834-1.14 1.654-1.68 2.61-.21-.179-.36-.43-.574-.602-.33.872.065 1.795-.201 2.623-.334-.064-.613-.32-.904-.474-.047.611.094 1.56-.133 2.128-.484-.466-1.384-.748-2.006-1.026-.377-.166-.913-.431-1.397-.512.497-.035 1.47-.017 3.009.393 0 0-.442-1.449-.202-2.769l.917.85S22.237 4.649 23 3.73l.296.671s.822-2.02 1.984-2.375l.565.525S27.41.543 28.438 0c0 0-.094 1.102.171 1.769 0 0 .695 1.234.343 2.657l.84-.15s.24.897.253 2.474c0 0 .244-.21.6-.29 0 0 .321.905-.227 2.31 0 0 .887-.696 2.1-.858l-.09.94s1.572-.863 2.61-.693l-.082.82s1.226-.58 3.381.099c0 0 1.196.29 1.663.337 0 0-.724.795-1.131 2.568 0 0-.78 1.388-1.397 1.734" fill="#4AC661"/>
    <path opacity=".75" d="m33.383 19.621.733.303s-1.196 1.902-6.895-.072l-1.419-.91c-.184-.431-.342-.88-.565-1.286-.506-.914-1.149-1.73-1.637-2.657q-.088-.165-.176-.338a16 16 0 0 0-.746-1.268c-.128-.188-.231-.398-.36-.577-.124-.18-.278-.235-.428-.376-.146-.141-.274-.363-.399-.53a1.4 1.4 0 0 1-.128-.21h-.005a.8.8 0 0 1-.107-.298c-.201-.098.947-.837 1.132-.931.437-.235 1.045-.278 1.538-.316.013 0 .03-.005.043-.005q.154-.011.309-.03c.38-.03.758-.047 1.135.026l.244.051q.175.046.343.099c.973.299 1.834.892 2.036 1.96a4.75 4.75 0 0 1 1.98.09c.09.021.18.051.27.081.244.086.484.192.715.33q.13.074.245.174c.107.077.201.171.291.274.021.025.047.05.064.077.12.14.227.299.317.465.279.487.455 1.051.575 1.56.24.99.231 2.14 1.032 2.879.352.329.75.53 1.239.534.146 0 .3.013.45 0-.33.248-1.016.696-1.826.901" fill="#36722E"/>
    <path d="M29.214 19.95s1.392-2.435 7.2-1.97c.12.01.192.142.132.244l-.266.47a.15.15 0 0 1-.145.081c-.75-.034-5.674-.158-7.496 2.124l.575-.953z" fill="#684536"/>
    <path d="M7.94 24.513c1.196 1.76 2.88 2.695 4.843 2.217 2.589-.633 5.417.008 8.018.128.93.043 2.126.359 3.039.008 1.44-.55 1.29-2.43 1.242-3.695-.064-1.662-.702-3.469-1.337-5.01-1.358-3.299-4.684-2.248-7.05-.569-1.263.901-2.12 2.119-3.637 2.632-1.496.504-2.97.606-4.269 1.619-1.007.786-1.067 1.602-.852 2.67z" fill="#5B2036"/>
    <path d="M12.633 28.6c0 2-1.624 3.624-3.63 3.624A3.63 3.63 0 0 1 5.37 28.6a3.63 3.63 0 0 1 3.634-3.623 3.7 3.7 0 0 1 1.718.427 3.63 3.63 0 0 1 1.911 3.196M1.59 32.15s-1.042 4.009 3.35 3.274l.99-.948-.909-3.58-3.188.158-.24 1.098zm19.207-4.967-.608 4.058a5 5 0 0 1-.6.265c-1.942.743-2.987-.15-3.497-.94a3.4 3.4 0 0 1-.437-.935l.822-2.213 2.64-2.243.232-.197.184.282z" fill="#821D4B"/>
    <path d="M12.633 28.6c0 2-1.624 3.624-3.63 3.624A3.63 3.63 0 0 1 5.37 28.6c0-.795.257-1.53.694-2.127.416-.308.938-.488 1.367-.253.231.129.386.287.296.56.531.568.677 1.384.698 2.132.3.025.57-.154.879-.077.034-.645.077-1.12.338-1.722.227-.52.57-1.311 1.08-1.709a3.63 3.63 0 0 1 1.911 3.196" fill="#721744"/>
    <path d="m27.067 13.709-.947 2.384h-2.465l-1.25-2.687-1.214-1.85s.035-.047.103-.12a3.2 3.2 0 0 1 .592-.483c.694-.44 1.89-.837 3.552-.077 0 0 .206.116.472.38.197.189.428.458.634.817.24.418.445.957.523 1.636" fill="#B52C4D"/>
    <path d="m27.067 13.709-.947 2.384h-2.465l-1.25-2.687-1.214-1.85s.236-.312.695-.603c.63.039 2.374.338 2.815 2.427 0 0 1.371 1.222 1.209-2.123.428.41 1.01 1.192 1.157 2.452" fill="#A52046"/>
    <path d="m27.067 13.709-.947 2.384h-2.465l-1.25-2.687-1.214-1.85s.035-.047.103-.12c.63.124 1.311.547 1.753.957.523.483.93 1.025 1.367 1.585.321.414.87.628 1.298.213.318-.303.476-.606.609-1.025.111-.35.107-.726.214-1.072.005-.009.005-.017.009-.021.24.418.445.957.523 1.636" fill="#931B43"/>
    <path d="M9.535 25.414c-.686 1.781-3.175 2.896-4.727 2.303-.737-.282-1.225-.855-1.465-1.577-.27-.803-.228-1.785.137-2.725.373-.97 1.204-1.743 2.138-2.15h.004c.78-.34 1.633-.422 2.34-.153 1.556.59 2.259 2.516 1.573 4.302" fill="#B52C4D"/>
    <path d="M9.514 25.414c-.686 1.781-3.176 2.896-4.727 2.303-.737-.282-1.226-.855-1.466-1.577 1.44-.824 3.141-.15 3.141-.15 1.68-.845 1.732-2.917 1.732-2.917-.382-2.209-2.473-1.833-2.593-1.807.78-.342 1.633-.423 2.34-.154 1.555.59 2.258 2.516 1.573 4.302" fill="#A52046"/>
    <path d="M6.445 24.009c-.518.743-1.423 1.012-2.018.602-.596-.415-.656-1.35-.137-2.093.518-.744 1.684-1.346 2.28-.932s.394 1.684-.125 2.427z" fill="#CC2B5A"/>
    <path d="M5.982 23.218c-.321.466-.844.662-1.16.44-.318-.222-.314-.773.008-1.239.321-.465.844-.662 1.161-.44s.313.774-.009 1.24" fill="#E03D73"/>
    <path d="M34.215 27.183c0 .329-.056.645-.155.944-.45 1.324-1.812 2.285-3.428 2.285a4 4 0 0 1-.728-.064c-1.629-.303-2.855-1.606-2.855-3.165q0-.206.03-.398c.103-.781.519-1.478 1.132-1.982a3.78 3.78 0 0 1 2.421-.85c1.98 0 3.583 1.444 3.583 3.23" fill="#821D4B"/>
    <path d="M34.215 27.183c0 .329-.056.645-.155.944-.244-.675-.827-1.372-1.577-1.457-1.225-.137-2.288.795-2.742 1.863 0 0-.454 1.08.163 1.815-1.629-.303-2.855-1.606-2.855-3.165q0-.206.03-.398l1.132-1.982a3.78 3.78 0 0 1 2.421-.85c1.98 0 3.583 1.444 3.583 3.23" fill="#721744"/>
    <path d="M33.739 22.774c0 .295-.039.585-.12.854a3.234 3.234 0 0 1-3.128 2.38 3.24 3.24 0 0 1-3.244-3.234 3.243 3.243 0 0 1 3.646-3.213 3.24 3.24 0 0 1 2.846 3.213" fill="#BB4169"/>
    <path d="M28.03 21.45a3.72 3.72 0 0 1-1.615 3.067 3.73 3.73 0 0 1-2.13.662 3.736 3.736 0 0 1-3.74-3.73c0-.64.162-1.247.45-1.772a3.6 3.6 0 0 1 1.015-1.188q.278-.216.595-.376a3.76 3.76 0 0 1 1.68-.397 3.74 3.74 0 0 1 3.746 3.734" fill="#821D4B"/>
    <path d="M33.619 23.633a3.235 3.235 0 0 1-3.128 2.375 3.24 3.24 0 0 1-3.244-3.234 3.243 3.243 0 0 1 3.646-3.213c-.257.094-1.07.453-1.35 1.346 0 0 2.156 1.312 1.993 3.631 0 0 1.325.372 2.083-.905" fill="#992555"/>
    <path d="M32.513 20.702c.485.521.579 1.226.206 1.572s-1.067.2-1.556-.32c-.484-.521-.578-1.226-.205-1.572s1.067-.201 1.555.32" fill="#D15481"/>
    <path d="M32.27 20.63c.286.307.33.734.093.956-.235.218-.66.146-.947-.162s-.33-.735-.094-.957.66-.145.947.162" fill="#E0699A"/>
    <path d="M18.097 21.232c-1.088.628-2.451.444-3.492-.355a4 4 0 0 1-1.02-1.162c-.489-.85-.635-1.794-.463-2.631.163-.846.643-1.59 1.401-2.025 1.05-.607 2.357-.457 3.386.273.441.312.831.73 1.127 1.243.99 1.705.57 3.79-.939 4.657" fill="#B52C4D"/>
    <path d="M18.097 21.232c-1.504.867-3.522.188-4.512-1.517-.489-.85-.635-1.794-.463-2.631.561.017 2.13.192 2.935 1.555 0 0 1.569.008.81-2.333 0 0-.771-1.384-2.344-1.247 1.504-.867 3.527-.188 4.513 1.516.99 1.705.57 3.79-.939 4.657" fill="#A52046"/>
    <path d="M15.526 15.345c.707.235 1.14.854.964 1.388-.175.53-.895.77-1.607.534-.707-.235-1.14-.858-.964-1.388s.896-.769 1.607-.534" fill="#CC2B5A"/>
    <path d="M31.386 16.306c0 1.79-1.135 3.264-2.605 3.482q-.18.025-.369.025c-1.641 0-2.974-1.567-2.974-3.507 0-.038 0-.081.005-.12.008-.371.068-.73.17-1.063h.005c.407-1.354 1.504-2.324 2.794-2.324.96 0 1.817.538 2.357 1.375.386.59.617 1.333.617 2.132" fill="#BB4169"/>
    <path d="M26.415 24.517a3.73 3.73 0 0 1-2.13.662 3.736 3.736 0 0 1-3.74-3.73c0-.64.162-1.247.45-1.772q.148.037.316.12c.909.456 1.415 1.388 1.702 2.332.145.474.338.965.428 1.46.039.223-.038.706.313.599.111-.41.133-.859.253-1.277.094-.342.523-.833.291-1.141-.201-.265-.797-.423-1.071-.62-.703-.495-1.311-1.78-1.217-2.66v-.03c-.03-.082-.064-.07-.103-.073.099-.231.416-.282.698-.274.13.005.25.017.34.034.698.12 1.315.71 1.846 1.145.874.718 1.316 1.436 1.689 2.49.35 1 .308 1.906-.065 2.735m-5.618 2.666-.608 4.058c-.21.107-.407.197-.6.265a1 1 0 0 1-.33-.359c-.198-.372-.24-.863-.437-1.26-.292-.598-.613-.859-1.2-.419-.485.363-.977.816-1.53 1.098-.322-.487-.437-.936-.437-.936l.822-2.212 2.64-2.243q.212.03.416.085z" fill="#721744"/>
    <path d="M18.097 21.232c-1.088.628-2.451.444-3.492-.355a3.9 3.9 0 0 1-.086-1.44c.034-.243.304-1.157.626-.798 0 .18.677.534.882.62.258.106.527.14.806.153 1.059.055 1.474-.978 1.474-1.884a3.5 3.5 0 0 0-.107-.944c-.107-.397-.33-.842-.291-1.252.441.312.831.73 1.127 1.243.99 1.705.57 3.79-.939 4.657" fill="#931B43"/>
    <path d="M22.494 18.015c-1.418 1.06-4.028-.21-5.048-1.73a3.4 3.4 0 0 1-.489-1.124c-.3-1.281.176-2.648 1.307-3.404.935-.624 2.229-.646 3.309-.193h.004c.621.265 1.17.684 1.543 1.235 1.02 1.52 1.285 3.793-.626 5.216M5.584 32.416c-1.993.974-4.62.406-5.348-1.077a2.3 2.3 0 0 1-.227-.833c-.103-1.328.882-2.815 2.52-3.614a5 5 0 0 1 1.765-.504c1.393-.132 2.644.38 3.158 1.427.729 1.486.125 3.627-1.868 4.6M16.165 21.45c-.399 1.854-2.422 2.806-4.714 2.315-1.573-.338-2.705-1.277-3.236-2.422a3.64 3.64 0 0 1-.356-1.68c.052-1.593 1.843-2.596 3.776-2.584h.004c.364.005.733.043 1.097.12 2.297.491 3.831 2.396 3.428 4.25" fill="#BB4169"/>
    <path d="M22.777 23.415c0 2.14-1.534 3.874-3.428 3.874-1.783 0-3.249-1.538-3.412-3.503a4 4 0 0 1-.017-.371c0-1.688.952-3.123 2.28-3.657a3.1 3.1 0 0 1 1.149-.222c1.894 0 3.428 1.734 3.428 3.879" fill="#CC465C"/>
    <path d="M22.777 23.415c0 2.14-1.534 3.874-3.428 3.874-1.783 0-3.249-1.538-3.412-3.503 1.483-.017 2.289 1.846 2.289 1.846.047.107.896-.086 1.007-.116.283-.08.557-.2.801-.367.429-.286.759-.692.995-1.145.48-.927.53-2.2-.116-3.041a2.8 2.8 0 0 0-1.144-.86 3.7 3.7 0 0 0-1.085-.268c-.034-.005-.45 0-.458-.022l-.026-.055a3.1 3.1 0 0 1 1.149-.222c1.894 0 3.428 1.734 3.428 3.879" fill="#B53A52"/>
    <path d="M29.874 26.012c-.647 1.846-2.392 2.914-3.9 2.388-1.14-.397-1.916-1.803-1.95-3.264a4 4 0 0 1 .214-1.41c.647-1.845 2.31-2.67 3.819-2.144.492.17.93.508 1.268.953q-.001.001.004.008c.695.902.977 2.235.545 3.47m-14.138 4.211c-1.877 1.252-4.208 1.06-5.211-.431a2.66 2.66 0 0 1-.416-1.132c-.184-1.44.609-3.2 2.066-4.17a4.03 4.03 0 0 1 2.113-.696c1.242-.047 2.4.513 3.038 1.465.998 1.491.287 3.717-1.59 4.968z" fill="#BB4169"/>
    <path d="M25.751 29.934c-.428 2.097-1.946 3.34-3.801 2.964-1.414-.29-2.378-1.572-2.567-3.092a4.4 4.4 0 0 1 .056-1.474c.338-1.662 1.465-2.73 2.845-2.91a3.2 3.2 0 0 1 1.132.039c1.855.376 2.764 2.375 2.335 4.473" fill="#CC465C"/>
    <path d="M15.736 30.224c-1.877 1.252-4.208 1.06-5.211-.431a2.66 2.66 0 0 1-.416-1.132c.69 1.7 2.524 1.486 2.524 1.486 3.892-.401 3.844-3.78 3.844-3.78-.171-2.235-2.19-2.576-2.19-2.576 1.243-.047 2.4.512 3.039 1.465.998 1.49.287 3.717-1.59 4.968" fill="#A3345C"/>
    <path d="M13.876 27.546c-.857.717-2.01.756-2.575.085-.566-.67-.335-1.798.522-2.516s2.01-.756 2.576-.085c.566.67.334 1.798-.523 2.516" fill="#D15481"/>
    <path d="M13.31 26.405c-.445.372-1.04.393-1.337.043-.295-.35-.171-.931.27-1.307.446-.372 1.042-.393 1.337-.043.296.35.172.931-.27 1.307" fill="#E0699A"/>
    <path opacity=".83" d="M12.972 25.598c-.33.162-.694.094-.814-.145-.12-.244.051-.569.385-.731.33-.162.695-.094.815.145.12.244-.052.568-.386.73" fill="#fff"/>
    <path d="M19.01 22.633c-.566.812-1.5 1.14-2.087.735-.587-.406-.6-1.393-.034-2.205.566-.811 1.5-1.14 2.087-.734s.6 1.392.034 2.204" fill="#E2617A"/>
    <path d="M18.384 21.996c-.325.466-.857.654-1.19.423-.335-.23-.344-.794-.022-1.26.325-.465.857-.653 1.191-.423s.343.795.021 1.26" fill="#F26D8C"/>
    <path d="M16.165 21.45c-.399 1.854-2.422 2.806-4.714 2.315-1.573-.338-2.705-1.277-3.236-2.422 2.079 2.243 4.418 1.593 4.418 1.593 2.529-.854 1.899-3.123 1.899-3.123-.395-2.076-2.769-2.7-2.893-2.734.364.005.733.043 1.097.12 2.297.491 3.831 2.396 3.428 4.25" fill="#A3345C"/>
    <path d="M12.543 19.852c-.291.918-1.367 1.401-2.408 1.072-1.037-.325-1.868-1.337-1.581-2.26.291-.918 1.594-1.397 2.63-1.072 1.038.325 1.647 1.337 1.355 2.256z" fill="#D15481"/>
    <path d="M11.172 19.254c-.163.431-.758.606-1.337.393-.574-.214-.909-.74-.746-1.17.163-.432.759-.607 1.337-.394.575.214.909.74.746 1.17" fill="#E0699A"/>
    <path d="M5.584 32.416c-1.993.974-4.62.406-5.348-1.077a2.3 2.3 0 0 1-.227-.833v-.008c.912 1.448 2.978 1.29 2.978 1.29.72-1.782 2.944-2.158 2.944-2.158 1.204-2.588-1.011-3.14-1.637-3.242 1.393-.132 2.644.38 3.158 1.427.729 1.486.125 3.627-1.868 4.6" fill="#A3345C"/>
    <path d="M4.161 29.507c-.66.657-2.228.948-2.747.431s-.244-1.606.416-2.264 1.95-.799 2.468-.282c.519.517.523 1.457-.137 2.115" fill="#D15481"/>
    <path d="M3.002 29.006c.593-.29.927-.823.746-1.192-.181-.368-.81-.433-1.402-.143-.593.29-.927.823-.746 1.192s.809.433 1.402.143" fill="#E0699A"/>
    <path d="M22.494 18.015c-1.418 1.06-4.028-.21-5.048-1.73a3.4 3.4 0 0 1-.489-1.124c.433.539.913 1.055 1.483 1.453.84.572 1.851.769 2.73.166.917-.632 1.345-1.704 1.393-2.798a3.2 3.2 0 0 0-.223-1.367c-.163-.397-.416-.782-.763-1.046.621.26 1.17.679 1.543 1.23 1.02 1.52 1.285 3.793-.626 5.216" fill="#A3345C"/>
    <path d="M20.399 14.012c-.605.867-1.65 1.183-2.332.71-.685-.475-.75-1.56-.145-2.427.604-.867 1.65-1.184 2.33-.71.687.475.75 1.56.146 2.427" fill="#D15481"/>
    <path d="M19.61 13.312c-.386.452-.994.572-1.363.26-.368-.307-.355-.927.03-1.384.386-.453.994-.572 1.363-.26.369.307.356.926-.03 1.383" fill="#E0699A"/>
    <path d="M31.386 16.306c0 1.79-1.135 3.264-2.605 3.482-.686-.658-2.734-2.585-2.734-2.585l-.605-1.017c.009-.371.069-.73.172-1.063h.004c.137-.026 2.97-.504 4.388 1.691 0 0 .879-.538.763-2.64.386.59.617 1.333.617 2.132" fill="#A3345C"/>
    <path d="M29.758 13.811c0 .479-.562.872-1.256.872s-1.255-.389-1.255-.872c0-.482.561-.871 1.255-.871s1.256.389 1.256.871" fill="#D15481"/>
    <path d="M29.394 13.56c0 .341-.399.614-.892.614s-.891-.277-.891-.615.398-.615.891-.615.892.278.892.615" fill="#E0699A"/>
    <path d="M29.874 26.012c-.647 1.846-2.392 2.914-3.9 2.388-1.14-.397-1.916-1.803-1.95-3.264 1.427-.286 2.023 1.7 2.023 1.7 4.4.676 3.33-4.083 3.282-4.293.695.902.977 2.235.545 3.47" fill="#A3345C"/>
    <path d="M27.242 24.299c-.625.624-1.662.743-2.164.248-.501-.496-.394-1.41.232-2.034.625-.623 2.027-.871 2.528-.376.501.5.03 1.538-.596 2.162" fill="#D15481"/>
    <path d="M26.544 23.423c-.386.36-.917.415-1.187.124-.27-.29-.176-.812.214-1.17.386-.36.917-.415 1.187-.124.27.29.176.811-.214 1.17" fill="#E0699A"/>
    <path d="M32.946 27.866c-.265-.38-.908-.389-1.444-.017-.536.367-.754.974-.488 1.354.265.38.908.389 1.444.017.531-.367.754-.974.488-1.354" fill="#A3345C"/>
    <path d="M25.751 29.934c-.429 2.097-1.946 3.34-3.801 2.964-1.414-.29-2.379-1.572-2.567-3.092.608 1.132 1.414 1.384 1.414 1.384 3.535.88 3.968-2.59 3.968-2.59.082-2.468-2.352-3.148-2.48-3.177a3.2 3.2 0 0 1 1.13.038c1.856.376 2.765 2.375 2.336 4.473" fill="#B53A52"/>
    <path d="M22.923 28.383c-.266.966-1.187 1.965-2.383 1.196-.746-.483-.819-1.47-.399-2.375.283-.607 1.282-1.376 1.989-1.098.938.367 1.011 1.457.788 2.277z" fill="#E2617A"/>
    <path d="M21.881 27.947c-.24.475-.724.718-1.088.534-.364-.18-.463-.713-.223-1.187s.724-.718 1.088-.534c.365.18.463.713.223 1.187" fill="#F26D8C"/>
    <path opacity=".83" d="M21.483 27.4c-.159.317-.48.475-.72.355s-.305-.47-.15-.786c.158-.316.48-.474.72-.355.24.12.304.47.15.787m-10.988-9.023c0 .27-.3.483-.669.483-.368 0-.668-.218-.668-.483s.3-.483.668-.483.669.218.669.483m-7.2 9.313c-.081-.21-.428-.27-.775-.137-.347.137-.562.415-.48.624.081.21.428.27.776.137.347-.137.56-.415.48-.624" fill="#fff"/>
    <path d="M9.124 35.475c-1.993.974-4.196.56-4.924-.923a2.4 2.4 0 0 1-.215-1.346c.146-1.187 1.076-2.41 2.503-3.101 1.14-.556 2.348-.658 3.308-.372.725.222 1.307.658 1.62 1.294.729 1.483-.3 3.478-2.292 4.447" fill="#CC465C"/>
    <path d="M9.124 35.475c-1.993.974-4.196.56-4.924-.923a2.4 2.4 0 0 1-.215-1.346c.515 1.346 1.762 2.004 3.15 1.705 1.376-.295 2.923-1.24 3.171-2.653.288-1.632-.492-2.504-.51-2.52.862.234 1.307.653 1.62 1.29.729 1.482-.3 3.477-2.292 4.447" fill="#B53A52"/>
    <path d="M8.357 30.669c.342.593-.108 1.49-1.008 2.007s-1.907.457-2.25-.132c-.342-.59.108-1.491 1.008-2.008s1.907-.457 2.25.133" fill="#E2617A"/>
    <path d="M7.47 30.818c.205.359-.026.88-.523 1.166s-1.067.227-1.277-.132c-.206-.359.025-.88.522-1.166.498-.287 1.067-.227 1.277.132" fill="#F26D8C"/>
    <path opacity=".83" d="M7.487 30.669c.085.222-.103.504-.425.628-.321.123-.651.046-.741-.18-.086-.222.103-.504.424-.628.322-.124.652-.047.742.18m-1.925-7.801c-.201.29-.535.41-.741.27-.206-.142-.21-.497-.009-.787.202-.29.536-.41.742-.27.206.142.21.496.008.787" fill="#fff"/>
    <path d="M15.83 16.716c-.137.308-.553.419-.934.252s-.578-.55-.441-.858.553-.419.934-.252.578.55.441.858" fill="#E03D73"/>
    <path opacity=".83" d="M19.113 12.927c-.133.265-.42.393-.639.286-.218-.107-.287-.414-.154-.679s.42-.393.639-.286c.218.107.287.414.154.679m-.947 8.595c-.184.316-.527.457-.776.316-.244-.14-.296-.508-.111-.824.184-.316.527-.457.775-.316.245.14.296.508.112.824m8.142 1.436c-.244.166-.553.145-.69-.052s-.051-.49.193-.662c.244-.17.553-.145.69.052s.051.49-.193.662" fill="#fff"/>
    <path d="M29.205 20.399c-.823 1.328-3.013 1.546-4.877.602-1.127-.572-1.911-1.495-2.198-2.44-.189-.614-.167-1.242.116-1.794.71-1.392 2.96-1.738 4.89-.94a4 4 0 0 1 1.066.65c1.269 1.068 1.71 2.79 1.003 3.922" fill="#B52C4D"/>
    <path d="M29.205 20.399c-.823 1.328-3.013 1.546-4.877.602-1.127-.572-1.911-1.495-2.198-2.44.428.505 1.945 2.026 4.478 1.735 1.834-.32 2.648-2.268 1.594-3.819 1.269 1.068 1.71 2.79 1.003 3.922" fill="#A52046"/>
    <path d="M27.05 17.203c0 .919-.995 1.662-2.225 1.662s-2.224-.743-2.224-1.662.995-1.662 2.224-1.662 2.224.744 2.224 1.662" fill="#CC2B5A"/>
    <path d="M25.854 16.815c0 .448-.519.811-1.157.811-.639 0-1.157-.363-1.157-.812 0-.448.518-.811 1.157-.811.638 0 1.157.363 1.157.811" fill="#E03D73"/>
    <path opacity=".83" d="M24.958 16.503c0 .264-.278.478-.617.478s-.617-.214-.617-.478c0-.265.279-.479.617-.479.339 0 .617.214.617.479" fill="#fff"/>
    <path d="M24.778 10.82c.416.24.617.663.455.945-.163.282-.635.32-1.05.081s-.618-.662-.455-.944.634-.32 1.05-.081" fill="#C93F66"/>
  </g>
  <defs>
    <linearGradient id="b" x1="31.279" y1="5.122" x2="22.133" y2="17.76" gradientUnits="userSpaceOnUse">
      <stop offset=".13" stop-color="#3EAA52"/>
      <stop offset=".32" stop-color="#3DA251"/>
      <stop offset=".6" stop-color="#3C8F4E"/>
      <stop offset=".76" stop-color="#3B814D"/>
    </linearGradient>
    <clipPath id="a">
      <path fill="#fff" d="M0 0h40v36H0z"/>
    </clipPath>
  </defs>
</svg>
