<svg width="35" height="36" viewBox="0 0 35 36" fill="none" xmlns="http://www.w3.org/2000/svg">
  <g clip-path="url(#a)" fill-rule="evenodd" clip-rule="evenodd">
    <path d="M21.784 4.734c-1.303-1.1-3.002-2.322-4.025-2.204-1.106.13-2.864 1.06-4.538 2.174-.203.892.4 1.09.064 2.258-.415 1.461-1.457 1.615-3.17 3.283-1.714 1.67-2.653 3.546-3.433 5.888-.78 2.347.677 3.283-.158 5.838s-.415 4.695.104 5.997c.518 1.302 3.017 2.605 4.682 3.491 1.664.887 2.03 1.926 2.651 2.451.302.253 6.771.253 7.073 0 .627-.52.987-1.564 2.652-2.45 1.664-.887 4.158-2.19 4.677-3.492s.938-3.442.103-5.997c-.83-2.555.627-3.49-.158-5.838-.78-2.347-1.713-4.224-3.432-5.888-1.714-1.668-2.756-1.827-3.17-3.283-.332-1.154.251-1.361.073-2.228z" fill="#75B522"/>
    <path d="M22.204 2.045c-1.126-.292-2.721-.738-3.477-.455-.755.282-1.244.727-.78 1.04.47.311.864.693.701 1.227-.158.535 3.131 2.64 3.131 2.64v-.015c-.044-.223.89-.535.455-1.352s-1.368-2.441-.03-3.09z" fill="#96D442"/>
    <path d="M22.204 2.045c-1.126-.292-2.721-.738-3.477-.455-.538.198-.938.485-.958.747.074.035.282.045.835-.322.775-.51 1.244.05 1.585.208.336.159.548 1.199.548 2.244 0 .47-.05.916-.103 1.257.622.441 1.15.778 1.15.778v-.015c-.044-.223.89-.535.455-1.352s-1.368-2.441-.03-3.09z" fill="#75B522"/>
    <path d="M12.8 2.02c1.127-.292 2.88-.678 3.478-.455.908.336 1.792.653 1.328.965-.469.312-1.407.773-1.25 1.303.164.534-3.13 2.644-3.13 2.644v-.015c.044-.223-1.359-.535-.924-1.352.43-.817 1.837-2.441.499-3.09" fill="#96D442"/>
    <path d="M12.8 2.02c1.127-.292 2.88-.678 3.478-.455.691.257 1.368.5 1.447.738-.01 0-1.339-.421-1.754-.317-.414.104-1.432.416-1.432.416s.262.55-.182 1.302c-.351.604-.144 1.634-.045 2.03-.598.421-1.091.738-1.091.738v-.015c.044-.223-1.358-.535-.924-1.352.43-.817 1.837-2.441.499-3.09z" fill="#75B522"/>
    <path d="M23.69 0s4.993 1.04 6.03 2.604 1.56 4.794 3.433 6.467c1.871 1.67 2.39 6.047 1.244 7.612-1.146 1.564.519 3.545-.415 5.526s-2.701 3.961-3.225 5.526c-.518 1.565 0 2.605-3.432 4.273-3.432 1.67-3.64 1.357-4.055 2.506s-.78 1.149-2.81 1.357-2.963.104-2.963.104-.938.104-2.963-.104c-2.03-.208-2.39-.208-2.81-1.357-.415-1.149-.622-.837-4.055-2.506S4.76 29.3 4.237 27.736c-.519-1.565-2.287-3.546-3.225-5.526-.938-1.981.726-3.962-.415-5.526-1.14-1.56-.617-5.943 1.255-7.612 1.871-1.668 2.39-4.902 3.432-6.467C6.32 1.044 11.314 0 11.314 0c2.701-.08 3.116 2.213 2.237 3.882-.884 1.669.158 1.62-.262 3.075-.414 1.46-1.456 1.614-3.17 3.283s-2.652 3.546-3.432 5.888c-.78 2.347.676 3.283-.159 5.838-.834 2.555-.414 4.694.104 5.997.519 1.302 3.018 2.604 4.682 3.49s2.03 1.927 2.652 2.452c.301.253 6.77.253 7.072 0 .627-.52.988-1.565 2.652-2.451s4.159-2.189 4.677-3.491c.519-1.303.938-3.442.104-5.997-.83-2.555.627-3.49-.158-5.838-.78-2.347-1.714-4.224-3.433-5.888-1.713-1.669-2.755-1.827-3.17-3.283-.415-1.46.622-1.406-.262-3.075S20.978-.08 23.685 0z" fill="#96D442"/>
    <path d="M24.955.312c1.55.42 4.064 1.238 4.766 2.298 1.037 1.564 1.56 4.793 3.432 6.467 1.872 1.669 2.39 6.046 1.245 7.61-1.146 1.566.518 3.546-.415 5.527-.934 1.98-2.702 3.962-3.225 5.526-.519 1.565 0 2.605-3.433 4.274s-3.64 1.357-4.054 2.505c-.415 1.15-.78 1.15-2.81 1.357s-2.963.104-2.963.104-.939.104-2.964-.104c-2.03-.208-2.39-.208-2.805-1.357-.415-1.148-.627-.836-4.054-2.505-3.433-1.669-2.91-2.709-3.433-4.274-.518-1.564-2.286-3.545-3.225-5.526C.4 20.912.91 19.61 1.003 18.426c0 .005.108 2.753.533 3.412s2.598 2.867 2.795 3.956c.198 1.09.81 3.521 2.716 4.531 1.912 1.005 3.67 1.555 4.4 2.456.737.902.81 1.788 1.532 2.01.72.229 2.86.496 4.47.615S20 35.237 20 35.237l-4.681-.614s4.746.194 6.183-.217 1.753-1.451 2.647-1.773c.894-.317 3.615-1.416 4.484-2.377.864-.96 1.15-2.877 1.704-4.283.548-1.407 2.291-3.066 2.538-3.74.247-.678-.148-2.629-.207-3.703-.06-1.07.198-2.224.198-2.224s-1.887 1.976-2.243 3.303l-.355 1.332s-.924-1.455.736-3.659c1.659-2.203 2.188-1.842 2.444-3.15.257-1.307.306-2.346-.281-3.035-.588-.688-.721-.554-1.566-1.005-.844-.456-.415-.96-.716-2.045s-1.086-3.69-2.138-4.62C27.696 2.49 27.429 1.149 24.95.322z" fill="#75B522"/>
    <path d="M8.51 5.264S7.051 6.883 6.795 8.13c-.257 1.253-1.038 2.506-1.038 2.506S7.161 9.75 8.514 9.23s1.507-.337 1.507-.337-1.354.575-2.208 1.278c-.86.703-2.134.783-2.494 1.406-.366.63-.677.837-1.092 2.506-.414 1.669-.414 2.293-.414 2.293s.987-1.407 1.61-1.565c.627-.159.884-.312.884-.312s-1.61 1.07-2 1.827c-.39.758-.52 2.323-.494 2.947.024.624.597 2.035.597 2.035l1.22-1.357s-1.067 2.11-1.091 2.971.622 3.417.651 4.303c.025.887 2.524 3.234 3.537 3.62 1.012.391 2.207 1.382 2.207 1.382s-3.096-1.357-3.877-1.902c-.78-.55-2.34-2.426-2.523-3.441s-.573-3.18-.702-3.675c-.133-.495-.31-1.436-.987-2.347S1.753 18.49 1.753 18.49s.43.728.899 1.263.884 1.11.884 1.11-.454-2.23-.509-2.957c-.049-.728.158-1.684-.04-2.253-.192-.575-.79-2.308-1.155-2.803s-.573-.782-.573-.782.884.574 1.275 1.124c.39.544.82 1.782.82 1.782s.444-2.386.869-3.1c.43-.718 1.22-1.851 1.274-2.738.054-.886.079-2.322.079-2.322l.484 1.59s.508-1.58 1.002-2.11c.494-.535 1.457-1.015 1.457-1.015zm17.98 0s1.458 1.619 1.714 2.867c.262 1.253 1.037 2.506 1.037 2.506S27.84 9.75 26.487 9.23s-1.506-.337-1.506-.337 1.353.575 2.207 1.278c.86.703 2.134.783 2.499 1.406.366.63.677.837 1.091 2.506.415 1.669.415 2.293.415 2.293s-.987-1.407-1.61-1.565c-.622-.159-.884-.312-.884-.312s1.61 1.07 2 1.827c.39.758.519 2.323.494 2.947-.024.624-.597 2.035-.597 2.035l-1.22-1.357s1.067 2.11 1.091 2.971-.622 3.417-.652 4.303c-.024.887-2.523 3.234-3.536 3.62-1.012.391-2.207 1.382-2.207 1.382s3.091-1.357 3.872-1.902c.78-.55 2.34-2.426 2.523-3.441s.573-3.18.702-3.675c.128-.495.31-1.436.987-2.347s1.092-2.372 1.092-2.372-.43.728-.894 1.263c-.47.535-.884 1.11-.884 1.11s.454-2.23.508-2.957c.05-.728-.157-1.684.04-2.253.193-.575.795-2.308 1.156-2.803.365-.495.573-.782.573-.782s-.885.574-1.275 1.124c-.39.544-.82 1.782-.82 1.782s-.439-2.386-.869-3.1c-.43-.718-1.22-1.851-1.274-2.738-.05-.886-.079-2.322-.079-2.322l-.484 1.59s-.509-1.58-1.002-2.11c-.494-.535-1.457-1.015-1.457-1.015z" fill="#CBEE8F"/>
    <path d="M17.478 5.274s1.328.653 2.03 1.198c.7.545 1.535 2.293 2.469 3.026.938.728 1.975 1.772 2.42 2.421.44.654-.86.337-1.506 1.07-.652.728-.835.99-.835.99s2.183-1.332 3.017-.837S27 15.96 26.97 16.663c-.025.703-1.536 1.669-1.536 1.669s1.896-.263 1.896.44-.543 2.11-.335 3.65c.207 1.54-1.872 2.347-1.872 2.347s.987.025 1.506-.336c.519-.367.835-.808.835-.808s.207 1.956-.208 2.947c-.415.99-1.585 2.188-2.756 2.916s-2.281 2.09-3.289 2.54c-1.007.451-4.306.694-4.874.615-.573-.08-1.872-.758-2.988-1.199-1.116-.44-1.22-1.015-2.494-1.564-1.274-.545-3.017-1.902-3.353-2.501-.336-.6-.548-2.422-.336-3.442.207-1.015.39-1.381.39-1.381s1.146.158 1.847.861l1.092 1.095s-.623-1.303-1.196-1.828c-.572-.52-1.506-.935-1.506-.935s.208-1.773 0-2.605c-.207-.837-.128-1.54-.128-1.54l1.95.574s-1.64-.94-1.792-1.51c-.158-.575 1.536-3.65 2.005-3.674s2.598.232 2.598.232-1.275-.599-1.897-.624c-.622-.024-.207-.757.025-1.07.232-.311 1.457-1.772 2-2.109s1.195-.99 1.402-1.59c.208-.598.86-1.46 1.196-1.747s1.585-1.199 2.34-.807z" fill="#96D442"/>
    <path d="M18.075 8.081s.05 1.877.208 2.605.261 2.293.261 2.293 1.714-1.98 2.287-2.243 1.353-.416 1.353-.416-1.195.936-2.133 1.926c-.934.99-1.457 3.075-1.457 3.753 0 .679.365 3.13.365 3.13s2.494-2.867 3.536-3.338c1.043-.47 2.341-.574 2.341-.574s-2.39.782-3.328 2.035c-.934 1.253-2.129 2.244-2.238 2.818-.103.574.208 5.056.573 5.056.366 0 2.445-1.04 3.329-1.877s1.976-2.085 1.976-2.085-.884 2.243-1.976 3.026c-1.091.782-3.018 1.302-3.432 2.084-.415.783-1.146 3.858-.988 4.59.158.729-.158 1.358.365 1.15.519-.208 2.653-1.095 2.964-2.397s3.328-2.818 3.328-2.818-1.871 1.407-2.39 2.556c-.519 1.148-1.403 2.916-2.81 3.13-1.403.207-4.055.623-4.628.366-.572-.258-2.237-2.244-3.066-2.813-.835-.575-1.714-3.65-1.714-3.65s1.195 2.19 1.871 2.506c.677.312 2.134 2.14 2.86 2.451.726.312 1.457-1.253 1.56-2.45.104-1.2.78-3.076.104-3.858-.676-.783-3.95-1.461-4.677-2.244-.726-.782-.834-1.926-.834-1.926s.518.941 1.299 1.406c.78.47 3.17 1.04 3.95 1.199.78.158 1.117-.174 1.146-1.565.025-1.392-.192-3.635-.869-4.105-.676-.47-2.617-1.99-3.398-1.783-.78.208-1.6.352-1.6.352s.9-.728 1.497-.901c.597-.169 1.704.089 2.133.366.43.272 1.729 1.149 1.729 1.149s-.05-.926-.025-1.892 0-1.995-.232-2.594c-.232-.6-1.69-1.615-2.47-1.67s-1.506-.183-1.506-.183 1.56-.312 2.109-.158c.543.159 1.457.678 1.847.936.39.262-.183-2.293.795-3.338z" fill="#CBEE8F"/>
    <path d="M18.456 24.051s-.08 2.14-.287 2.996c-.207.862-.652 3.674-.86 4.04s-.207.729.08.862c.286.13.573.288.701-.886.134-1.174.104-2.06.287-2.738.182-.679.493-2.085.493-2.63s-.414-1.644-.414-1.644" fill="#E5FCBD"/>
  </g>
  <defs>
    <clipPath id="a">
      <path fill="#fff" d="M0 0h35v36H0z"/>
    </clipPath>
  </defs>
</svg>
