<svg width="48" height="45" viewBox="0 0 48 45" fill="none" xmlns="http://www.w3.org/2000/svg">
  <g clip-path="url(#a)">
    <path d="M36.485 8.008c5.715 8.107 4.952 19.09-2.931 25.56-7.902 6.48-18.678 4.855-25.911-2.016L36.49 8.005z" fill="#FF8000"/>
    <path d="M36.485 8.008c5.715 8.107 4.952 19.09-2.931 25.56C30.693 21.084 18.17 22.96 7.643 31.551L36.49 8.005z" fill="#FA6B03"/>
    <path d="M7.642 31.552c-4.19-5.053-1.125-14.414 6.84-20.914s17.82-7.681 22.003-2.63c4.188 5.048 1.126 14.414-6.839 20.914-7.97 6.502-17.816 7.678-22.004 2.63" fill="#FA0"/>
    <path d="M36.485 8.008c-4.183-5.051-14.036-3.877-22.003 2.63a28.2 28.2 0 0 0-4.597 4.736c1.752-1.199 3.586-2.277 5.554-3.097 4.085-1.703 9.557-3.467 13.794-1.513 4.045 1.87 6.364 5.066 7.753 8.828 1.92-4.375 1.904-8.685-.495-11.575z" fill="#FC0"/>
    <path d="M8.234 30.727c-3.952-4.764-1.039-13.614 6.506-19.776 7.547-6.158 16.868-7.29 20.821-2.526s1.035 13.617-6.513 19.775c-7.544 6.162-16.866 7.294-20.814 2.527" fill="#FFF0BF"/>
    <path d="M21.63 17.668c-.269.049-.153-.502-.255-.695-.018-.032-.025-.064-.036-.094-.156-1.622-.198-3.292-.34-4.922-.086-1-.195-1.985-.193-3.023l-.006-.01q.035-.003.069-.01c.925-.803 2.897-1.564 5.012-1.861 2.07-.289 3.617-.1 4.086.487-.304.462-.6.926-.928 1.39-.826 1.173-1.757 2.367-2.658 3.518-3.178 4.065-4.041 5.091-4.756 5.222zm2.182.786c2.044-.943 4.074-2.047 6.095-3.103 1.537-.807 3.126-1.681 4.702-2.348.37-.96.028-2.382-.963-3.573-.996-1.2-2.353-1.813-3.374-1.623l-.008-.014c-.301.455-.6.915-.91 1.368-.762 1.112-1.695 2.198-2.543 3.282-2.88 3.69-3.6 4.367-3.88 5.02-.467 1.12.311 1.21.88.99m.009.857c2.815.662 5.663 1.316 8.02 2.524.94-.8 2.006-2.5 2.673-4.407.667-1.895.749-3.451.31-4.061-3.491 1.461-6.95 3.544-10.437 5.202 0 0 .003.004-.006.01-.3.152-.538.274-.684.499-.138.207-.017.203.113.235zm-1.19 10.076q.052-.038.1-.083c.99-.094 2.935-1.165 4.923-2.792 1.99-1.624 3.426-3.307 3.709-4.257l.018-.01a36 36 0 0 0-4.779-1.709c-.8-.223-1.615-.431-2.428-.635-1.087-.271-1.07-.233-1.467-.096-.49.167-.91.65-.874.996.232 1.342.494 2.672.722 4.016.153.893.287 1.804.265 2.776-.015.575-.103 1.183-.196 1.792zm-1.74-12.261a1 1 0 0 1-.021-.235c-.126-1.476-.164-2.992-.29-4.469-.078-.943-.196-1.881-.194-2.866.003-.122.002-.249.005-.37-1.025.162-2.894 1.213-4.805 2.771-1.991 1.623-3.427 3.306-3.71 4.257 2.67.541 5.164 1.33 7.718 2.043.06.007.117.01.172.02.25.015.574.175.84-.193.216-.296.25-.606.293-.89l-.004-.07zM8.411 25.073c2.091-.874 4.174-2.014 6.269-2.914 1.12-.484 2.24-.914 3.36-1.336.492-.236 1.176-.693 1.537-1.122.754-.896-.106-.927-.248-1.03-1.727-.487-3.4-1.036-5.153-1.482-.88-.225-1.78-.42-2.694-.594-.958.78-2.047 2.507-2.728 4.452-.654 1.856-.75 3.385-.338 4.023zm1.161 3.993c.937 1.132 2.192 1.74 3.19 1.647.239-.382.483-.767.749-1.146.808-1.151 1.648-2.29 2.405-3.454.948-1.45 1.913-2.88 2.966-4.29.21-.347 1.223-1.413.765-1.36-.248.03-1.054.522-1.663.76a80 80 0 0 0-3.415 1.369c-2.015.877-4.012 1.973-6.023 2.794a.4.4 0 0 0 .069.086c-.382.96-.044 2.397.952 3.597zm3.521 1.79.085-.014c.43.616 2.044.867 4.155.573 1.952-.279 3.781-.945 4.778-1.681.084-.562.186-1.136.228-1.685.076-1.1-.115-2.11-.286-3.096-.177-1.036-.367-2.064-.545-3.094-.175-.814-.159-1.3-.783-1.204-.603.089-1.57 1.34-1.57 1.34a70 70 0 0 0-2.947 4.278c-.62.975-1.326 1.933-2.01 2.896-.4.56-.755 1.125-1.112 1.685z" fill="#FFBF00"/>
    <path d="M14.245 17.021a48 48 0 0 0-2.836-.624c-1.008.822-2.153 2.641-2.874 4.688-.688 1.955-.788 3.564-.354 4.238 2.177-.906 4.345-2.09 6.525-3.035a23.6 23.6 0 0 1 3.14-4.236c-1.192-.354-2.376-.714-3.599-1.026zm.322 5.451c-2.12.921-4.218 2.077-6.338 2.944.021.035.049.061.072.09-.405 1.016-.044 2.524 1.003 3.79.82.983 1.863 1.589 2.793 1.718a22 22 0 0 1 .571-3.72 19 19 0 0 1 1.937-4.832l-.037.022zm5.94-13.205c-.003-.131.001-.26-.002-.392-1.076.169-3.042 1.277-5.058 2.92-2.095 1.71-3.604 3.478-3.905 4.481 2.205.447 4.304 1.058 6.404 1.663a28 28 0 0 1 2.95-2.73c-.055-.975-.107-1.958-.187-2.925-.083-.994-.207-1.983-.207-3.015zm13.39-.117c-1.05-1.235-2.45-1.86-3.515-1.661l-.008-.014c-.32.478-.633.964-.96 1.44a38 38 0 0 1-1.562 2.058c1.862-.823 3.939-1.49 6.047-1.818zm-4.605-.327c.34-.483.655-.97.974-1.459-.492-.615-2.12-.816-4.3-.512-2.222.312-4.294 1.114-5.274 1.962l-.069.01q.002 0 .001.011c-.003 1.088.114 2.13.205 3.18.085 1.018.143 2.052.2 3.086a32 32 0 0 1 6.284-3.889c.101-.047.208-.098.317-.144a84 84 0 0 0 1.67-2.243z" fill="#FFBF00" style="mix-blend-mode:screen" opacity=".2"/>
  </g>
  <defs>
    <clipPath id="a">
      <path fill="#fff" d="M0 18.757 31.894 0l15.208 25.86-31.894 18.756z"/>
    </clipPath>
  </defs>
</svg>
