<svg width="44" height="46" viewBox="0 0 44 46" fill="none" xmlns="http://www.w3.org/2000/svg">
  <g clip-path="url(#a)">
    <path d="M6 26.79c-.002-1.307.3-2.538.685-3.747.54-1.685 1.438-3.165 2.448-4.583 2.654-3.736 5.86-6.94 9.72-9.483 1.594-1.051 3.281-2.006 5.27-2.25 3.263-.4 6.359.362 9.19 2.355.58.408 1.144.88 1.518 1.508-.033.103.012.19.056.29.388.858.53 1.741.431 2.634-.12 1.076-.597 2.001-1.175 2.863-.69 1.032-1.609 1.884-2.334 2.89-.36.497-.57 1.057-.761 1.633-.311.938-.492 1.92-.729 2.882-.226.914-.426 1.834-.685 2.736-.398 1.385-.857 2.747-1.64 3.93-.72 1.082-1.543 2.083-2.602 2.903-.99.769-2.11 1.257-3.282 1.668-1.366.476-2.837.495-4.313.326-1.142-.132-2.254-.459-3.358-.888-1.188-.466-2.265-1.099-3.3-1.842-.786-.565-1.482-1.223-2.167-1.895a14 14 0 0 1-1.483-1.705c-.528-.718-1.055-1.445-1.49-2.225m12.365-4.703c.067.284.365.265.54.406.38.305.792.57 1.111.947.035.04.219.292.18-.038.047.004.19.08.108-.045-.466-.733-1.18-1.148-1.96-1.461-.044-.02-.132-.021-.1.065.019.048.08.084.121.126m12.973-10.5c.3.384.68.666 1.122.867.177.15.293.363.524.45-.523-.828-1.215-1.436-2.213-1.718.137.252.415.229.566.402m-12.23 18.274c.087.038.218.062.124-.076-.529-.791-1.256-1.311-2.195-1.59.137.251.388.264.55.403-.077.126.02.152.117.213.33.2.643.422.902.716.133.154.267.324.5.331zm.091-13.933c.277-.252.619-.418.918-.639 1.408-1.032 3.074-1.39 4.855-1.4 1.468-.008 2.81-.246 3.807-1.284.641-.666 1.232-1.38 1.486-2.306.195-.715-.11-1.263-.849-1.55-1.685-.648-3.374-.69-5.032-.344-1.525.32-2.892.979-4.222 1.729-1.663.94-3.215 2.004-4.618 3.268-1.436 1.295-2.73 2.713-3.843 4.29-.353.503-.628 1.06-.944 1.592-.127.22-.107.346.184.488.536.26.868.743 1.254 1.253a.67.67 0 0 1-.392-.254c-.306-.382-.731-.623-1.107-.921-.088-.068-.203-.18-.258.02-.152.562-.434 1.068-.6 1.63-.306 1.036.296 1.252 1.08 1.218 1.704-.079 3.001-.944 4.018-2.148.931-1.103 1.733-2.316 2.794-3.31.417-.393.77-.853 1.257-1.177M12.728 25.7c.138-.15.045-.369-.16-.531-.208-.16-.435-.192-.606.043-.159.22-.13.413.107.595.234.18.434.167.661-.11zm9.884-7.557c-.218-.225-.426-.076-.568.085-.171.192-.094.432.118.604.23.191.48.132.615-.055.137-.184.107-.43-.165-.634m9.071-1.976c.149-.218.083-.454-.118-.604-.199-.147-.445-.147-.608.07-.165.215-.103.444.107.595.206.144.442.145.62-.061M20.857 32.039c.219.187.424.145.573-.026.184-.21.108-.443-.11-.625-.216-.18-.415-.11-.563.066-.177.206-.116.405.1.585m2.342-4.384c.071-.111.069-.242-.08-.346-.147-.104-.312-.107-.425.015-.103.11-.038.232.077.33.14.122.28.163.43.003zm4.972-7.949c.056-.103.121-.224-.049-.312-.15-.077-.315-.105-.423.055-.084.12-.062.237.062.337.17.13.298.072.408-.077zM13.978 30.609c.112-.11.108-.226-.046-.34-.138-.105-.269-.11-.373.018-.104.13-.07.25.063.367.143.123.258.113.359-.043zm-5.88-5.441c-.13-.086-.252-.079-.359.043-.093.109-.104.214.031.323.132.101.264.136.382.012.11-.119.095-.245-.054-.378" fill="#CFA14D"/>
    <path d="M6 26.79c.431.777.958 1.504 1.489 2.225.444.603.947 1.179 1.483 1.705.682.67 1.378 1.333 2.166 1.895 1.036.743 2.113 1.376 3.301 1.841 1.101.433 2.213.755 3.358.889 1.479.171 2.945.153 4.313-.326 1.172-.41 2.294-.902 3.282-1.668 1.059-.82 1.886-1.819 2.601-2.903.784-1.183 1.243-2.545 1.64-3.93.26-.902.46-1.822.686-2.736.237-.962.413-1.943.729-2.883.19-.575.407-1.135.76-1.633.723-1.007 1.645-1.857 2.335-2.889.58-.865 1.056-1.787 1.175-2.863a4.97 4.97 0 0 0-.43-2.634c-.044-.095-.09-.187-.057-.29 1.292 1.68 2.019 3.468 1.527 5.484-.276 1.136-.752 2.186-1.356 3.16-.981 1.588-1.476 3.36-1.835 5.197-.489 2.516-.997 5.027-2.02 7.366-1.557 3.561-4.296 5.837-8.06 7.006-2.931.907-5.944.982-9.01-.118-2.886-1.034-5.31-2.744-6.874-5.45-1.022-1.771-1.306-3.68-1.272-5.615.005-.28-.049-.574.07-.838zm8.928 11.237c.36.263.84.203 1.106-.138.264-.343.143-.877-.263-1.166-.314-.222-.922-.133-1.132.17-.242.347-.119.84.289 1.134m14.434-4.7c.142-.228.133-.458-.08-.66-.192-.18-.683-.158-.797.039-.149.266-.046.539.194.723.252.194.496.111.68-.099zm-15.11 2.506c-.245-.146-.47-.229-.674.042-.18.241-.18.44.086.664.269.226.49.192.68-.024.198-.223.156-.459-.089-.685zm2.725.525c-.215-.156-.415-.181-.576.023-.17.22-.088.412.138.59.237.182.43.102.572-.06.173-.194.069-.393-.136-.55zm1.872-.11c.646.438 1.254.924 1.86 1.413-.443-.7-1.056-1.181-1.86-1.414m10.366-4.686c-.145-.097-.314-.113-.424.012-.126.145-.07.316.089.448.144.115.27.079.374-.045.109-.136.135-.267-.037-.413zM7.309 30.51c.026-.112.04-.253-.082-.366-.102-.097-.229-.09-.296.01-.088.127-.123.28.054.402.11.075.216.071.324-.046" fill="#C08C42"/>
    <path d="M18.99 16.08c-.487.325-.84.785-1.258 1.176-1.061.995-1.862 2.208-2.793 3.311-1.02 1.207-2.315 2.069-4.018 2.148-.782.036-1.384-.18-1.08-1.219.166-.561.447-1.067.6-1.629.052-.202.172-.09.257-.02.374.3.799.542 1.108.921.08.1.178.199.392.254-.386-.51-.718-.993-1.254-1.253-.291-.142-.315-.27-.184-.488.312-.534.587-1.092.943-1.592 1.11-1.58 2.407-2.995 3.844-4.29 1.402-1.264 2.955-2.327 4.617-3.268 1.332-.753 2.697-1.415 4.223-1.73 1.657-.346 3.346-.303 5.031.346.741.283 1.05.834.85 1.549-.255.925-.846 1.64-1.487 2.306-.998 1.038-2.339 1.276-3.807 1.284-1.778.007-3.445.365-4.854 1.4-.298.218-.641.387-.919.639m-5.07.965c.116-.168.07-.38-.136-.513-.216-.143-.476-.21-.646.054-.156.246.002.434.198.584.22.169.408.1.583-.122zm15.03-6.494c.141-.22.115-.41-.106-.57-.2-.145-.39-.124-.53.053-.142.186-.165.41.035.573.212.172.434.096.604-.059z" fill="#E7C267"/>
    <path d="M12.73 25.699c-.23.275-.427.29-.661.11s-.266-.376-.107-.595c.17-.235.398-.203.606-.043s.297.376.16.531zm9.884-7.557c.27.207.299.447.165.634-.137.184-.385.246-.615.055-.21-.175-.289-.412-.118-.604.14-.158.35-.305.568-.085m9.071-1.976c-.174.208-.41.207-.62.06-.214-.15-.273-.376-.106-.594.165-.215.41-.217.608-.07.201.15.264.383.118.604M20.857 32.039c-.218-.177-.28-.381-.1-.585.149-.17.345-.243.563-.067.218.183.297.414.11.627-.15.17-.357.21-.573.025" fill="#9F6E29"/>
    <path d="M17.59 28.6c-.162-.14-.413-.152-.55-.404.942.282 1.669.802 2.195 1.59.09.137-.037.115-.124.077-.44-.5-.99-.87-1.518-1.26zm8.777-4.761-.24-.185c.794.069 1.76.782 2.261 1.637-.16.044-.222-.123-.339-.165-.403-.638-1.009-1.008-1.68-1.29zm-8.002-1.752c-.042-.042-.102-.079-.121-.127-.032-.09.056-.085.1-.064.783.315 1.494.728 1.96 1.461.079.127-.06.049-.109.045-.538-.537-1.094-1.054-1.83-1.315" fill="#A67629"/>
    <path d="M18.365 22.087c.736.26 1.29.776 1.83 1.315.04.33-.141.081-.178.038-.32-.378-.732-.642-1.111-.947-.176-.14-.471-.12-.54-.406" fill="#E7C267"/>
    <path d="M23.199 27.655c-.15.165-.291.118-.43-.003-.113-.096-.178-.217-.078-.33.113-.122.275-.121.426-.015.148.104.15.234.079.346zm4.971-7.948c-.112.146-.237.206-.407.076-.126-.097-.146-.216-.062-.338.108-.159.273-.131.424-.054.17.088.102.212.048.313zM13.978 30.608c-.1.155-.216.166-.359.043-.13-.115-.166-.238-.063-.367.104-.13.233-.12.373-.018.152.117.158.23.046.34zm-5.88-5.441c.149.133.162.262.054.378-.113.123-.247.091-.382-.012-.137-.106-.126-.211-.03-.323.104-.124.23-.132.358-.043" fill="#A67629"/>
    <path d="M17.59 28.6c.532.394 1.08.763 1.518 1.26-.23-.01-.364-.18-.5-.33-.258-.294-.572-.516-.901-.717-.098-.06-.196-.084-.116-.213" fill="#E7C267"/>
    <path d="M14.928 38.027c-.405-.297-.531-.787-.29-1.133.212-.299.819-.393 1.133-.17.406.288.527.822.263 1.165s-.745.401-1.106.138m14.434-4.7c-.186.213-.426.295-.681.1-.243-.187-.342-.458-.194-.724.11-.197.603-.216.798-.038.215.203.222.431.08.66zm-15.109 2.506c.245.226.287.462.088.685-.189.216-.41.25-.68.024-.266-.223-.26-.424-.085-.664.2-.273.43-.191.674-.042zm2.724.525c.205.157.309.356.136.55-.142.162-.337.245-.572.06-.228-.175-.307-.37-.138-.59.159-.206.361-.179.577-.023z" fill="#9F6E29"/>
    <path d="M18.85 36.247a3.2 3.2 0 0 1 1.86 1.414c-.607-.489-1.218-.977-1.86-1.414" fill="#A67629"/>
    <path d="M29.215 31.562c.171.146.148.28.036.412-.101.127-.23.16-.374.045-.156-.13-.215-.302-.089-.448.11-.124.277-.105.424-.012z" fill="#9F6E29"/>
    <path d="M7.309 30.51c-.105.12-.214.121-.324.046-.177-.121-.145-.272-.054-.402.07-.103.197-.105.296-.01.123.113.108.254.082.367" fill="#A67629"/>
    <path d="M14.132 16.89c-.172.224-.36.293-.583.122-.196-.15-.354-.338-.198-.584.167-.26.428-.194.647-.054.204.133.249.348.136.513zm19.544-7.13c-.168.152-.39.228-.604.059-.2-.163-.177-.388-.035-.573.138-.179.327-.2.53-.053.224.157.247.35.107.57z" fill="#CFA14D"/>
  </g>
  <defs>
    <clipPath id="a">
      <path fill="#fff" d="M22.651.806 43.273 16.64 21.35 45.194.727 29.36z"/>
    </clipPath>
  </defs>
</svg>
