<svg width="34" height="36" viewBox="0 0 34 36" fill="none" xmlns="http://www.w3.org/2000/svg">
  <g clip-path="url(#a)">
    <path d="m13.073 8.143-.009-.005c-.018.014-.027.028.01.005" fill="#F31717"/>
    <path d="M26.727 7.147c-1.903-1.12-4.029-1.557-6.195-1.783a2.9 2.9 0 0 0-1.028.571c.235-.336.308-.571.04-.571h-4.35l.317 2.46.866.397q-.069.027-.131.06c-.218.13-.417.36-.522.608l-.883-.746a1 1 0 0 0-.181-.157q-.002-.097-.023-.216c-.14-.802-.3-1.618-.934-2.208-.797.198-2.397.673-3.194.871.584.691 1.79 1.226 2.55 1.705.019-.018.046-.037.01.005-.218.244-.38.562-.367.903v.023c-1.038-1.055-1.636-2.097-3-2.396-1.092.373-2.311 1.143-3.285 1.737-6.49 3.968-7.844 11.742-5.021 17.825 2.492 5.369 7.078 8.083 12.597 9.3 9.208 2.032 17.438-2.802 19.509-11.581 1.649-6.986-.843-13.323-6.77-16.811zM10.835 20.631c-.544-.802-.367-2.285.208-3.285.132.05.272.078.426.073a1.4 1.4 0 0 0 .494-.12c-.145 1.18-.684 2.245-1.128 3.332m1.667-11.046c.114.005.227.019.34.023.06.12.132.235.227.332l.245.207a3.5 3.5 0 0 0-.644-.244 1.3 1.3 0 0 0-.172-.318zm.322 5.88c.027-.069.06-.17 0 0m4.142-3.83c-.91.347-1.563 1.01-2.085 1.904-.566.973-1.214 1.885-2.156 2.48v-.13c.04-.083.068-.331.095-.405.027-.056.077-.157.09-.175.027-.046.073-.106.104-.162l.032-.036c.195-.212.417-.397.635-.586.29-.253.539-.525.766-.843a2.22 2.22 0 0 0 .42-1.3c-.008-.511-.208-.949-.502-1.34.027.023.05.04.077.064q.171.186.403.263c.15.078.308.115.485.11a1 1 0 0 0 .485-.11.93.93 0 0 0 .403-.263c.132-.143.236-.318.3-.507.013 0 .022.01.036.014q.306.095.611.184a1.15 1.15 0 0 0-.213.71c0 .046.014.087.018.133zm.924-3.28c-.18-.056-.367-.11-.548-.166a30 30 0 0 0 1.382-1.346c-.312.48-.566 1.01-.834 1.512m2.814 1.977c.032-.268 0-.549-.14-.784 1.296.185 2.551.549 3.743 1.185q.04.02.082.037a39 39 0 0 0-3.684-.438" fill="#F31717"/>
    <path d="M.14 21.968s8.85 10.327 20.836 6.244S32.681 13.77 32.681 13.765c.014.498.458 1.217.594 1.7a18.3 18.3 0 0 1 .689 4.48c.108 3.88-1.206 7.875-3.725 10.848-2.95 3.483-7.15 4.81-11.542 5.138-6.068.452-16.63-2.705-18.556-13.963" fill="#D80307"/>
    <path opacity=".62" d="M2.764 16.613s-.14 3.028 4.133 4.028c0 0 4.219.036 4.368-3.093 0 0 .218-2.921-3.47-4.115 0 0-3.377-.737-4.818 1.959 0 0-.172.562-.213 1.212z" fill="#FF6243"/>
    <path opacity=".6" d="M3.906 16.295s-.004 2.175 3.136 2.733c0 0 3.072-.13 3.081-2.374 0 0 .064-2.101-2.655-2.815 0 0-2.479-.406-3.444 1.58 0 0-.104.406-.113.876z" fill="#FF9583"/>
    <path opacity=".53" d="M7.02 17.392c-.952-.258-1.591-.977-1.433-1.613.159-.636 1.029-.267 1.98-.01.952.259 1.618.31 1.46.94-.159.637-1.056.94-2.008.683" fill="#FBE3D7"/>
    <path opacity=".62" d="M24.497 13.447c.354.355.59.834.64 1.406.362 4.046-8.751 9.124-10.872 4.848-1.106-2.236.72-6.107 3.181-6.29 1.727-.13 3.453-.452 5.198-.595.739-.06 1.396.18 1.853.631" fill="#FF6243"/>
    <path opacity=".6" d="M16.84 19.355a1.33 1.33 0 0 1-.44-.82c-.381-2.415 4.89-5.853 6.335-3.37.756 1.296-.322 3.185-1.795 3.397-1.033.148-1.921.931-2.963 1.092-.44.07-.848-.05-1.138-.304z" fill="#FF9583"/>
    <path opacity=".53" d="M19.132 16.447c.838-.336 1.745-.037 2.026.668s-.567.89-1.405 1.221c-.838.337-1.346.696-1.627-.009s.172-1.548 1.01-1.885z" fill="#FBE3D7"/>
    <path d="M9.575 1.806s2.764 1.987 3.766 3.78c.997 1.792 1.269 5.068 1.269 5.068s1.98 1.752 2.95-.76c.1-.263-.662-1.544-.793-1.853a53 53 0 0 0-.884-2.004c-.449-.959-.933-1.894-1.572-2.742-.508-.673-1.03-1.17-1.564-1.816-.28-.34-.834-1.262-1.273-1.428l-.861.94-1.038.825z" fill="#068E33"/>
    <path d="M11.023 1.523c.577-.451.862-1.06.635-1.361s-.88-.18-1.458.271c-.577.451-.862 1.06-.635 1.362.227.3.88.179 1.458-.272" fill="#30CF6B"/>
    <path d="M3.371 6.82c.721-.488 1.64-.815 2.452-1.12.811-.304 1.663-.603 2.529-.553 0 0 3.23 1.194 6.05 3.862l-.794.89-2.846-2.185c-.598-.46-1.182-.986-1.808-1.414-.784-.535-2.093-.194-2.972-.13-.902.065-1.854.143-2.606.65z" fill="#068E33"/>
    <path d="M13.504 9.594s-4.21-.28-4.618 0c-.408.282-3.457 1.194-6.122 4.572 0 0 5.56-2.797 6.662-2.922 1.1-.124 4.05-.382 4.332 0 .28.383 0 1.807 0 1.807s-2.23 2.719-2.665 3.986-1.205 3.355-1.024 5.055c0 0 5.152-9.756 6.534-9.958 0 0 5.098-1.245 6.204-.457 0 0 3.793.913 5.098 2.106 0 0-2.334-2.843-4.767-4.013S17.5 9.64 17.5 9.64s2.41-6.096 6.996-5.917c0 0-3.23-.027-4.97.71-1.745.738-2.87 3.733-2.87 3.733s-1.667.737-2.641.737" fill="#068E33"/>
  </g>
  <defs>
    <clipPath id="a">
      <path fill="#fff" d="M0 0h34v36H0z"/>
    </clipPath>
  </defs>
</svg>
