<svg width="41" height="41" viewBox="0 0 41 41" fill="none" xmlns="http://www.w3.org/2000/svg">
  <path d="M20.954 26.729v-.061h-3.818v.09a1.268 1.268 0 0 1-2.534 0v-.09h-.435a.81.81 0 0 1-.795-.64v-.005l-2.545-12.05-2.174-.361a.814.814 0 0 1 .27-1.605h-.005l2.72.453a.81.81 0 0 1 .662.629v.005l.461 2.176 7.937.661q-.074.392-.075.79v.004q0 .402.07.786l-.005-.027a.93.93 0 0 0-.634 1.067v-.006l.479 3.46c.03.222.13.417.278.564.135.134.32.218.524.22h.001a1 1 0 0 0 .133-.013h-.005a.926.926 0 0 0 .676-1.07v.007l-.261-1.882a4.44 4.44 0 0 0 3.205 1.363q.044.001.085-.004l.063-.003-.447 2.6a.27.27 0 0 1-.266.227h-9.91l.218 1.031h9.438a.814.814 0 0 1 .001 1.627h-.777v.06a1.267 1.267 0 1 1-2.535 0zm.906 0a.36.36 0 1 0 .713-.063v.002h-.707a.3.3 0 0 0-.005.06zm-6.352 0a.36.36 0 1 0 .713-.063v.002h-.707a.3.3 0 0 0-.005.06zm2.578-9.25a.925.925 0 0 0-.676 1.07v-.006l.479 3.46c.03.222.13.416.279.563a.75.75 0 0 0 .657.207h-.005a.926.926 0 0 0 .675-1.07l.001.007-.48-3.46a.97.97 0 0 0-.278-.563.76.76 0 0 0-.524-.221 1 1 0 0 0-.134.013zm-2.644 0a.924.924 0 0 0-.677 1.072v-.006l.48 3.46c.029.222.13.417.278.564a.72.72 0 0 0 .657.207h-.005a.926.926 0 0 0 .677-1.07v.007l-.48-3.462a.97.97 0 0 0-.279-.564.75.75 0 0 0-.524-.22 1 1 0 0 0-.132.012zm5.859-.752a3.787 3.787 0 1 1 7.576.002 3.787 3.787 0 0 1-7.578-.003zm1.085 0a2.702 2.702 0 1 0 5.406 0 2.702 2.702 0 0 0-5.408-.001zm2.16 1.08v-.538h-.54a.543.543 0 0 1 0-1.086h.54v-.538a.543.543 0 0 1 1.085 0v.538h.538a.542.542 0 1 1 0 1.086h-.538v.538a.543.543 0 1 1-1.085 0" fill="#9FC031"/>
  <g filter="url(#a)">
    <circle cx="18.5" cy="18.5" r="16.5" stroke="#9FC031" stroke-width="2" shape-rendering="crispEdges"/>
  </g>
  <defs>
    <filter id="a" x="0" y="0" width="41" height="41" filterUnits="userSpaceOnUse" color-interpolation-filters="sRGB">
      <feFlood flood-opacity="0" result="BackgroundImageFix"/>
      <feColorMatrix in="SourceAlpha" values="0 0 0 0 0 0 0 0 0 0 0 0 0 0 0 0 0 0 127 0" result="hardAlpha"/>
      <feOffset dx="2" dy="2"/>
      <feGaussianBlur stdDeviation="1.5"/>
      <feComposite in2="hardAlpha" operator="out"/>
      <feColorMatrix values="0 0 0 0 0 0 0 0 0 0 0 0 0 0 0 0 0 0 0.25 0"/>
      <feBlend in2="BackgroundImageFix" result="effect1_dropShadow_285_1605"/>
      <feBlend in="SourceGraphic" in2="effect1_dropShadow_285_1605" result="shape"/>
    </filter>
  </defs>
</svg>
