<svg width="15" height="13" viewBox="0 0 15 13" fill="none" xmlns="http://www.w3.org/2000/svg"><path d="M10.875 1c-1.34 0-2.495.637-3.125 1.692C7.12 1.637 5.965 1 4.625 1A3.63 3.63 0 0 0 1 4.625c0 1.787 1.125 3.654 3.338 5.55A21 21 0 0 0 7.63 12.47a.25.25 0 0 0 .238 0 21 21 0 0 0 3.294-2.296C13.375 8.28 14.5 6.412 14.5 4.625A3.63 3.63 0 0 0 10.875 1ZM7.75 11.964c-.875-.498-6.25-3.71-6.25-7.339A3.13 3.13 0 0 1 4.625 1.5c1.32 0 2.428.707 2.894 1.844a.25.25 0 0 0 .462 0C8.447 2.207 9.556 1.5 10.875 1.5A3.13 3.13 0 0 1 14 4.625c0 3.625-5.375 6.841-6.25 7.339Z" fill="#000" stroke="#000" stroke-width=".2"/></svg>