<svg xmlns="http://www.w3.org/2000/svg" width="512" height="512">
  <path d="m206.86-.098 3.378.01 3.512.025 3.559.014Q221.655-.03 226 0v7h14V0q13.626-.141 27.254-.207 6.328-.03 12.657-.095 6.118-.063 12.235-.078 2.325-.01 4.648-.043c13.481-.181 23.543 2.178 33.769 11.548 7.283 7.676 9.652 17.374 11.988 27.434l.92 3.836q.954 3.985 1.888 7.975c.797 3.408 1.608 6.812 2.424 10.215q1.17 4.89 2.33 9.786l.88 3.703.801 3.42.708 3.01C353 83 353 83 353 86l3.09.39c3.607.563 6.951 1.356 10.456 2.36l3.801 1.082L374.395 91l4.193 1.2q4.374 1.251 8.747 2.51 5.61 1.616 11.22 3.219l8.64 2.476 4.14 1.186q2.884.827 5.766 1.659c1.093.315 2.187.63 3.314.953C423 105 423 105 425 106c.668 11.667-.548 20.34-8.25 29.438-3.852 3.984-7.496 6.778-12.75 8.562l-2.865 1.033c-5.38 1.517-10.868 1.213-16.412 1.162l-3.535-.008c-3.709-.011-7.417-.037-11.125-.062q-3.782-.016-7.565-.027A5637 5637 0 0 1 344 146l.02 2.632q.09 12.377.135 24.754c.016 4.24.037 8.48.071 12.72.033 4.105.05 8.21.059 12.314q.008 2.33.032 4.66c.142 13.989-1.517 26.831-7.005 39.857l-.97 2.397A596 596 0 0 1 334 251l2.54.73c3.96 1.453 7.278 3.342 10.835 5.583l2.08 1.305c5.34 3.437 10.36 7.2 15.295 11.195l2.021 1.632c3.525 2.92 6.506 5.835 9.229 9.555l-4 5 8 9 7-4c18.86 23.195 18.86 23.195 22 34h2l.805-2.191c4.311-10.131 11.328-16.93 21.382-21.122 11.252-4.308 21.77-3.373 32.813 1.313 2.113 1.531 2.113 1.531 3.938 3.125 3.53 3.006 6.421 3.396 11 3.875 7.792.85 12.566 3.21 17.87 8.96 4.743 5.938 6.342 11.24 6.505 18.853.322 5.754 1.334 9.543 4.53 14.32 4.398 7.1 3.154 19.51 1.356 27.367-1.158 3.057-2.497 5.71-4.199 8.5l-1.527 2.531c-7.682 10.265-21.89 16.153-33.568 20.665-5.2 1.846-5.2 1.846-9.046 5.533-.628 2.006-.939 3.87-1.171 5.959q-.398 2.161-.833 4.316l-.408 2.094C457.573 441.33 444.42 453.315 435 461l2.32.044c3.519.075 7.037.172 10.555.269l3.648.068c11.262.336 20.729 2.161 29.477 9.619 11.545 12.629 10 23.163 10 41H21c0-30.962 0-30.962 10-41 7.559-6 7.559-6 11-6-2.065-3.65-4.377-6.714-7.125-9.875C19.897 436.928 10.658 414.393 4 392l-.68-2.199c-3.734-12.2-6.316-25.523-.695-37.488 1.818-3.324 3.715-5.648 6.52-8.13 3.591-3.476 3.742-6.608 3.918-11.433.775-9.862 3.476-17.295 10.914-24.148C29.614 304.14 34.792 300.9 42 300q1.255 3.185 2.5 6.375l1.406 3.586C47 313 47 313 47 315l-1.977.813c-7.885 3.535-12.223 7.606-15.398 15.687L29 334l3.375-.187c9.799.051 18.153 4.13 25.273 10.71 3.972 4.309 6.623 9.344 9.5 14.414 4.57 7.558 10.45 14.02 16.852 20.063l-.84-3c-3.917-14.17-3.917-14.17-4.16-20l-.156-3.402c-.326-13.812.948-28.055 7.156-40.598 4.841.588 8.96 2.077 13.375 4.063l1.941.853q2.346 1.035 4.684 2.084l.746-2.117C119.107 288.463 149.355 265.037 176 251h2l-1.426-3.445-1.887-4.68-.935-2.246c-5.158-12.922-6.187-25.259-6.045-38.965q.009-2.425.013-4.85c.011-4.205.04-8.41.074-12.615.031-4.311.044-8.622.06-12.933q.048-12.633.146-25.266l-1.976.027c-6.83.089-13.66.149-20.491.193q-3.816.03-7.632.082c-3.671.049-7.342.071-11.014.089l-3.408.062c-11.428.003-20.035-2.99-28.311-10.937-5.805-6.736-8.311-13.917-8.23-22.703l.027-3.856L87 106c14.485-4.511 29.034-8.802 43.601-13.039q3.087-.9 6.173-1.803 4.398-1.287 8.8-2.56l2.7-.795 2.506-.72 2.185-.637C155 86 155 86 159 86l.345-1.996c1.226-6.943 2.686-13.802 4.3-20.664l.762-3.244q.795-3.37 1.596-6.739.81-3.42 1.603-6.845c.771-3.33 1.56-6.658 2.351-9.985l.698-3.053c2.938-12.141 8.071-22.39 19.01-29.11 5.89-3.034 10.543-4.496 17.194-4.462" fill="#020201"/>
  <path d="M183 145h146c0 80.256 0 80.256-7.812 94.5l-1.047 1.992c-2.854 5.29-6.096 10.05-10.141 14.508l-1.793 2.035c-9.271 9.922-20.573 15.61-33.207 19.965l-2.32.813c-16.257 4.59-36.07.806-50.68-6.813-22.398-13.45-32.34-31.024-39-56z" fill="#FECDB6"/>
  <path d="m56.166 477.62 2.127-.014c2.351-.012 4.702-.003 7.054.006q2.555-.007 5.109-.016c4.68-.014 9.36-.01 14.04-.003 5.047.005 10.094-.008 15.14-.018 9.889-.017 19.777-.018 29.665-.013q12.054.006 24.108-.002l3.464-.003 6.966-.004c21.784-.014 43.569-.009 65.353.003 19.934.01 39.867-.003 59.801-.027q30.694-.037 61.388-.027 17.235.006 34.47-.017 14.674-.022 29.346.002c4.992.009 9.983.011 14.974-.004q6.855-.02 13.709.01 2.478.006 4.958-.01c15.888-.093 15.888-.093 22.162 4.517 5 7 5 7 5 30H37c0-23 0-23 6-31 4.412-2.979 7.9-3.376 13.166-3.38" fill="#E5CC9F"/>
  <path d="M69 388c3.036 1.383 5.34 3.032 7.875 5.188C87.478 401.49 99.023 405.376 112 408l2.777.594c4.763.6 9.49.553 14.285.531l3.13-.006c5.23-.03 10.407-.151 15.62-.619 24.68-2.196 24.68-2.196 33.188 3.5l2.098 1.32c8.55 5.85 13.441 13.657 15.902 23.68 1.473 9.482-1.797 17.595-6 26-16.56.352-33.119.616-49.681.777-7.692.077-15.382.182-23.073.355-6.71.15-13.418.246-20.13.28a415 415 0 0 0-10.64.174c-24.398.729-24.398.729-32.596-6.738-2.916-3.103-5.426-6.375-7.88-9.848a313 313 0 0 0-2.822-3.527C39.507 436.088 27 419.72 27 409l9 2 1.46-3.684 1.915-4.753.96-2.432.938-2.315.857-2.142C43 394 43 394 45 393c1.971.804 1.971.804 4.352 2.09l2.578 1.377 2.695 1.47 2.719 1.46Q60.676 401.187 64 403l.44-2.333c.595-2.833 1.517-5.306 2.623-7.98l1.097-2.675z" fill="#FCE21D"/>
  <path d="m173.54 98.72 2.203-.019c2.42-.017 4.839-.02 7.258-.023l5.226-.03c4.724-.027 9.447-.04 14.171-.048q4.44-.01 8.88-.023 13.927-.042 27.856-.055 16.006-.014 32.014-.102a5036 5036 0 0 1 24.829-.066c4.93-.002 9.858-.013 14.787-.05 38.516-.265 38.516-.265 53.346 5.946 3.344 1.327 6.81 2.239 10.273 3.2q1.953.563 3.906 1.13l3.836 1.108 5.906 1.706q2.784.808 5.564 1.627c2.165.622 4.338 1.217 6.521 1.774l2.751.725 2.37.585C407 117 407 117 407.892 118.9c.156 2.996-1.396 4.436-3.274 6.634-5.644 5.113-10.631 4.897-17.946 4.866l-3.51.02q-4.818.023-9.634.015c-3.465 0-6.93.016-10.395.03-6.787.025-13.575.033-20.362.035q-8.276.003-16.553.017-23.468.04-46.937.038h-5.114c-13.684-.002-27.368.027-41.052.07q-21.08.064-42.16.06c-7.888 0-15.777.008-23.665.04q-10.076.042-20.15.014c-3.427-.01-6.852-.01-10.278.016-3.718.023-7.433.009-11.15-.014l-3.268.046c-7.122-.098-11.399-1.674-16.443-6.788-3-4.125-3-4.125-3-7l4.8-1.371 2.118-.606 9.27-2.648 2.415-.69 28.647-8.185 2.442-.698L159 101l3.164-1.021c3.955-1.01 7.302-1.241 11.377-1.26" fill="#E5CB9E"/>
  <path d="M405 361.438c6.29 3.459 11.676 7.772 17 12.562l1.89 1.676c10.627 10.005 23.04 25.457 24.048 40.574-1.158 14.055-14.135 25.693-24.125 34.625-4.17 3.502-8.482 6.827-12.813 10.125-8.233-3.599-14.622-11.573-20.84-17.867-5.096-5.032-10.639-9.578-16.16-14.133l-9 9a168.5 168.5 0 0 0 21.469 21.59C388 461 388 461 389 463h-51c3-9 3-9 4.125-12.062 4.016-13.482 3.268-30.301-2.875-42.938l-1.422-2.625C337 403 337 403 337.613 400.973c3.053-4.343 6.76-8.11 10.387-11.973l1.433-1.552c1.445-1.56 2.91-3.1 4.38-4.635l2.707-2.856C359 378 359 378 360.943 378.196c2.344.916 3.64 1.975 5.448 3.718l1.889 1.798 1.97 1.913 4.035 3.84 1.946 1.859c4.39 4.159 8.906 8.084 13.769 11.676 3.452-1.426 5.101-3.097 7.25-6.125l1.578-2.195L400 393c-10.844-10.044-10.844-10.044-22.043-19.687L376 371.688l-1.75-1.426C373 369 373 369 373 367c2.012-1.437 2.012-1.437 4.688-3l2.636-1.562c8.41-4.519 15.897-5.122 24.676-1" fill="#FCCCB5"/>
  <path d="M225 7h15v8l2.476-.034q11.606-.15 23.213-.225a1532 1532 0 0 0 11.931-.118q5.767-.08 11.535-.097 2.19-.014 4.38-.055c9.709-.173 17.798.54 25.366 7.202 4.134 4.19 5.622 8.9 6.974 14.515l.64 2.404C327.466 42.26 328 45.16 328 49H184c3.174-22.217 3.174-22.217 11.84-29.559 4.39-3.276 7.644-4.571 13.047-4.539l2.842.01 2.958.025 2.995.014q3.66.018 7.318.049z" fill="#E5CB9E"/>
  <path d="m224 289 11 3c6.982 1.618 13.465 2.386 20.625 2.375l2.88.002c8.668-.134 16.227-1.875 24.495-4.377l5-1v81h-18v-26h-16v26c-11.062.438-11.062.438-14.508.568l-2.777.116-2.809.11c-3.318.235-6.613.736-9.906 1.206z" fill="#FEFEFE"/>
  <path d="M333 268c5.412 2.706 10.125 5.242 14.938 8.75l1.812 1.306c5.03 3.675 9.726 7.66 14.25 11.944l1.75-.875L372 286l9 10-5 5c1.607 3.675 3.912 6.463 6.438 9.563 4.343 5.502 8.075 11.27 11.625 17.312l1.445 2.412c2.677 4.655 4.14 8.34 4.492 13.713l-2.64.043c-25.563 1.024-44.456 19.692-61.426 37.086C334 383 334 383 333 383z" fill="#FCFCFC"/>
  <path d="M235 420c3.677 1.53 5.899 3.734 8.625 6.605l2.64 2.729a1297 1297 0 0 1 5.47 5.742c.87.897 1.742 1.793 2.64 2.717l2.398 2.516c2.045 1.927 2.045 1.927 4.359 1.595 2.96-1.432 4.86-3.662 7.118-6.029q1.46-1.506 2.926-3.008l1.448-1.485c4.148-4.165 8.652-7.894 13.376-11.382 8.138 7.533 16.252 15.063 24 23 5.082-4.178 9.718-8.648 14.267-13.392 1.208-1.239 2.467-2.428 3.733-3.608h2c.366 14.477-2.177 23.398-9 36-1 1-1 1-2.841 1.123l-2.455-.003-2.81.004-3.105-.01h-3.252c-3.566 0-7.131-.009-10.697-.016l-7.395-.005q-9.753-.006-19.505-.024c-6.63-.011-13.258-.015-19.887-.02Q229.527 463.033 210 463c.64-4.035 1.486-7.915 2.555-11.86.473-2.274.515-4.383.57-6.702.393-3.738 1.265-5.265 4.125-7.688l2.14-1.645c3.45-2.782 6.502-5.89 9.61-9.043l1.782-1.795q2.112-2.13 4.218-4.267" fill="#FB6845"/>
  <path d="M154 323c20.826 9.43 40.885 24.959 49.438 46.813 2.533 7.902 2.533 7.902 1.562 11.187-2.02 1.853-4.16 3.407-6.398 4.988-4.45 3.44-7.969 7.743-11.602 12.012l-2.047-.621-2.703-.817-2.672-.808L177 395l-1.768-.541c-2.88-.592-5.589-.57-8.529-.557l-3.652.01-3.801.026-3.848.013q-4.701.018-9.402.049-.722-1.874-1.437-3.75l-.81-2.11c-6.349-18.028-.92-41.53 6.685-58.312A176 176 0 0 1 154 323" fill="#88E695"/>
  <path d="M180 64h152c4 16 4 16 4 20H176c1-8 1-8 4-20" fill="#FB6845"/>
  <path d="m238.47 384.807 3.25-.049c4.92-.044 9.84-.085 14.759-.108q3.87-.025 7.738-.082c21.405-.316 37.488.707 53.72 15.994 3.084 3.038 3.938 5.188 6.063 9.438l-13 13c-4.004-3.322-7.783-6.732-11.437-10.438-2.92-2.945-5.865-5.839-8.938-8.625l-1.898-1.722c-1.784-1.503-1.784-1.503-4.727-1.215a83 83 0 0 0-5.187 5.062q-1.476 1.522-2.958 3.04l-1.467 1.504c-4.48 4.498-9.437 8.434-14.388 12.394l-23-23c-3.877 1.938-5.694 3.518-8.625 6.605l-2.64 2.729a1297 1297 0 0 0-5.47 5.742c-.87.897-1.742 1.793-2.64 2.717l-2.398 2.516C213 422 213 422 210.858 421.924c-3.003-1.493-4.685-4.084-6.608-6.737l-1.246-1.619c-2.39-3.226-3.004-4.416-3.004-8.568 6.861-10.636 18.238-16.782 30.288-19.52 2.776-.491 5.364-.634 8.182-.673" fill="#87E393"/>
  <path d="M183 145h146v69h-1v-68H201l.188 35.375.02 11.052c.03 3.352.03 3.352.066 6.703q.02 2.19.012 4.38c-.054 24.003 8.063 44.44 24.862 61.697 5.657 5.34 12.036 9.102 18.852 12.793-6.034 2.392-13.343-1.582-19-4-8.717-4.455-16.083-10.107-23-17l-1.89-1.82C173.836 226.802 183 178.447 183 145" fill="#EFA17B"/>
  <path d="m173.675 98.76 2.246-.006c2.466-.003 4.931.008 7.397.019h5.323c4.806-.002 9.61.01 14.416.024 5.026.013 10.052.014 15.079.016q14.268.011 28.537.043c10.832.022 21.664.033 32.496.043q33.416.032 66.831.101v1l-2.45-.01q-29.52-.111-59.041-.065c-9.517.014-19.034.011-28.551-.031q-12.443-.057-24.886-.01c-4.393.016-8.784.017-13.177-.02-4.136-.035-8.27-.028-12.405.012a216 216 0 0 1-4.55-.026c-8.14-.387-8.14-.387-15.092 3.114-1.629 2.339-1.629 2.339-2.752 4.789-5.488 11.25-24.443 16.552-35.342 20.395-7.073 2.181-13.879 2.743-21.254 2.79l-3.414.048c-7.311-.188-11.934-1.69-17.086-6.986-3-4.125-3-4.125-3-7l4.8-1.371 2.118-.606 9.27-2.648 2.415-.69 28.647-8.185 2.442-.698L159 101l3.156-1.024c3.93-.998 7.5-1.25 11.52-1.217" fill="#D5B27B"/>
  <path d="M179 268v52l-14-8c-2.513-1.227-5.048-2.414-7.625-3.5l-3.414-1.469c-3.068-1.25-3.068-1.25-6.961-1.031-5.696 10.446-11.149 20.71-15 32-4.389-3.267-8.753-6.549-13-10 6.093-16.732 39.805-60 60-60" fill="#DDE3E7"/>
  <path d="M318 270v111l-15-7a3477 3477 0 0 1-.518-35.963 1515 1515 0 0 0-.236-16.7 1044 1044 0 0 1-.195-16.125 353 353 0 0 0-.108-6.143c-.407-16.043-.407-16.043 3.21-21.047 2.533-2.053 4.951-3.542 7.847-5.022 4.04-3 4.04-3 5-3" fill="#FC6846"/>
  <path d="M483 326c3.21 2.595 6.738 5.67 7.223 9.98-.935 12.887-15.256 21.696-24.348 29.645l-1.871 1.617c-3.256 2.856-6.429 5.803-9.61 8.742-2.35 1.979-4.72 3.515-7.394 5.016l-1.723-2.16c-4.502-5.584-9.054-10.919-14.277-15.84 3.656-4.479 7.397-8.373 11.797-12.117 2.44-2.086 4.822-4.229 7.203-6.383a775 775 0 0 1 11.05-9.797 363 363 0 0 0 4.118-3.656l2.144-1.922 1.926-1.742c4.178-3.28 8.888-2.65 13.762-1.383" fill="#87E494"/>
  <path d="M96 333c10.252 1.472 18.956 9.896 26 17l2.746 2.441c3.858 4.731 2.957 11.148 2.942 16.934.053 7.572.209 14.336 2.312 21.625v4c-7.411.356-12.746.513-18.703-4.406C102.229 382.235 96.26 370.226 95 358c-.134-3.751-.14-7.497-.125-11.25l-.012-3.008.004-2.883.004-2.61C95 336 95 336 96 333" fill="#53DD70"/>
  <path d="M350 389c12.28 21.014 15.954 42.155 10 66l-2 6h30l1 2h-51c3-9 3-9 4.125-12.062 4.016-13.482 3.268-30.301-2.875-42.938l-1.422-2.625c-.828-2.375-.828-2.375-.25-4.36 1.822-2.582 3.807-4.916 5.922-7.265l2.406-2.703C348 389 348 389 350 389" fill="#FAA880"/>
  <path d="m154 323 14 7-1.242 3.805c-5.553 17.147-9.9 34.281-5.196 52.285C162 388 162 388 162 392h6v1l-22 1c-7.8-20.8-4.644-44.134 4.438-64.172A237 237 0 0 1 154 323" fill="#53DC70"/>
  <path d="M41.125 351.375c5.174 2.93 7.837 7.672 10.875 12.625l2.098 3.11 2.027 3.14 1.883 2.89C59 376 59 376 57.68 379.36c-.555.87-1.109 1.742-1.68 2.64-4.738-1.443-8.989-3.372-13.375-5.625l-1.941-.984A1362 1362 0 0 1 36 373l-.516 1.617C33.565 380.517 31.36 386.263 29 392c-5.056-1.293-7.91-2.742-11-7-2.707-8.144-4.385-16.276-1.937-24.625 5.392-9.393 14.794-13.263 25.062-9" fill="#87E494"/>
  <path d="M194 270c1.371.879 2.735 1.77 4.07 2.704 1.963 1.362 1.963 1.362 4.301 2.58 4.014 2.47 6.27 4.237 7.41 8.927.263 4.074.233 8.053.098 12.129q-.025 2.238-.039 4.476a698 698 0 0 1-.222 11.723c-.092 3.995-.133 7.99-.179 11.986-.096 7.827-.25 15.65-.439 23.475-3.355-3.335-6.6-6.72-9.75-10.25-2.572-2.925-2.572-2.925-5.25-5.75a115 115 0 0 1-.114-5.805v-3.761l.016-4.094.005-4.166q.006-5.491.024-10.984.014-5.6.02-11.2.016-10.995.049-21.99" fill="#FB6846"/>
  <path d="M38 406h1l.478 1.827c1.833 6.579 4.373 12.408 7.584 18.423l1.467 2.765c3.829 7.078 7.94 13.94 13.024 20.202a106 106 0 0 1 3.251 4.25c4.152 5.312 4.152 5.312 9.949 8.458 3.163.341 6.195.379 9.376.302l3.58.034c3.881.025 7.758-.02 11.639-.066 2.7-.001 5.4.012 8.1.025 6.364.022 12.727-.007 19.091-.054 7.25-.052 14.501-.046 21.752-.036 14.903.02 29.806-.032 44.709-.13v1c-16.56.352-33.119.616-49.681.777-7.692.077-15.382.182-23.073.355-6.71.15-13.418.246-20.13.28a415 415 0 0 0-10.64.174c-24.398.729-24.398.729-32.596-6.738-2.916-3.103-5.426-6.375-7.88-9.848a313 313 0 0 0-2.822-3.527C39.507 436.088 27 419.72 27 409l9 2z" fill="#E0C31A"/>
  <path d="M289 176h15v44h-15z" fill="#060505"/>
  <path d="M208 176h15v44h-15z" fill="#070505"/>
  <path d="M178 277v42l-28-14c2.853-4.51 5.983-8.418 9.625-12.312l1.58-1.698C174.372 277 174.372 277 178 277" fill="#FDFDFD"/>
  <path d="M456.39 316.027 458 317c-6.98 8.725-15.548 15.968-23.996 23.234a182 182 0 0 0-4.54 4.157l-2.651 2.484-2.418 2.305c-2.599 1.975-4.148 2.66-7.395 2.82l-3-2c2.032-5.372 4.868-10.087 7.813-15l1.58-2.695c2.795-4.677 5.475-8.672 9.607-12.305l1.781-1.582c6.135-4.392 14.58-5.412 21.61-2.39" fill="#52DB6F"/>
  <path d="M496 359c2.124 7.764 1.27 13.459-2.32 20.64-5.05 7.093-12.7 10.068-20.368 13.673l-3.455 1.666C461.4 399 461.4 399 458 399l-2-6c5.614-5.129 11.238-10.238 16.977-15.227 2.339-2.05 4.65-4.128 6.96-6.21l2.528-2.274a943 943 0 0 0 5.101-4.64l2.434-2.212 2.188-2.003C494 359 494 359 496 359" fill="#86E293"/>
  <path d="M54 478v34H37c-.163-3.668-.281-7.33-.375-11l-.152-3.121c-.125-6.526.669-10.33 4.929-15.356C45.48 478.636 48.428 478 54 478" fill="#DDB87E"/>
  <path d="m208.887 14.902 2.842.01 2.958.025 2.995.014q3.66.018 7.318.049v1h-18l-.34 3.715c-.67 6.033-1.946 11.918-3.222 17.848l-.71 3.345Q201.869 44.955 201 49h-17c3.174-22.217 3.174-22.217 11.84-29.559 4.39-3.276 7.644-4.571 13.047-4.539" fill="#DAB67D"/>
  <path d="m34 350-1.094 1.66C28.426 359.316 28.07 366.268 29 375c.722 2.675 1.59 5.232 2.531 7.836.81 3.739-.648 5.956-2.531 9.164-5.056-1.293-7.91-2.742-11-7-2.707-8.144-4.385-16.276-1.937-24.625C20.328 352.945 25.453 349.81 34 350" fill="#52DB6F"/>
  <path d="M112 342c3.813 2.103 6.703 4.46 9.75 7.563l2.36 2.378c3.038 3.309 3.045 5.396 3.171 9.809l.114 3.535.105 3.715c.234 8.04.552 16.008 1.5 24-9.737-8.591-15.671-22.189-17-35-.206-5.333-.12-10.665 0-16" fill="#85E393"/>
  <path d="M233 386c-2.389 2.457-4.706 4.779-7.45 6.84-5.82 4.93-10.263 12.894-12.55 20.16-.214 3.02-.185 5.98 0 9-3.26-.262-4.101-1.11-6.36-3.582a201 201 0 0 1-2.39-3.23l-1.246-1.62c-2.39-3.226-3.004-4.416-3.004-8.568 6.52-10.107 20.38-20.221 33-19" fill="#52DA6F"/>
  <path d="M180 64h17l-4 20h-17c.877-7.02 2.222-13.198 4-20m42 370 .297 2.605c1.137 8.993 2.606 18.2 6.703 26.395h-19c.682-4.09 1.478-7.877 2.55-11.855.48-2.288.555-4.437.637-6.77.34-3.846 1.401-5.417 4.313-7.937C220.724 434 220.724 434 222 434" fill="#F73401"/>
  <path d="M157 431h15v15h-15z" fill="#FEFEFA"/>
  <path d="M127 431h15v15h-15z" fill="#FEFEF9"/>
  <path d="M454.063 315.938 457 316c0 3 0 3-1.54 4.867C443.896 332 443.896 332 441 332c1.38-3.857 3.178-6.925 5.563-10.25l1.878-2.64c2.294-3.105 2.294-3.105 5.622-3.173" fill="#83E090"/>
</svg>
