<svg xmlns="http://www.w3.org/2000/svg" width="512" height="512"><path d="M339 0c14.592 7.472 24.535 21.466 29.938 36.57C373.064 49.89 375.929 66.13 373 80l1.984-1.355c15.946-10.564 31.931-15.028 50.922-12.028 21.178 5.028 36.84 17.556 48.301 35.863 16.938 28.08 37.413 77.289 35.606 111.02C509 216 509 216 506 218c-9.809 1.027-20.19-.465-30-1.25l-2.499-.196C458.226 215.345 443.13 213.458 428 211c6.9 29.203 18.664 51.778 35.02 76.788C478.18 311.113 492.081 336.602 498 364l.53 2.406c4.885 23.98 1.858 49.516-8.53 71.594l-.875 1.87c-14.823 31.137-42.57 52.582-74.513 64.23-16.777 5.782-33.645 8.345-51.362 8.337l-2.31.003c-36.658-.092-71.146-12.398-97.952-37.628-2.059-1.968-2.059-1.968-4.988-3.812l-1.617 1.836c-17.74 19.95-39.229 37.925-67.063 39.574-13.602.479-25.54-1.057-38.023-6.613-2.576-.894-3.75-.846-6.36-.172l-2.332.598c-3.973 1.185-7.895 2.503-11.808 3.875-17.946 5.79-38.513 2.204-55.047-5.848-20.734-10.667-37.327-27.893-49.633-47.475a357 357 0 0 0-3.02-4.697C12.509 435.078 5.423 413.851 3 394l-.336-2.723C-.214 364.245 4.822 336.08 21.5 314.063c17.978-21.115 39.507-39.405 68.063-42.442 17.57-.619 31.722 5.901 45.437 16.379-.01-.82-.02-1.64-.032-2.484-.042-3.818-.07-7.636-.093-11.454l-.017-2.078c-.055-8.06.18-15.836 1.58-23.796.774-5.148.774-5.148-.688-9.993-1.763-2.318-3.613-4.223-5.75-6.195a133 133 0 0 1-2.437-3.187c-3.175-3.485-6.713-6.12-10.563-8.813l-2 2.063c-9.915 9.83-18.908 15.856-33.25 16.25-22.611-.444-37.849-14.8-52.762-30.133-4.285-4.5-8.15-9.297-11.988-14.18a1791 1791 0 0 0-3.148-3.879l-3.29-4.059-1.578-1.937-1.48-1.84-1.318-1.629c-1.84-2.57-3.026-5.032-3.811-8.094.756-3.099 1.323-3.306 3.95-4.945 5.115-3.05 10.512-5.073 16.113-7.054l3.269-1.168c24.036-8.345 52.828-16.75 76.957-5.11 10.33 5.602 16.558 14 20.473 24.871.877 3.908.796 6.824.478 10.759-.656 7.993-.656 7.993 2.545 15.042 2.844 2.234 5.777 4.124 8.84 6.043a107 107 0 0 1 4.688 4.563l1.949 2.003L143 219l1.723-3.184c4.247-7.759 8.5-15.072 14.277-21.816l1.531-1.965c5.524-6.837 15.506-16.865 24.469-18.37 3.465-.069 5.474.02 8.5 1.835 2.096 3.494 2.365 6.592 1.5 10.5-2.174 2.999-4.444 4.61-7.465 6.73-18.657 13.11-28.662 31.81-32.976 54.016-2.583 15.046-2.26 30.25.441 45.254l1.477-1.469c13.047-12.336 28.624-19.225 46.744-18.936 18.692.794 34.597 10.065 48.685 21.706 2.187 1.828 2.187 1.828 5.094 3.699l1.003-1.626q2.372-3.844 4.747-7.687l1.772-2.873c2.882-4.664 5.784-9.312 8.767-13.912 17.924-27.66 24.413-57.77 30.652-89.804C317.027 113.968 317.027 113.968 339 98c5-2.795 9.218-5 15-5 2.727-20.708 3.614-43.735-8-62a79 79 0 0 0-4.863-5.625C340 24 340 24 340 22l-1.707-.8c-5.44-2.845-10.495-5.885-12.543-11.825.274-3.7.956-5.487 3.25-8.375 3.338-1.67 6.419-1.712 10-1" fill="#FEDF7C"/><path d="M110 159c7.314 6.82 11.809 14.243 14 24-.02 2.321-.198 4.601-.385 6.915-.656 7.993-.656 7.993 2.545 15.042 2.844 2.234 5.777 4.124 8.84 6.043a107 107 0 0 1 4.688 4.563l1.949 2.003L143 219l1.723-3.184c4.247-7.759 8.5-15.072 14.277-21.816l1.531-1.965c5.524-6.837 15.506-16.865 24.469-18.37 3.465-.069 5.474.02 8.5 1.835 2.096 3.494 2.365 6.592 1.5 10.5-2.174 2.999-4.444 4.61-7.465 6.73-18.657 13.11-28.662 31.81-32.976 54.016-2.583 15.046-2.26 30.25.441 45.254l1.477-1.469c13.047-12.336 28.624-19.225 46.744-18.936 20.286.862 39.88 11.97 53.779 26.405-1.383 3.862-3.238 7.282-5.275 10.823C243.143 323.747 235.651 339.381 231 356l-.59 2.068c-8.144 29.516-3.38 60.848 10.738 87.748 4.383 7.536 9.582 14.232 15.7 20.43C258 468 258 468 257.863 470c-1.722 3.99-4.912 6.872-7.863 10l-2.453 2.648c-16.174 16.883-37.628 29.037-61.292 29.87-12.53.178-23.483-1.614-34.958-6.721-2.576-.894-3.75-.846-6.36-.172l-2.332.598c-3.973 1.185-7.895 2.503-11.808 3.875-17.946 5.79-38.513 2.204-55.047-5.848-20.734-10.667-37.327-27.893-49.633-47.475a357 357 0 0 0-3.02-4.697C12.509 435.078 5.423 413.851 3 394l-.336-2.723C-.214 364.245 4.822 336.08 21.5 314.063c17.978-21.115 39.507-39.405 68.063-42.442 17.57-.619 31.722 5.901 45.437 16.379-.01-.82-.02-1.64-.032-2.484-.042-3.818-.07-7.636-.093-11.454l-.017-2.078c-.055-8.06.18-15.836 1.58-23.796.774-5.148.774-5.148-.688-9.993-1.763-2.318-3.613-4.223-5.75-6.195a133 133 0 0 1-2.437-3.187c-3.175-3.485-6.713-6.12-10.563-8.813l-2 2.063c-9.915 9.83-18.908 15.856-33.25 16.25-22.611-.444-37.849-14.8-52.762-30.133-4.285-4.5-8.15-9.297-11.988-14.18a1791 1791 0 0 0-3.148-3.879l-3.29-4.059-1.578-1.937-1.48-1.84-1.318-1.629c-1.84-2.57-3.026-5.032-3.811-8.094.756-3.099 1.323-3.306 3.95-4.945 5.115-3.05 10.512-5.073 16.113-7.054l3.269-1.168c26.3-9.131 59.9-18.916 84.293-.395" fill="#EE6060"/><path d="M339 0c14.592 7.472 24.535 21.466 29.938 36.57C373.064 49.89 375.929 66.13 373 80l1.984-1.355c15.946-10.564 31.931-15.028 50.922-12.028 21.178 5.028 36.84 17.556 48.301 35.863 16.938 28.08 37.413 77.289 35.606 111.02C509 216 509 216 506 218c-9.845 1.033-20.278-.46-30.125-1.25l-2.533-.202c-39.025-3.156-86.75-7.95-113.908-39.532C347.494 161.83 343.194 145.09 345 126c1.531-8.168 4.884-15.228 8.926-22.441 1.308-2.395 1.308-2.395.615-4.351-.696-2.84-.408-5.184-.123-8.09 1.79-20.707 3.627-44.856-10.07-62.212a105 105 0 0 0-3.211-3.531C340 24 340 24 340 22l-1.707-.8c-5.44-2.845-10.495-5.885-12.543-11.825.274-3.7.956-5.487 3.25-8.375 3.338-1.67 6.419-1.712 10-1" fill="#B3E49E"/><path d="M110 159c7.314 6.82 11.809 14.243 14 24-.02 2.321-.198 4.601-.385 6.915-.656 7.993-.656 7.993 2.545 15.042 2.844 2.234 5.777 4.124 8.84 6.043a107 107 0 0 1 4.688 4.563l1.949 2.003L143 219l1.723-3.184c4.247-7.759 8.5-15.072 14.277-21.816l1.531-1.965c5.524-6.837 15.506-16.865 24.469-18.37 3.465-.069 5.474.02 8.5 1.835 2.096 3.494 2.365 6.592 1.5 10.5-2.174 2.999-4.444 4.61-7.465 6.73-18.657 13.11-28.662 31.81-32.976 54.016-2.033 11.841-2.255 24.088-1.157 36.055l.202 2.328q.203 2.198.48 4.389c.186 2.005.186 2.005-.084 5.482-2.176 2.54-2.176 2.54-5 4-4.104-.057-6.331-1.67-9.25-4.437l-2.078-1.872c-2.52-4.056-2.493-7.993-2.672-12.691l-.1-2.596c-.07-2.657-.088-5.309-.088-7.966-.005-.951-.01-1.902-.017-2.882.018-5.352.394-10.432 1.28-15.707 1.174-6.431 1.174-6.431-.325-12.685-1.768-2.294-3.625-4.202-5.75-6.164a133 133 0 0 1-2.437-3.187c-3.175-3.485-6.713-6.12-10.563-8.813l-2 2.063c-9.915 9.83-18.908 15.856-33.25 16.25-22.611-.444-37.849-14.8-52.762-30.133-4.285-4.5-8.15-9.297-11.988-14.18a1791 1791 0 0 0-3.148-3.879l-3.29-4.059-1.578-1.937-1.48-1.84-1.318-1.629c-1.84-2.57-3.026-5.032-3.811-8.094.756-3.099 1.323-3.306 3.95-4.945 5.115-3.05 10.512-5.073 16.113-7.054l3.269-1.168c26.3-9.131 59.9-18.916 84.293-.395" fill="#B2E49E"/><path d="m400 203 27 6 .471 1.69a1705 1705 0 0 0 6.175 21.519c5.29 17.768 14.531 32.542 24.546 47.992C475.062 306.318 491.456 333.213 498 364l.526 2.393c4.887 23.986 1.865 49.523-8.526 71.607l-.875 1.87c-14.823 31.137-42.57 52.582-74.513 64.23-16.376 5.644-32.596 8.253-49.925 8.025q-2.006-.016-4.013-.027-4.838-.036-9.674-.098v-1l3.848-.516C383.385 506.532 409.953 497.12 432 478l2.48-2.078c20.36-17.55 34.698-43.189 38.52-69.922 1.93-33.632-5.195-61.306-21-91l-1.067-2.034c-5.74-10.885-12.219-21.224-18.886-31.563C417.342 258.593 400 231.303 400 203" fill="#FED064"/><path d="M236 284c4.692.51 7.369 2.46 11.063 5.313l3.097 2.363A75 75 0 0 1 257 298c-1.383 3.862-3.238 7.282-5.275 10.823C243.143 323.747 235.651 339.381 231 356l-.59 2.068c-8.144 29.516-3.38 60.848 10.738 87.748 4.383 7.536 9.582 14.232 15.7 20.43C258 468 258 468 257.878 469.984c-1.734 3.98-4.945 6.88-7.878 10.016l-1.879 2.11-1.809 1.952-1.636 1.786C243 487 243 487 241.05 486.94c-9.174-4.21-15.93-17.606-21.05-25.94l-1.09-1.768C212.08 447.918 207.816 435.606 204 423l-.638-2.094C191.382 379.134 208.184 333.23 228 297a242 242 0 0 1 8-13" fill="#E94444"/><path d="M455.07 80.098C489.748 106.71 504.121 168.628 510 210c-.187 3.5-.187 3.5-1 6-7.431 4.954-20.459 1.708-29 1l2-3c.338-7.987-2.241-16.3-4.062-24l-.465-1.974C470.975 160.56 462.61 132.842 449 108l-1.55-2.844c-9.777-17.076-24.736-29.9-43.887-35.156A147 147 0 0 0 399 69l1-2c19.142-5.598 39.408 2.397 55.07 13.098" fill="#95D6A3"/><path d="M191 174c2.5 1.5 2.5 1.5 4 4 .656 4.591.916 6.736-1.812 10.5-1.805 1.538-3.711 2.867-5.653 4.23-18.657 13.11-28.662 31.81-32.976 54.016-2.033 11.841-2.255 24.088-1.157 36.055l.202 2.328q.203 2.198.48 4.389c.186 2.005.186 2.005-.084 5.482-2.176 2.54-2.176 2.54-5 4-4.104-.057-6.331-1.67-9.25-4.437l-2.078-1.872c-2.52-4.056-2.493-7.993-2.672-12.691l-.1-2.596c-.07-2.657-.088-5.309-.088-7.966l-.017-2.882c.018-5.352.394-10.432 1.28-15.707 1.174-6.431 1.174-6.431-.325-12.685-1.768-2.294-3.625-4.202-5.75-6.164l-2.375-3.125c-2.991-3.276-6.248-5.763-9.832-8.36L116 219v-2l-1.735-.853c-2.203-1.116-4.356-2.296-6.511-3.502-15.704-8.632-31.715-15.028-49.427-18.14-3.477-.689-5.22-1.4-7.788-3.9C49 188 49 188 48.937 184.438 50 181 50 181 51.938 178.5c7.37-3.61 17.113.347 24.563 2.563l3.163.933C95.085 186.696 109.222 193.68 123 202l2.07 1.219c6.937 4.325 12.33 9.899 17.93 15.781l1.723-3.184c4.247-7.759 8.5-15.072 14.277-21.816l1.531-1.965c7.02-8.689 18.522-19.944 30.469-18.035" fill="#78C2A4"/><path d="M339 0c14.592 7.472 24.535 21.466 29.938 36.57 2.902 9.369 4.253 18.616 4.812 28.368l.136 2.365c.096 2.237.128 4.459.114 6.697l.002 2.168c-.216 4.047-.753 5.597-3.729 8.406l-1.633 1.166c-2.884 2.216-4.87 5.165-7.015 8.073l-1.363 1.81A762 762 0 0 0 357 100c-1.518-1.136-1.518-1.136-3-3-.085-2.649-.085-2.649.293-5.82 2.09-20.64 3.706-44.975-9.945-62.274a105 105 0 0 0-3.211-3.531C340 24 340 24 340 22l-1.707-.8c-5.44-2.845-10.495-5.885-12.543-11.825.274-3.7.956-5.487 3.25-8.375 3.338-1.67 6.419-1.712 10-1" fill="#77C2A4"/><path d="M107.68 157.238c8.797 6.68 13.75 15.165 16.32 25.762.261 2.737.281 5.44.25 8.188l.023 2.115c-.014 3.725-.214 6.536-2.273 9.697l-1.879-1.285c-4.265-2.825-8.388-5.5-13.156-7.387-3.88-1.539-7.445-3.06-10.965-5.328-1.134-2.634-1.077-4.402-.934-7.25-.164-6.804-4.748-13.707-9.254-18.625C79.046 156.999 70.647 153.551 62 151v-1c16.022-3.21 31.783-1.631 45.68 7.238" fill="#95D6A3"/><path d="M95 206c4.46 1.333 8.196 3.112 12.188 5.5l3.105 1.844A174 174 0 0 1 116 217c-.848 6.877-5.715 10.403-10.922 14.52-9.565 6.541-21.401 8.004-32.68 6.023-1.817-.446-3.612-.983-5.398-1.543 1.311-2.623 2.435-2.74 5.125-3.812 11.487-4.999 17.48-13.044 22.246-24.57z" fill="#96D6A4"/></svg>