<svg width="138" height="29" viewBox="0 0 138 29" fill="none" xmlns="http://www.w3.org/2000/svg"><g clip-path="url(#a)" fill="#9FC031"><path d="M.876 28.023H0V0h19.477v1.308c0 1.895-1.554 3.431-3.47 3.431H4.663v6.916h14.85v1.497c0 1.755-1.44 3.18-3.218 3.18h-11.5v7.377c0 2.383-1.752 4.314-3.918 4.314m20.419-14.737c.237-3.512 2.654-6.661 7.58-6.661h2.55c5.067 0 7.581 3.61 7.581 7.19v9.98c0 2.154-1.792 3.901-4.002 3.901h-8.07c-3.808 0-5.846-2.916-5.846-6.36s2.108-6.097 5.745-6.097h7.278v-.43c0-1.989-.41-3.48-3.435-3.48h-1.052c-2.311 0-3.06.627-3.434 1.952h-4.895zm5.815 10.141h7.005v-4.21H27.11c-.713 0-1.461.698-1.461 2.118s.748 2.088 1.461 2.088zm84.368-10.141c.237-3.512 2.654-6.661 7.581-6.661h2.549c5.067 0 7.581 3.61 7.581 7.19v9.98c0 2.154-1.791 3.901-4.002 3.901h-8.07c-3.808 0-5.846-2.916-5.846-6.36s2.109-6.097 5.745-6.097h7.278v-.43c0-1.989-.41-3.48-3.434-3.48h-1.053c-2.311 0-3.059.627-3.434 1.952h-4.895zm5.816 10.141h7.004v-4.21h-7.004c-.714 0-1.462.698-1.462 2.118s.748 2.088 1.462 2.088zm-70.913-4.573v5.08c0 2.078-1.638 3.767-3.655 3.767h-1.615V6.307h2.254c1.664 0 3.016 1.326 3.016 2.96v1.546m33.935-4.381h-1.713c-1.66 0-3.134.61-4.28 1.765-1.087-1.155-2.526-1.765-4.177-1.765h-1.444a6.6 6.6 0 0 0-2.593.524v-.524H61.8v21.376h.906c1.876 0 3.404-1.8 3.404-4.018v-9.012c0-1.963.444-3.27 2.62-3.27h.8c2.127 0 2.54 1.2 2.54 3.27v13.03h1.647c1.47 0 2.668-1.411 2.668-3.14v-9.926c0-2.101.401-3.239 2.514-3.239h.828c2.126 0 2.54 1.2 2.54 3.27v13.03h1.303c1.647 0 2.981-1.576 2.981-3.516V13.783c0-3.655-2.14-7.355-6.234-7.355zm29.819 2.361v1.12c0 3.848-3.28 7.001-7.423 7.001h-6.908v7.203c0 1.913-1.505 3.467-3.363 3.467h-1.457V1.792h11.728c4.147 0 7.423 3.153 7.423 7.001M95.801 6.307v6.092h6.106c2.281 0 3.311-1.151 3.311-3.033s-1.061-3.064-3.311-3.064h-6.106zM133.003.031H138v23.535c0 2.244-1.765 4.067-3.945 4.067h-1.052z"/><path d="M45.902 16.283a20 20 0 0 1-.058-1.707c.01-.905.665-2.33.982-3.18.502-1.349 1.444-2.218 2.76-2.666 1.084-.367 2.198-.416 3.325-.331.612.05 1.22.143 1.822.255.23.04.454.117.683.175-.035.085-.093.058-.137.058-1.083.014-2.166.08-3.236.273-.99.175-1.963.435-2.857.932-.608.336-1.14.77-1.457 1.429-.11.228-.106.26.097.412.981.744 2.1 1.102 3.302 1.214.682.063 1.36.031 2.038-.067 1.228-.18 2.311-.69 3.289-1.465.872-.694 1.576-1.545 2.17-2.495a12.5 12.5 0 0 0 1.132-2.28c.022-.063.079-.143.035-.197-.053-.067-.141-.018-.211 0-1.625.48-3.245.372-4.87 0-.876-.197-1.739-.47-2.637-.56-1.417-.139-2.743.134-3.892 1.048-.766.614-1.299 1.411-1.677 2.325-.388.94-.59 1.93-.66 2.952-.075 1.053-.472 2.589-.093 3.561q.047.115.101.224.022.04.049.08z"/></g><defs><clipPath id="a"><path fill="#fff" d="M0 0h138v28.023H0z"/></clipPath></defs></svg>