<svg xmlns="http://www.w3.org/2000/svg" width="650" height="201" viewBox="0 0 650 201"><path d="M66.314 65.749c9.247.165 24.097.164 33-.001 8.902-.166 1.336-.301-16.814-.3-18.15 0-25.434.135-16.186.301M361 106v41h59v-6h-52v-32h52v-6h-52V71h52v-6h-59zm1 0v40h28.5c27.833 0 28.5-.047 28.5-2 0-1.949-.667-2-26.024-2h-26.024l.274-16.75.274-16.75 25.75-.267c24.921-.258 25.75-.331 25.75-2.25 0-1.927-.741-1.983-26.024-1.983h-26.024l.274-16.75.274-16.75 25.75-.267c24.921-.258 25.75-.331 25.75-2.25 0-1.931-.748-1.983-28.5-1.983H362zM67.424 81.338c-.283.737-.359 4.899-.17 9.25l.344 7.912.201-8.732.201-8.732 23.75-.287 23.75-.287-23.781-.231c-19.103-.186-23.883.032-24.295 1.107m222.352 2.131c2.352.735 5.445 2.101 6.874 3.037s2.26 1.158 1.85.494c-1.001-1.62-8.499-4.967-11-4.911-1.1.025-.076.646 2.276 1.38M445.5 83c-2.548 1.095.081 1.095 3.5 0 2.01-.644 2.108-.806.5-.83-1.1-.016-2.9.357-4 .83m20.5 0c3.419 1.095 6.048 1.095 3.5 0-1.1-.473-2.9-.846-4-.83-1.608.024-1.51.186.5.83m-332.75 1.491c-1.787.777-3.25 1.636-3.25 1.91 0 .273 1.463-.097 3.25-.822a206 206 0 0 1 4.75-1.87c1.333-.49 1.333-.556 0-.591-.825-.022-2.963.596-4.75 1.373m38.91.841-.16 2.831-3.75-2.167c-2.062-1.193-2.85-1.446-1.75-.563s2.83 2.304 3.845 3.158c2.369 1.993 2.893 1.391 2.386-2.745-.373-3.036-.426-3.083-.571-.514M188 114.5V146h-15v-7.374l-2.75 2.553c-1.512 1.404-3.65 3.05-4.75 3.657s-1.472 1.117-.827 1.134c.646.016 2.558-1.135 4.25-2.559l3.077-2.589V147h17v-32c0-17.6-.225-32-.5-32s-.5 14.175-.5 31.5m7.235.25L195 147h17l-.224-17.25-.224-17.25-.3 16.75-.3 16.75h-14.924l-.279-31.75-.278-31.75zm15.945-26.297-.18 5.953 3.75-3.573c2.063-1.965 4.65-4.068 5.75-4.673 1.1-.604 1.439-1.113.753-1.13s-3.023 1.574-5.193 3.534l-3.945 3.565-.377-4.815c-.366-4.67-.383-4.636-.558 1.139m13.32-4.427c-1.335.591-.505.688 2.5.291 2.475-.328 4.688-.758 4.917-.956.868-.752-5.507-.181-7.417.665M242.336 90c0 4.125.177 5.813.392 3.75s.216-5.437 0-7.5c-.215-2.062-.392-.375-.392 3.75m19.8-4.75c-.075 1.513.069 2.75.32 2.75.25 0 2.113-1.125 4.139-2.5s3.232-2.5 2.679-2.5c-.552 0-2.158.907-3.567 2.016l-2.564 2.016-.435-2.266c-.377-1.963-.454-1.898-.572.484m222.024 3.111-.16 5.861-2.087-2.361c-1.701-1.924-1.654-1.714.25 1.139l2.337 3.5.312-3.772c.171-2.075.131-5.225-.09-7-.238-1.909-.467-.833-.562 2.633M490 114.5V146h-2.5c-2.398 0-2.501-.254-2.515-6.25l-.015-6.25-3.235 3.787c-1.779 2.083-4.585 4.668-6.235 5.744s-2.445 1.959-1.768 1.962c.678.004 3.266-1.941 5.75-4.322l4.518-4.328V147h7v-32c0-17.6-.225-32-.5-32s-.5 14.175-.5 31.5M308.689 87.25c-1.805 1.787-2.136 2.298-.735 1.134 1.4-1.164 3.446-2.613 4.546-3.22s1.431-1.117.735-1.134c-.695-.016-2.741 1.433-4.546 3.22m228.544-.147c1.504 1.122 3.903 3.47 5.331 5.218 1.429 1.749 2.129 2.228 1.555 1.066-1.1-2.229-7.686-8.409-8.904-8.355-.393.017.515.949 2.018 2.071m-190.236 2.399 4.373 4.998c.481.55.408.1-.162-1s-2.537-3.349-4.372-4.998l-3.336-2.998zm153.107.033c-1.707 1.944-3.075 4.306-3.041 5.25.043 1.156.388.901 1.058-.785.546-1.375 2.177-3.737 3.623-5.25s2.368-2.75 2.047-2.75-1.98 1.591-3.687 3.535m46.94-3.413c-.024.342 1.088 3.042 2.472 6s2.226 4.253 1.873 2.878c-.671-2.611-4.268-9.96-4.345-8.878m-422.428 4.881c-1.989 2.201-3.616 4.316-3.616 4.7 0 .383.339.27.753-.253s2.302-2.637 4.196-4.7c1.894-2.062 3.182-3.75 2.864-3.75s-2.208 1.801-4.197 4.003m308.205-.253c-3.767 3.941-6.321 8.084-5.493 8.911.269.269.807-.51 1.194-1.731.388-1.222 2.511-4.181 4.719-6.576 4.906-5.322 4.563-5.816-.42-.604m22.941-3.043c1.244.239 3.044.23 4-.02s-.062-.446-2.262-.435-2.982.216-1.738.455M442.5 90.164c-4.709 2.598-11.627 11.043-10.208 12.461.241.242.982-.872 1.646-2.475 1.402-3.386 5.287-7.241 9.562-9.491 1.65-.868 2.55-1.583 2-1.589-.55-.005-1.9.487-3 1.094m28.5.428c1.925.832 5.017 2.952 6.871 4.711 2.2 2.086 2.922 2.455 2.08 1.06-1.545-2.558-8.721-7.379-10.901-7.324-.853.022.025.72 1.95 1.553m35.757.658c-1.295 1.237-1.658 1.75-.806 1.14s2.449-1.609 3.549-2.22c1.1-.61 1.463-1.123.806-1.14s-2.254.983-3.549 2.22m29.459 2.495c1.455 1.784 2.932 4.147 3.282 5.25.474 1.494 1.512 2.005 4.069 2.005 3.555 0 4.284-1.24 2.352-4-.822-1.174-.913-1.011-.417.75.537 1.909.248 2.25-1.909 2.25-1.762 0-2.978-.844-3.965-2.752-.783-1.514-2.466-3.652-3.74-4.75-2-1.724-1.955-1.554.328 1.247m-384.952 3.973c1.52.229 3.77.223 5-.014s-.014-.425-2.764-.418-3.756.202-2.236.432m124.498-.011c1.244.239 3.044.23 4-.02s-.062-.446-2.262-.435-2.982.216-1.738.455m45.988-.001c1.238.238 3.262.238 4.5 0 1.238-.239.225-.434-2.25-.434s-3.488.195-2.25.434M162.5 99.881c4.447 2.042 6.902 4.425 8.384 8.14.643 1.61 1.011 1.893 1.053.806.131-3.466-8.188-10.872-12.137-10.805-.715.012.5.848 2.7 1.859m122-.714c1.1.608 3.037 2.047 4.306 3.196 1.55 1.406 2.113 1.589 1.718.561-.589-1.537-5.598-4.95-7.178-4.894-.465.017.054.529 1.154 1.137m27.9 2.233c-1.87 1.87-3.399 4.232-3.398 5.25.001 1.172.641.568 1.75-1.65 1-2.002 3.246-4.248 5.248-5.248 2.218-1.109 2.822-1.749 1.65-1.75-1.018-.001-3.38 1.528-5.25 3.398m19.222-1.963c1.717.747 3.854 2.405 4.75 3.683s1.628 1.815 1.628 1.191c0-1.631-5.848-6.318-7.827-6.272-.92.022-.268.651 1.449 1.398M552.375 99c.878 3.247 3.898 10.06 4.287 9.671.227-.227-.736-2.833-2.14-5.792s-2.37-4.704-2.147-3.879m-415.271 4.535c-1.707 1.944-3.075 4.306-3.041 5.25.043 1.156.388.901 1.058-.785.546-1.375 2.177-3.737 3.623-5.25s2.368-2.75 2.047-2.75-1.98 1.591-3.687 3.535M117.343 114.5c.003 4.4.179 6.076.39 3.724s.209-5.952-.006-8-.388-.124-.384 4.276M262 126.46v19.459l-8.25.337-8.25.337 8.75.203L263 147v-20c0-11-.225-20-.5-20s-.5 8.757-.5 19.46m30.227.79L292 147h17l-.225-17.75-.225-17.75-.298 17.25-.299 17.25h-14.91l-.294-19.25-.295-19.25zM355 127v19h-14.953l-.299-17.25-.298-17.25-.225 17.75L339 147h17v-19.5c0-10.725-.225-19.5-.5-19.5s-.5 8.55-.5 19m75.272-13c0 2.475.195 3.487.434 2.25.238-1.237.238-3.263 0-4.5-.239-1.237-.434-.225-.434 2.25m54.038 1.5c.005 3.3.192 4.529.415 2.732s.218-4.497-.01-6c-.229-1.503-.411-.032-.405 3.268m-312.038-.5c0 2.475.195 3.487.434 2.25.238-1.237.238-3.263 0-4.5-.239-1.237-.434-.225-.434 2.25M67 129.461v16.461l-8.75.333-8.75.334 9.25.205L68 147v-17c0-9.35-.225-17-.5-17s-.5 7.407-.5 16.461m476.514-8.873c2.192 2.152 4.175 3.798 4.407 3.658.653-.394-4.186-5.303-6.407-6.5-1.093-.588-.193.691 2 2.842M134.043 120c-.056 2.365 3.621 7.758 6.153 9.025 1.969.985 1.907.812-.424-1.186-1.501-1.287-3.396-3.914-4.211-5.839s-1.499-2.825-1.518-2m346.666 10.485c-.908 1.903-3.531 4.822-5.83 6.488-2.298 1.665-3.764 3.027-3.257 3.027 2.844 0 12.64-11.072 11.131-12.58-.217-.217-1.137 1.162-2.044 3.065m-53.7-.848c-.005.625 1.453 3.312 3.241 5.971 3.403 5.061 10.152 9.877 15.25 10.882 1.994.393 1.437-.05-1.664-1.32-7.066-2.896-10.601-5.832-13.858-11.51-1.628-2.838-2.963-4.648-2.969-4.023m67.006.613c.009.688.488 1.925 1.066 2.75.829 1.184.921 1.041.438-.683-.526-1.88-.153-2.24 2.685-2.59l3.296-.407-3.75-.16c-2.426-.103-3.745.281-3.735 1.09m46.613 5.447c-1.029 1.376-3.279 3.115-5 3.863-1.888.822-2.428 1.377-1.363 1.401 1.836.041 9.603-6.438 8.732-7.283-.274-.265-1.339.644-2.369 2.019M548 134.33c0 .916-1.669 3.578-3.708 5.917l-3.708 4.253 3.701-3.439c3.657-3.399 5.454-6.655 4.306-7.803-.325-.325-.591.157-.591 1.072m-424.49 2.851c.896 1.474 2.835 3.413 4.309 4.309l2.681 1.629-2.3-2.01c-1.264-1.105-3.204-3.045-4.309-4.309l-2.01-2.3zm373.309-.681c1.088 2.183 4.804 5.772 7.181 6.938.825.405.377-.177-.996-1.291-1.373-1.115-3.551-3.292-4.839-4.837-1.336-1.603-1.914-1.951-1.346-.81m-46.057 5.207c1.244.239 3.044.23 4-.02s-.062-.446-2.262-.435-2.982.216-1.738.455m125.273-.391c-.019.448.431 1.686 1 2.75.915 1.709.692 1.934-1.916 1.934-1.624 0-3.181-.461-3.461-1.025s-.394-.451-.256.25c.139.701 1.823 1.41 3.742 1.574 2.955.254 3.677-.111 4.71-2.379.672-1.473 1.02-2.879.775-3.125-.246-.245-.767.566-1.16 1.803l-.714 2.248-1.342-2.423c-.738-1.333-1.358-2.056-1.378-1.607M535 145.563c-2.228.843-2.773 1.332-1.5 1.345 1.1.012 3.125-.622 4.5-1.408 3.055-1.746 1.707-1.718-3 .063m-391.238 2.144c1.244.239 3.044.23 4-.02s-.062-.446-2.262-.435-2.982.216-1.738.455m307 0c1.244.239 3.044.23 4-.02s-.062-.446-2.262-.435-2.982.216-1.738.455m10 0c1.244.239 3.044.23 4-.02s-.062-.446-2.262-.435-2.982.216-1.738.455" fill="#b3d1a6" fill-rule="evenodd"/><path d="M50 106v40h17v-33h48V98H66.922l.289-8.75.289-8.75 23.75-.268 23.75-.268V66H50zm312 0v40h28.5c27.833 0 28.5-.047 28.5-2 0-1.949-.667-2-26.024-2h-26.024l.274-16.75.274-16.75 25.75-.267c24.921-.258 25.75-.331 25.75-2.25 0-1.927-.741-1.983-26.024-1.983h-26.024l.274-16.75.274-16.75 25.75-.267c24.921-.258 25.75-.331 25.75-2.25 0-1.931-.748-1.983-28.5-1.983H362zM136.5 84.368c-12.702 4.441-18.5 13.863-18.5 30.065 0 22.236 10.857 32.882 33.5 32.849 8.896-.013 14.283-1.743 18.75-6.022l2.75-2.634V146h15V83h-15v3.5c0 4.044-.328 4.204-3.177 1.55-3.959-3.688-8.999-5.313-17.761-5.726-7.189-.339-9.684-.011-15.562 2.044m135.635-1.427c-1.851.469-4.646 1.8-6.21 2.956-3.614 2.672-3.925 2.641-3.925-.397 0-2.458-.133-2.5-8-2.5h-8v63h16v-19.099c0-21.371.756-24.647 6.385-27.653 4.436-2.37 14.207-2.253 18.336.22 5.417 3.244 6.279 7.094 6.279 28.052V146h14.766l.391-19.83c.424-21.545.813-23.138 6.563-26.906 4.033-2.643 15.206-2.451 18.957.326 5.181 3.836 5.732 6.265 6.15 27.16l.385 19.25h14.957l-.428-21.75c-.492-24.989-1.059-27.51-7.733-34.41-3.476-3.594-5.868-5.054-10.45-6.377-10.856-3.136-23.747-.429-29.577 6.212l-3.045 3.468-2.889-3.093c-5.745-6.15-19.431-9.515-28.912-7.109m173.599.77c-7.412 1.944-14.524 8.133-17.824 15.51-1.97 4.405-2.364 6.942-2.375 15.322-.012 9.374.209 10.494 3.318 16.811 5.342 10.85 14.401 15.868 28.647 15.868 10.407 0 16.808-2.378 22.712-8.439l4.788-4.916v6.066c0 5.805.108 6.067 2.5 6.067h2.5V83h-2.454c-2.334 0-2.469.33-2.75 6.75l-.296 6.75-2.447-3.616c-6.401-9.458-21.089-13.168-36.319-9.173m65.933-.277c-9.104 2.447-14.206 8.05-14.097 15.484.135 9.22 6.013 13.557 24.93 18.395 5.5 1.407 11.679 3.264 13.73 4.128 11.736 4.938 7.98 18.389-5.609 20.087-3.077.385-8.688.524-12.468.311-7.994-.452-14.045-3.714-16.287-8.781-1.049-2.369-1.99-3.058-4.177-3.058-2.459 0-2.738.291-2.157 2.25 1.268 4.281 6.186 9.262 12.012 12.167 5.128 2.556 6.908 2.911 14.404 2.872 18.196-.094 29.201-8.594 26.089-20.151-1.809-6.718-7.463-10.508-21.037-14.101-21.908-5.8-26.915-9.518-23.577-17.507 1.815-4.345 5.049-6.407 11.717-7.471 10.869-1.736 20.717 1.896 24.387 8.993 1.081 2.091 2.263 2.948 4.066 2.948 2.172 0 2.442-.328 1.858-2.25-1.993-6.563-9.087-12.455-17.333-14.396-6.872-1.618-10.194-1.602-16.451.08M196 114.5V146h15l.022-16.25c.018-13.641.319-16.904 1.871-20.321 3.68-8.103 11.876-12.429 23.55-12.429H242V82.707l-7.25.634c-10.501.92-14.412 2.307-19.355 6.862L211 94.255V83h-15zm352.928-25.312c1.585 3.472 7.488 17.674 13.119 31.562 9.962 24.572 10.312 25.25 13.044 25.25h2.807l-1.603-3.75c-.881-2.062-6.684-16.125-12.894-31.25-11.083-26.991-11.348-27.506-14.323-27.812l-3.031-.311zM604 84.107c0 .929-26.361 65.968-32.909 81.197l-2.066 4.804 3.01-.343c2.925-.334 3.264-.969 11.911-22.305 4.895-12.078 12.568-30.735 17.05-41.46 10.424-24.939 9.908-23 6.121-23-1.715 0-3.117.498-3.117 1.107m-152 3.596c-6.645 1.144-10.333 2.65-13.68 5.589-6.665 5.852-9.271 15.855-7.35 28.208 2.065 13.278 9.202 19.493 23.322 20.311 21.164 1.225 30.266-7.04 30.161-27.386-.081-15.63-5.627-23.333-18.788-26.091-6.191-1.298-9.031-1.429-13.665-.631M146.123 98.002c-3.971.937-7.691 3.538-10.561 7.383-2.807 3.76-2.775 13.85.06 18.716 2.976 5.107 9.046 8.041 16.732 8.085 14.336.083 22.1-8.003 20.153-20.989-1.565-10.432-13.277-16.29-26.384-13.195" fill="#86bf6f" fill-rule="evenodd"/></svg>