<svg width="132" height="41" viewBox="0 0 132 41" fill="none" xmlns="http://www.w3.org/2000/svg"><g clip-path="url(#a)"><path d="M127.059 19.316c.476-.535.919-1.083 1.338-1.652.668-.905 1.259-1.853 1.573-2.947.497-1.729.176-3.317-.841-4.776-.837-1.198-1.945-2.106-3.171-2.89a24 24 0 0 0-2.063-1.15c-.267-.135-.55-.236-.834-.354-.024.111.051.128.094.165 1.105.851 2.165 1.753 3.124 2.765.888.939 1.692 1.945 2.239 3.129.375.804.591 1.645.426 2.543-.058.313-.088.336-.409.333-1.567-.02-2.985-.525-4.306-1.336a11.4 11.4 0 0 1-2.046-1.635c-1.128-1.123-1.861-2.465-2.28-3.99-.375-1.362-.462-2.748-.358-4.154a15.2 15.2 0 0 1 .551-3.138c.023-.081.027-.202.115-.222.104-.024.158.094.212.165 1.311 1.725 3.057 2.872 5.009 3.757 1.05.478 2.141.871 3.13 1.477 1.56.959 2.719 2.244 3.215 4.04.331 1.2.277 2.405-.02 3.603-.307 1.238-.841 2.375-1.537 3.445-.716 1.103-1.655 1.964-2.776 2.64-.088.054-.182.098-.273.145q-.052.024-.108.044z" fill="#A2B338"/><path d="M.696 41H0V15.67h17.794v1.184c0 1.712-1.419 3.101-3.171 3.101H4.259v6.254H17.82v1.352c0 1.588-1.317 2.876-2.938 2.876H4.38v6.9a3.677 3.677 0 0 1-3.684 3.67zM19.11 27.77c.214-3.156 2.375-5.985 6.782-5.985h2.28c4.532 0 6.78 3.243 6.78 6.459v8.968c0 1.935-1.603 3.505-3.579 3.505h-7.217c-3.404 0-5.23-2.62-5.23-5.715s1.884-5.477 5.14-5.477h6.507v-.386c0-1.787-.365-3.125-3.073-3.125h-.943c-1.452 0-2.215.279-2.657.857-.443.579-1.057.899-1.753.899h-3.043zm5.202 9.11h4.717c.855 0 1.547-.69 1.547-1.542v-2.24h-6.264c-.639 0-1.307.626-1.307 1.904s.668 1.877 1.307 1.877m80.205-8.827c.213-3.155 2.374-5.984 6.781-5.984h2.28c4.532 0 6.781 3.242 6.781 6.458v8.969c0 1.934-1.604 3.505-3.58 3.505h-7.216c-3.404 0-5.231-2.62-5.231-5.715s1.884-5.477 5.139-5.477h6.508v-.387c0-1.786-.365-3.125-3.073-3.125h-.942c-2.07 0-2.739.565-3.073 1.756h-4.38zm5.201 9.11h6.264V33.38h-6.264c-.638 0-1.307.625-1.307 1.904s.669 1.877 1.307 1.877M51.2 22.145c.287 0 .517.232.517.515v4.097H51.2c-3.681 0-8.119 3.216-8.119 6.072v3.72a4.175 4.175 0 0 1-4.184 4.168h-.53v-19.08h2.016c1.49 0 2.698 1.18 2.698 2.64v1.38c1.463-2.321 4.897-3.512 8.119-3.512m20.495 4.151c-2.478 0-2.813 1.339-2.813 3.095v8.952c0 1.466-1.155 2.657-2.58 2.657h-1.516V29.421c0-1.786-.388-3.125-2.844-3.125h-.834c-2.451 0-2.924 1.339-2.924 3.125v8.13c0 1.905-1.5 3.449-3.347 3.449h-.75V22.068h4.097v.565a7.6 7.6 0 0 1 2.897-.565h1.503c1.837 0 3.316.656 4.346 1.668 1.088-1.012 2.594-1.668 4.458-1.668h1.783c4.15 0 6.298 3.242 6.298 6.458v9.477c0 1.655-1.303 2.997-2.907 2.997h-1.159V29.421c0-1.786-.388-3.125-2.843-3.125zm31.698-3.751v1.1c0 3.781-3.104 6.876-7.028 6.876h-6.538v7.39a3.094 3.094 0 0 1-3.1 3.089h-1.462V15.67h11.1c3.924 0 7.028 3.094 7.028 6.875m-13.566-2.442v5.984h5.778c2.158 0 3.13-1.13 3.13-2.977s-1.002-3.007-3.13-3.007zm33.767-4.433h4.472v21.448A3.89 3.89 0 0 1 124.169 41h-.575z" fill="#A3B23A"/></g><defs><clipPath id="a"><path fill="#fff" d="M0 0h132v41H0z"/></clipPath></defs></svg>