<svg xmlns="http://www.w3.org/2000/svg" width="512" height="512"><path d="M243.063 14.625c3.166 2.631 6.133 5.355 8.937 8.375l1.797 1.816c4.224 4.445 7.576 9.087 10.64 14.372.343.581.685 1.163 1.037 1.763C267.522 44.615 268.55 47.833 269 52l3-1c17.341-1.475 32.817 1.27 46.832 12.21A137 137 0 0 1 326 70l1.738 1.707C338.385 83.014 342.192 98.906 342 114c-1.457 17.367-8.902 32.464-22 44-13.702 10.375-29.035 13.994-46 13-7.194-1.097-13.701-2.927-20.098-6.426-1.914-.778-1.914-.778-3.84.074-2.475 1.623-4.723 3.396-7 5.29l-2.91 2.417L237 175l-1.699 1.417a2025 2025 0 0 0-5.176 4.333l-1.62 1.355c-3.343 2.823-6.455 5.766-9.505 8.895l2.535.27c4.029.849 7.328 2.454 10.903 4.417l2 1.092C246.093 203.28 246.093 203.28 248 209c0 3 0 3-.746 5.82-.342 4.288 1.052 5.735 3.684 9.055l2.277 2.93L255 229c5.214-4.354 10.06-8.939 14.832-13.77l2.175-2.186q3.406-3.425 6.805-6.857 4.506-4.545 9.02-9.082l2.09-2.114 1.933-1.943 1.699-1.715c2-1.844 3.383-2.321 6.071-2.833 3.703.549 4.45 1.147 7.127 3.578l2.13 1.932a374 374 0 0 1 9.462 9.236l1.983 1.988a4969 4969 0 0 1 6.173 6.203q2.113 2.121 4.227 4.24Q335.867 220.836 341 226c13.93-10.283 13.93-10.283 22.652-24.07-.237-2.707-.237-2.707-.726-5.211.101-3.717 1.428-4.82 3.983-7.464l2.514-2.638L372 184l2.234-2.318a756 756 0 0 1 6.847-6.955l2.6-2.626q4.207-4.242 8.42-8.476l2.925-2.94a13732 13732 0 0 1 12.163-12.215q8.677-8.7 17.324-17.43 6.113-6.17 12.25-12.315 3.655-3.658 7.29-7.337c2.694-2.73 5.409-5.44 8.125-8.15l2.403-2.452c4.289-4.241 7.353-6.96 13.419-7.786 6.74 1.72 10.766 6.229 15.523 11.098l2.385 2.394q2.48 2.496 4.946 5.005c2.525 2.57 5.062 5.124 7.603 7.677a6972 6972 0 0 1 7.12 7.188c.699.71 1.397 1.421 2.116 2.154l1.867 1.897c2.788 3.073 3.095 5.992 3.028 10.032-1.247 5.421-5.772 8.905-9.644 12.649q-1.461 1.46-2.916 2.925a893 893 0 0 1-7.953 7.852c-2.784 2.731-5.543 5.488-8.305 8.242a3259 3259 0 0 1-13.957 13.808 5247 5247 0 0 0-19.692 19.496 7922 7922 0 0 1-26.361 26.1q-2.116 2.086-4.228 4.176l-2.533 2.489-2.207 2.174c-3.451 3.166-6.215 2.805-10.792 2.644l-3-1-21 21c1.713 3.427 2.701 4.933 5.332 7.464l2.053 1.993 2.213 2.125 4.615 4.514q3.636 3.546 7.295 7.07c2.356 2.27 4.693 4.56 7.027 6.854l2.22 2.106c3.198 3.166 5.035 5.202 6.4 9.56-.333 7.15-5.866 11.374-10.64 16.205l-2.223 2.258q-2.325 2.354-4.66 4.7a1108 1108 0 0 0-7.077 7.221 3646 3646 0 0 1-4.54 4.57l-2.115 2.191c-4.123 4.086-6.808 6.178-12.9 6.169l-2.637-.715c-2.558-.587-2.558-.587-4.82 1.586l-2.356 2.567-2.394 2.558L359 356l1 3c.53 3.374.692 5.843-1.105 8.848-8.462 10.175-19.777 18.16-30.895 25.152l2.332 2.324q2.707 2.716 5.356 5.488c3.565 2.355 4.33 2.398 8.375 2.188 4.632-.208 4.632-.208 7.687 1.875 8.428 11.706 13.514 23.744 15.25 38.125l2.098.043c17.13.835 31.752 7.692 43.547 20.105 9.876 11.958 14.614 25.743 14.984 41.266-.91 3.743-2.671 5.167-5.629 7.586-3.297.626-3.297.626-7.132.626l-2.153.022c-2.386.017-4.772-.002-7.158-.02q-2.59.007-5.177.022c-4.747.019-9.494.006-14.24-.011-5.118-.013-10.235.002-15.353.014-10.026.018-20.052.01-30.079-.008q-12.219-.02-24.439-.015l-3.51.002-7.058.003c-20.816.008-41.632-.008-62.447-.038q-30.319-.044-60.638-.02a42354 42354 0 0 1-73.02-.003l-3.494-.003q-12.21-.006-24.42.005-14.873.011-29.745-.024c-5.061-.013-10.123-.019-15.185-.008q-6.943.014-13.887-.021a598 598 0 0 0-5.037.005c-2.274.011-4.547-.002-6.822-.022l-3.835-.003C3.415 511.907 2.222 511.04 0 508c-.41-2.654-.572-4.794-.5-7.437l.039-2.148C.099 483.57 7.159 469.142 18 459c12.007-10.037 26.085-16.457 42-16l.008-1.625C60.882 423.66 70.91 408.301 83 396l1.86-1.898c8.24-7.783 20.502-15.661 32.046-15.43 2.094.328 2.094.328 4.656 2.203C123 383 123 383 123 385l2-1c2.374-.071 4.75-.084 7.125-.062l3.883.027L139 384c-.21-.807-.422-1.614-.64-2.446C107.714 263.56 107.714 263.56 129 225c9.612-15.085 24.59-29.77 42.625-33.812L174 191c-3.707-3.804-7.578-7.313-11.625-10.75-.61-.519-1.22-1.037-1.847-1.572a2092 2092 0 0 0-3.731-3.159 963 963 0 0 1-3.453-2.933 787 787 0 0 0-4.469-3.774l-2.57-2.167c-2.286-1.632-3.517-2.483-6.305-2.645-2.563.902-2.563.902-5.187 2.313-13.948 6.589-29.683 6.484-44.348 2.007-14.77-5.628-26.991-16.067-33.934-30.34-6.63-15.324-8.185-31.883-2.777-47.882 6.329-15.733 17.003-27.72 32.652-34.594 6.696-2.662 12.648-4.644 19.895-4.602l2.959.01 3.052.026 3.112.013q3.787.018 7.576.049l.848-2.273c7.656-19.548 22.328-34.902 41.536-43.47 25.261-10.659 55.772-7.252 77.679 9.368M160 145l-4 6c6.496 5.886 13.18 11.496 20 17l2.887 2.348 2.738 2.214 2.477 2.004c1.635 1.534 1.635 1.534 2.898 1.434v-23l-6.187-1.187c-7.299-1.548-13.925-3.918-20.813-6.813m63.438 3.313c-6.356 2.517-11.363 3.4-18.438 4.687v24c5.379-4.034 10.487-8.063 15.5-12.5 5.018-4.4 10.064-8.617 15.5-12.5-.703-2.51-.703-2.51-2-5-3.857-1.86-6.794-.182-10.562 1.313" fill="#D98941"/><path d="M474 95c3.16 2.503 5.935 5.33 8.742 8.219l2.452 2.465c2.572 2.594 5.126 5.205 7.681 7.816q2.611 2.636 5.227 5.27c3.172 3.206 6.345 6.413 9.5 9.638l1.92 1.96c2.808 3.1 3.134 6 3.066 10.077-1.247 5.421-5.772 8.905-9.644 12.649q-1.461 1.46-2.916 2.925a893 893 0 0 1-7.953 7.852c-2.784 2.731-5.543 5.488-8.305 8.242a3259 3259 0 0 1-13.957 13.808 5247 5247 0 0 0-19.692 19.496 7922 7922 0 0 1-26.361 26.1q-2.116 2.086-4.228 4.176l-2.533 2.489-2.207 2.174c-3.451 3.166-6.215 2.805-10.792 2.644l-3-1-21 21c1.713 3.427 2.701 4.933 5.332 7.464l2.053 1.993 2.213 2.125 4.615 4.514q3.636 3.546 7.295 7.07c2.356 2.27 4.693 4.56 7.027 6.854l2.22 2.106c3.198 3.166 5.035 5.202 6.4 9.56-.333 7.15-5.866 11.374-10.64 16.205l-2.223 2.258q-2.325 2.355-4.66 4.7a1108 1108 0 0 0-7.077 7.221 3646 3646 0 0 1-4.54 4.57l-2.115 2.191c-4.123 4.086-6.808 6.178-12.9 6.169l-2.637-.715c-2.558-.587-2.558-.587-4.82 1.586l-2.356 2.567-2.394 2.558L359 356l1 3c.53 3.374.692 5.843-1.105 8.848-18.878 22.699-47.128 35.4-74.645 43.902l-2.867.89c-22.427 6.746-45.65 5.859-68.82 4.985l-2.813-.093c-14.912-.654-14.912-.654-18.456-4.275-1.527-2.664-1.802-4.52-2.024-7.577l-.247-3.258-.21-3.547-.231-3.729A835 835 0 0 1 188 383l-.09-2.086c-1.919-45.703 10.13-89.122 41.153-123.789 5.904-6.224 12.014-12.256 18.125-18.277l2.359-2.332 2.089-2.054c1.952-2.033 3.799-4.1 5.64-6.233 3.751-4.318 7.725-8.375 11.775-12.413l2.242-2.245q2.325-2.325 4.652-4.646 3.572-3.567 7.135-7.142l4.533-4.53 2.156-2.161 1.994-1.984 1.753-1.75c2.024-1.851 3.399-2.342 6.109-2.858 3.703.549 4.45 1.147 7.127 3.578l2.13 1.932a374 374 0 0 1 9.462 9.236l1.983 1.988a4969 4969 0 0 1 6.173 6.203q2.113 2.121 4.227 4.24Q335.867 220.836 341 226c13.93-10.283 13.93-10.283 22.652-24.07-.237-2.707-.237-2.707-.726-5.211.101-3.716 1.427-4.819 3.982-7.464l2.514-2.638L372 184l2.236-2.318a751 751 0 0 1 6.86-6.955l2.606-2.626q4.214-4.241 8.435-8.476l2.927-2.94q6.867-6.895 13.74-13.782 7.906-7.92 15.788-15.864 6.122-6.166 12.266-12.314a2209 2209 0 0 0 7.3-7.337c2.7-2.728 5.416-5.44 8.134-8.15l2.413-2.452C460.427 95.118 465.947 90.646 474 95" fill="#010101"/><path d="M243.063 14.625c3.166 2.631 6.133 5.355 8.937 8.375l1.797 1.816c4.224 4.445 7.576 9.087 10.64 14.372l1.037 1.763C267.522 44.615 268.55 47.833 269 52l3-1c17.341-1.475 32.817 1.27 46.832 12.21A137 137 0 0 1 326 70l1.738 1.707C338.385 83.014 342.192 98.906 342 114c-1.457 17.367-8.902 32.464-22 44-13.702 10.375-29.035 13.994-46 13-7.194-1.097-13.701-2.927-20.098-6.426-1.914-.778-1.914-.778-3.84.074-2.475 1.623-4.723 3.396-7 5.29l-2.91 2.417L237 175l-1.699 1.417a2025 2025 0 0 0-5.176 4.333l-1.62 1.355c-3.343 2.823-6.455 5.766-9.505 8.895l2.535.27c4.029.849 7.328 2.454 10.903 4.417l2 1.092c11.61 6.476 11.61 6.476 13.625 12.284-.07 3.227-.436 5.148-2.063 7.937-3.375 2.625-6.87 2.306-11 2-3.14-1.61-3.14-1.61-6.25-3.75-14.457-9.563-30.204-11.279-47.062-8.187-14.729 3.686-28.471 13.405-36.446 26.476-4.85 9.609-7.437 18.45-7.406 29.137l.006 2.537c.08 8.717.825 17.316 1.783 25.974l.264 2.452c2.635 24.249 7.448 47.964 13.426 71.608a399 399 0 0 1 1.822 7.687C165.808 421.6 165.808 421.6 194 460c4.029.092 6.397-.993 9.313-3.625 3.97-4.219 6.755-9.194 9.579-14.22 1.823-3.213 2.98-5.07 6.108-7.155 4.402-.57 6.298-.508 9.938 2.125 2.461 3.431 2.427 4.743 2.062 8.875-4.863 12.828-14.972 25.473-27.492 31.125-5.69 1.985-11.89 1.453-17.406-.898-31.333-18.287-41.814-71.993-50.286-104.087-7.218-27.779-11.95-55.95-15.191-84.452l-.26-2.23c-2.758-24.032-1.677-46.662 13.01-66.896 9.74-12.14 22.583-23.863 38.25-27.375L174 191c-3.707-3.804-7.578-7.313-11.625-10.75-.61-.519-1.22-1.037-1.847-1.572a2092 2092 0 0 0-3.731-3.159 963 963 0 0 1-3.453-2.933 787 787 0 0 0-4.469-3.774l-2.57-2.167c-2.286-1.632-3.517-2.483-6.305-2.645-2.563.902-2.563.902-5.187 2.313-13.948 6.589-29.683 6.484-44.348 2.007-14.77-5.628-26.991-16.067-33.934-30.34-6.63-15.324-8.185-31.883-2.777-47.882 6.329-15.733 17.003-27.72 32.652-34.594 6.696-2.662 12.648-4.644 19.895-4.602l2.959.01 3.052.026 3.112.013q3.787.018 7.576.049l.848-2.273c7.656-19.548 22.328-34.902 41.536-43.47 25.261-10.659 55.772-7.252 77.679 9.368M160 145l-4 6c6.496 5.886 13.18 11.496 20 17l2.887 2.348 2.738 2.214 2.477 2.004c1.635 1.534 1.635 1.534 2.898 1.434v-23l-6.187-1.187c-7.299-1.548-13.925-3.918-20.813-6.813m63.438 3.313c-6.356 2.517-11.363 3.4-18.438 4.687v24c5.379-4.034 10.487-8.063 15.5-12.5 5.018-4.4 10.064-8.617 15.5-12.5-.703-2.51-.703-2.51-2-5-3.857-1.86-6.794-.182-10.562 1.313" fill="#000100"/><path d="M232.313 216.375c3.972 2.402 7.46 2.148 11.898 1.105L246 217a480 480 0 0 1 3.938 4.688l2.214 2.636c1.985 2.874 2.783 4.2 2.848 7.676-1.721 2.201-3.313 3.895-5.352 5.762l-3.502 3.364-1.869 1.762C233.173 253.392 223.064 263.93 215 277l-1.153 1.834C205.112 292.874 198.115 307.978 194 324l-.692 2.589C188.415 345.424 188.27 363.713 189 383l.076 2.103c.172 4.594.404 9.182.674 13.772l.186 3.546.236 3.259.19 2.835c.816 3.18 2.097 4.454 4.638 6.485 40.526 9.352 91.679 1.274 127.125-20.293 2.697-1.017 4.156-.62 6.875.293 2.676 1.742 2.676 1.742 5.313 3.875l2.675 2.117L339 403c0 3 0 3-1 5-.808 6.581.618 9.396 4.41 14.695 5.466 7.924 6.428 16.632 7.464 25.993l.317 2.68.257 2.409c.68 2.741 1.56 4.22 3.552 6.223 2.126.575 2.126.575 4.5.469.882.01 1.764.022 2.673.034L364 460.5c11.81.285 21.855 2.46 31 10.5 1.246 2.188 1.246 2.188 2 4-30.154 8.983-60.562 12.61-92 12.438l-3.608-.01C235.309 487.18 235.309 487.18 212 474c.391-3.523 1.902-4.97 4.406-7.328 6.116-6.416 12.72-14.994 14.094-23.922-.329-2.827-.329-2.827-2.062-5.125-3.373-2.248-5.463-2.193-9.438-1.625-3.37 2.795-5.205 5.919-7.25 9.75-3.763 6.583-7.773 12.344-14.75 15.688-5.051-.737-7.73-3.667-11-7.438-25.786-35.067-34.41-85.572-41.995-127.529-.625-3.46-1.307-6.9-2.06-10.334-1.406-6.956-2.061-14.032-2.805-21.083-.261-2.456-.538-4.91-.816-7.365-.908-8.327-1.503-16.59-1.547-24.97l-.021-2.338c.042-6.933 1.587-12.975 4.244-19.381l.992-2.594c6.118-14.11 19.396-24.54 33.25-30.406 19.1-6.926 40.842-3.785 57.07 8.375" fill="#F9AF3A"/><path d="M230 27c3.535 2.816 6.797 5.814 10 9l1.676 1.57c6.74 6.94 11.319 17.574 14.074 26.743.985 3.62.985 3.62 3 5.812 4.277 1.663 8.234.214 12.438-1.187 10.86-2.671 21.482-.75 31.351 4.382 10.356 6.513 17.125 14.933 21.106 26.563 2.155 12.839.08 24.77-6.922 35.73C310.138 144.737 301.83 150.038 291 153c-13.217 1.354-24.77.105-35.613-7.98-5.886-4.98-10.56-10.521-13.89-17.489-2.57-2.63-4.918-2.487-8.497-2.531-2.753.93-5.173 2.307-7.687 3.75-14.263 7.552-30.735 10.397-46.552 5.758-6.096-2.047-11.234-4.937-16.613-8.395-2.32-1.391-2.32-1.391-6.023-1.3-4.514 1.715-5.933 4.264-8.418 8.273-6.324 9.936-14.107 16.184-25.597 19.452-11.513 2.523-23.072 1.383-33.188-4.554C78.05 140.601 71.053 130.981 68 118c-1.505-11.94 1.16-23.278 8.375-33C83.717 76.473 92.75 70.134 104 68c7.096-.463 13.188.07 20 2 5.129 1.203 5.129 1.203 10.086-.05 2.657-2.707 3.24-5.321 4.289-8.95 5.226-16.803 15.141-29.65 30.729-38.057C188.595 13.25 211.91 14.536 230 27" fill="#089587"/><path d="M299 211c3.272 1.433 5.432 3.188 7.942 5.715l2.305 2.305 2.456 2.488 2.539 2.547a4276 4276 0 0 1 8.008 8.07l5.438 5.465A8378 8378 0 0 1 341 251c-1.363 3.05-2.9 5.146-5.264 7.498l-2.04 2.043-2.235 2.21-2.356 2.35c-2.572 2.567-5.151 5.125-7.73 7.684l-5.358 5.342q-6.335 6.316-12.679 12.622-12.034 11.965-24.052 23.948a7869 7869 0 0 1-7.913 7.868l-4.834 4.814-2.235 2.215-2.04 2.035-1.774 1.764c-2.255 2.432-3.425 4.18-3.928 7.482.219 3.287.219 3.287 2.5 6.063 2.782 2.3 2.782 2.3 6.125 2.437 10.546-2.538 21.284-17.695 28.71-25.14q3.44-3.449 6.89-6.885 2.223-2.223 4.443-4.448l2.05-2.043a228 228 0 0 0 11.236-12.143c1.742-2.014 3.492-3.945 5.484-5.716h2l.75-1.875c1.456-2.476 2.628-3.076 5.25-4.125v-2h2l.813-1.937C336 281 336 281 339 280l1-3h2l1-3h2l2-4h2v-2h2l1-3c3.72.573 5.416 2.05 8.034 4.694l2.365 2.365 2.523 2.57 2.606 2.619c2.748 2.764 5.485 5.54 8.222 8.315q2.79 2.812 5.582 5.623Q388.178 298.082 395 305c-1.813 3.92-4.346 6.587-7.41 9.57l-1.599 1.583q-2.521 2.491-5.053 4.972-2.536 2.494-5.065 4.993a822 822 0 0 1-3.152 3.099c-4.102 4.033-4.102 4.033-4.784 9.658q.029 2.063.063 4.125c0 4 0 4-2.187 6.578L363 352.25l-2.812 2.703L358 357l-2.29-.996c-3.787-1.403-5.83-1.141-9.71-.004-1.774 1.462-3.254 3.083-4.809 4.777-25.533 25.898-64.158 39.993-100.007 40.336-7.947.034-15.874-.098-23.809-.55l-2.096-.12c-3.193-.209-6.21-.516-9.279-1.443-1.757-21.398-3.248-44.012 2-65l.57-2.345c7.821-31.194 25.028-55.65 47.559-77.98q1.865-1.858 3.728-3.719 4.855-4.841 9.72-9.67 4.983-4.955 9.956-9.917A16923 16923 0 0 1 299 211" fill="#4C4C4C"/><path d="M119 379c2.563 1.5 2.563 1.5 4 4 .67 4.685.834 6.763-1.812 10.688-3.596 2.608-7.213 4.186-11.278 5.937-15.086 7.128-24.736 19.793-30.32 35.27-1.238 4.418-1.35 9.008-1.586 13.57-.304 3.79-.795 6.86-2.95 10.055-4.321 3.51-7.654 3.17-13.054 3.043-13.668.186-24.074 3.475-34 13.437-5.199 6.12-7.193 12.28-10 20h391c-6.34-14.795-12.097-24.899-27-31-6.805-2.437-13.387-2.327-20.525-2.303-6.742-.149-6.742-.149-10.03-2.607-2.029-4.338-2.416-8.484-2.882-13.215-1.216-10.073-3.67-17.624-9.375-26.062-2.697-4.165-2.913-6.9-2.188-11.813 1.5-3 1.5-3 4-5 4.715-.748 6.74-.9 10.625 1.875 8.708 11.458 13.65 23.836 15.375 38.125l2.098.043c17.13.835 31.752 7.692 43.547 20.105 9.876 11.958 14.614 25.743 14.984 41.266-.91 3.743-2.671 5.167-5.629 7.586-3.297.626-3.297.626-7.132.626l-2.153.022c-2.386.017-4.772-.002-7.158-.02q-2.59.007-5.177.022c-4.747.019-9.494.006-14.24-.011-5.118-.013-10.235.002-15.353.014-10.026.018-20.052.01-30.079-.008q-12.219-.02-24.439-.015l-3.51.002-7.058.003c-20.816.008-41.632-.008-62.447-.038q-30.319-.044-60.638-.02a42354 42354 0 0 1-73.02-.003l-3.494-.003q-12.21-.007-24.42.005-14.873.011-29.745-.024c-5.061-.013-10.123-.019-15.185-.008q-6.943.014-13.887-.021a598 598 0 0 0-5.037.005c-2.274.011-4.547-.002-6.822-.022l-3.835-.003C3.415 511.907 2.222 511.04 0 508c-.41-2.654-.572-4.794-.5-7.437l.039-2.148C.099 483.57 7.159 469.142 18 459c12.007-10.037 26.085-16.457 42-16l.008-1.625C60.882 423.66 70.91 408.301 83 396l1.86-1.898C93.483 385.956 106.774 377.22 119 379"/><path d="M329 395c2.676 1.742 2.676 1.742 5.313 3.875l2.675 2.117L339 403c0 3 0 3-1 5-.808 6.581.618 9.396 4.41 14.695 5.466 7.924 6.428 16.632 7.464 25.993l.317 2.68.257 2.409c.68 2.741 1.56 4.22 3.552 6.223 2.126.575 2.126.575 4.5.469.882.01 1.764.022 2.673.034L364 460.5c11.81.285 21.855 2.46 31 10.5 1.246 2.188 1.246 2.188 2 4-30.154 8.983-60.562 12.61-92 12.438l-3.608-.01C235.309 487.18 235.309 487.18 212 474c.391-3.523 1.902-4.97 4.406-7.328 6.068-6.365 12.833-15.017 14.031-23.922-.218-2.802-.218-2.802-2-4.75-1.437-2-1.437-2-1.187-4.727.786-3.428 1.915-6.423 3.313-9.648l1.378-3.21L233 418l2.376-.12c22.58-1.168 22.58-1.168 44.624-5.88l2.823-.837c13.73-4.158 26.998-8.942 39.286-16.452 2.708-1.018 4.163-.627 6.891.289" fill="#E9AA6B"/><path d="M154 222c1.026 3.337 1.05 6.244.922 9.723-1.354 53.082 12.754 108.76 29.89 158.59l.88 2.572.828 2.353.721 2.064c.732 1.91.732 1.91 2.759 3.698.273 2.242.273 2.242.375 4.875.285 3.293.455 4.858 2.25 7.688 5.847 3.539 14.171 2.706 20.813 2.937q2.997.105 5.996.219l2.658.092c3.65.237 7.279.735 10.908 1.189l-6 18h-8c-3.553 2.538-5.219 5.943-7.25 9.75-3.763 6.583-7.773 12.344-14.75 15.688-5.051-.737-7.73-3.667-11-7.438-25.786-35.067-34.41-85.572-41.995-127.529-.625-3.46-1.307-6.9-2.06-10.334-1.406-6.956-2.061-14.032-2.805-21.083-.261-2.456-.538-4.91-.816-7.365-.908-8.327-1.503-16.59-1.547-24.97l-.021-2.338c.042-6.928 1.575-12.983 4.244-19.381l1.098-2.7c2.898-6.414 7.016-11.28 11.902-16.3" fill="#F5921D"/><path d="M467 115c3.62 1.699 5.943 3.711 8.766 6.57l2.695 2.715 2.789 2.84q1.417 1.433 2.836 2.863 3.464 3.5 6.914 7.012c-1.372 3.077-2.935 5.183-5.316 7.556l-2.073 2.082-2.274 2.252-2.395 2.395a4060 4060 0 0 1-7.856 7.824l-5.44 5.431q-6.428 6.417-12.866 12.824-7.33 7.297-14.648 14.605A36027 36027 0 0 1 408 222q-1.677-1.43-3.353-2.862l-1.886-1.61c-3.74-3.245-7.198-6.78-10.699-10.278l-2.36-2.324-2.23-2.223c-1-.995-1-.995-2.023-2.01C384 199 384 199 384 197c1.476-1.457 1.476-1.457 3.513-3.145 4.3-3.659 8.3-7.533 12.28-11.534l2.22-2.22q3.59-3.594 7.175-7.19l5.01-5.015q6.562-6.57 13.118-13.144 6.706-6.718 13.414-13.434Q453.87 128.163 467 115" fill="#D98941"/><path d="M68 104h1l-.027 2.125c.207 6.643 1.272 10.387 6.015 15.102L77 123l1.855 1.648C91.761 135.132 105.995 136.333 122 135c12.576-2.248 23.537-10.962 31-21 1.395-2.304 2.7-4.64 4-7l3.113 1.645 4.2 2.168 2.033 1.08c9.431 4.826 18.538 6.637 29.091 6.482l3.06-.033c12.078-.258 21.058-3.256 31.57-8.916C233 108 233 108 236 108c1.422 1.953 2.68 3.883 3.938 5.938 6.979 10.687 16.908 17.381 29.222 20.632 15.734 2.38 29.527.672 42.777-8.445 4.317-3.32 7.744-6.819 11.063-11.125 1.8 5.4-.858 10.641-3.258 15.598-6.232 11.017-13.918 16.84-25.5 21.515-10.753 2.941-24.1 1.941-33.781-3.554-8.207-5.344-14.726-12.162-18.965-21.028-2.57-2.63-4.917-2.487-8.496-2.531-2.753.93-5.173 2.307-7.687 3.75-14.263 7.552-30.735 10.397-46.552 5.758-6.096-2.047-11.234-4.937-16.613-8.395-2.32-1.391-2.32-1.391-6.023-1.3-4.514 1.715-5.933 4.264-8.418 8.273-6.324 9.936-14.107 16.184-25.597 19.452-11.513 2.523-23.072 1.383-33.188-4.554C78.127 140.653 70.909 130.958 68 118c-.298-4.69-.247-9.309 0-14" fill="#097B6D"/><path d="M467 115c3.633 1.696 5.945 3.738 8.75 6.625l2.422 2.477L480 126c-1.265 2.758-2.569 4.825-4.692 6.987-.547.56-1.093 1.121-1.656 1.7-.897.903-.897.903-1.81 1.826l-1.913 1.952a1942 1942 0 0 1-6.28 6.363l-2.171 2.196q-5.685 5.746-11.388 11.476a2299 2299 0 0 0-11.72 11.891 1655 1655 0 0 1-9.045 9.12 654 654 0 0 0-4.317 4.388 559 559 0 0 1-6.073 6.106l-1.773 1.851c-3.057 2.982-5.075 4.51-9.437 4.608-3.954-.493-5.395-1.065-8.225-3.776l-2.031-1.864C396 189 396 189 396 186c1.109-1.478 1.109-1.478 2.695-3.056l1.81-1.823 2.013-1.98 2.098-2.099c2.298-2.296 4.607-4.581 6.915-6.866q2.39-2.38 4.776-4.763c4.195-4.184 8.4-8.359 12.606-12.532 4.288-4.258 8.568-8.524 12.849-12.79A19348 19348 0 0 1 467 115" fill="#E9AA6B"/><path d="M220 301c1.089 3.266.897 5.033-.25 8.25-1.483 4.585-2.501 9.145-3.375 13.875l-.372 1.99c-1.523 8.401-2.197 16.424-2.19 24.947v3.134c-.188 18.146-.188 18.146 3.187 35.804 10.33 3.443 23.35 2.186 34.17 2.185 2.394.003 4.787.02 7.18.04 12.747.047 24.69-1.182 37.029-4.64 2.63-.587 4.936-.692 7.621-.585-2.105 2.105-3.287 2.617-6.043 3.586l-2.481.876-2.663.913c-.905.31-1.809.622-2.74.942-24.442 8.295-57.528 14.398-83.073 6.683-2.803-34.135-1.946-67.012 14-98" fill="#323232"/><path d="M197.762 43.742c4.086 2.297 7.468 4.573 8.808 9.246.369 4.25-.327 5.722-3.132 9.075-3.438 1.937-3.438 1.937-7 2C193 63 193 63 190.5 60.937c-3.316-2.57-5.4-2.317-9.5-1.937l-3 1c-1.062 5.872-1.365 8.886 2 14 .48 3.911.626 6.049-1.562 9.375C175.172 85.552 172.92 86 169 86c-4.419-2.26-6.457-5.763-8.27-10.238-1.79-6.769-2.07-14.684.77-21.2 7.984-13.147 22.518-17.089 36.262-10.82" fill="#000202"/><path d="m132.625 383.938 2.14.013q2.618.02 5.235.049l.623 1.978c8.225 26.804 8.225 26.804 18.627 52.807C160 441 160 441 159 444c-15.325-11.013-28.642-25.277-39-41l-1.848-2.73L117 398c1-3 1-3 3-4.812 2.468-2.7 2.526-4.634 3-8.188 3.065-1.533 6.268-1.103 9.625-1.062" fill="#E7A86A"/><path d="M195 416q6.189.18 12.378.372 2.1.065 4.201.125 3.04.089 6.077.187l3.682.11c3.902.22 7.784.721 11.662 1.206l-6 18h-8c-2.11.969-2.11.969-3.5 2.5L213 441c-5.136-3.715-8.437-7.776-11.812-13.062l-1.166-1.823A58.3 58.3 0 0 1 195 416" fill="#F7AD3A"/><path d="M377 217c3.452 1.477 5.65 3.438 8.25 6.125l2.14 2.195L389 227c-2.48 5.828-7.483 9.893-11.875 14.313l-2.762 2.86c-.88.888-1.76 1.776-2.668 2.69l-2.437 2.478C367 251 367 251 364.854 250.883c-2.725-1.298-4.5-3.172-6.604-5.32l-2.422-2.434C354 241 354 241 354 239c1.61-1.55 1.61-1.55 3.75-3.312 3.169-2.685 5.685-5.416 8.25-8.688a263 263 0 0 1 5-4 281 281 0 0 0 5-5z" fill="#EEE2C3"/></svg>