<svg width="26" height="22" viewBox="0 0 26 22" fill="none" xmlns="http://www.w3.org/2000/svg">
  <path d="M24.375 9.429q.673 0 1.149.46T26 11t-.476 1.111-1.149.46h-.19l-1.46 8.128a1.5 1.5 0 0 1-.559.933 1.6 1.6 0 0 1-1.041.368H4.875q-.584 0-1.041-.368a1.5 1.5 0 0 1-.559-.933l-1.46-8.128h-.19q-.674 0-1.149-.46A1.5 1.5 0 0 1 0 11q0-.65.476-1.111.475-.46 1.149-.46zM6.157 19.25a.8.8 0 0 0 .552-.276.74.74 0 0 0 .197-.571L6.5 13.296a.75.75 0 0 0-.286-.534.8.8 0 0 0-.59-.19.8.8 0 0 0-.552.276.74.74 0 0 0-.197.57l.406 5.108a.75.75 0 0 0 .26.515q.235.21.553.209zm5.218-.786v-5.107a.74.74 0 0 0-.241-.552.8.8 0 0 0-.572-.234q-.33 0-.57.234a.74.74 0 0 0-.242.552v5.107q0 .32.241.553t.572.233.57-.233a.74.74 0 0 0 .242-.553m4.875 0v-5.107a.74.74 0 0 0-.241-.552.8.8 0 0 0-.572-.234q-.33 0-.57.234a.74.74 0 0 0-.242.552v5.107q0 .32.241.553t.572.233.57-.233a.74.74 0 0 0 .242-.553m4.469.062.406-5.107a.74.74 0 0 0-.197-.571.8.8 0 0 0-.552-.277.8.8 0 0 0-.59.19.75.75 0 0 0-.286.535l-.406 5.107a.74.74 0 0 0 .197.57.8.8 0 0 0 .552.277h.063q.318 0 .553-.209a.75.75 0 0 0 .26-.515M6.043 3.585l-1.18 5.058H3.186l1.282-5.414q.24-1.08 1.13-1.762a3.25 3.25 0 0 1 2.03-.681H9.75q0-.32.241-.553A.8.8 0 0 1 10.563 0h4.874q.33 0 .572.233.24.234.241.553h2.12a3.25 3.25 0 0 1 2.031.681 2.98 2.98 0 0 1 1.13 1.762l1.283 5.414h-1.676l-1.181-5.058a1.6 1.6 0 0 0-.578-.884 1.6 1.6 0 0 0-1.009-.344h-2.12q0 .32-.241.553a.8.8 0 0 1-.572.233h-4.874a.8.8 0 0 1-.572-.233.74.74 0 0 1-.241-.553H7.63q-.571 0-1.01.344-.437.345-.577.884" fill="#000"/>
</svg>
