<svg width="18" height="20" viewBox="0 0 18 20" fill="none" xmlns="http://www.w3.org/2000/svg">
  <path d="M17.757 13.51c-.781-1.382-1.196-3.366-1.196-5.733 0-2.063-.797-4.04-2.214-5.5A7.46 7.46 0 0 0 9 0C6.995 0 5.072.82 3.654 2.278a7.9 7.9 0 0 0-2.215 5.499c0 2.368-.413 4.351-1.194 5.734a1.9 1.9 0 0 0-.006 1.858c.156.283.383.518.658.68.274.163.586.248.903.245h3.256a4.12 4.12 0 0 0 1.273 2.64A3.9 3.9 0 0 0 9 20a3.9 3.9 0 0 0 2.671-1.066 4.12 4.12 0 0 0 1.273-2.64h3.257c.316.003.627-.082.901-.245s.5-.397.657-.68a1.9 1.9 0 0 0-.002-1.858M9 17.777a1.77 1.77 0 0 1-1.139-.418 1.86 1.86 0 0 1-.625-1.064h3.528a1.86 1.86 0 0 1-.625 1.064A1.77 1.77 0 0 1 9 17.777m-6.6-3.704c.797-1.667 1.2-3.783 1.2-6.296 0-1.473.57-2.886 1.582-3.928a5.33 5.33 0 0 1 3.82-1.627c1.431 0 2.805.585 3.818 1.627a5.64 5.64 0 0 1 1.582 3.928c0 2.512.403 4.629 1.2 6.296z" fill="#000"/>
</svg>
