<svg width="191" height="22" viewBox="0 0 191 22" fill="none" xmlns="http://www.w3.org/2000/svg">
<path d="M25.9648 5.57812V15.9141H25.2383V10.418H22.6367V9.78516H25.2383V5.57812H25.9648ZM17.5039 13.3008C20.375 11.9062 21.7402 9.78516 21.9043 7.32422H17.9375V6.71484H22.6484C22.6426 9.58008 21.3242 12.1992 17.9258 13.875L17.5039 13.3008ZM32.0469 6.73828V10.2305H28.918V12.7383C30.1719 12.7441 31.3555 12.6914 32.7852 12.4453L32.8555 13.0664C31.3496 13.3242 30.166 13.3711 28.8594 13.3711H28.1914V9.59766H31.332V7.37109H28.168V6.73828H32.0469ZM33.5469 15.3633V5.82422H34.2383V9.71484H35.9141V5.57812H36.6289V15.9141H35.9141V10.3477H34.2383V15.3633H33.5469ZM46.1562 5.57812V9.90234H47.9375V10.5352H46.1562V15.9141H45.418V5.57812H46.1562ZM38.1406 7.89844V7.27734H40.8945V5.68359H41.6328V7.27734H44.3164V7.89844H38.1406ZM38.7852 11.1914C38.7793 9.80859 39.8281 8.84766 41.2812 8.84766C42.7344 8.84766 43.7773 9.80859 43.7773 11.1914C43.7773 12.5801 42.7344 13.5352 41.2812 13.5352C39.8281 13.5352 38.7793 12.5801 38.7852 11.1914ZM39.4883 11.1914C39.4824 12.1758 40.2441 12.9023 41.2812 12.8906C42.3125 12.9023 43.0684 12.1758 43.0742 11.1914C43.0684 10.207 42.3125 9.47461 41.2812 9.46875C40.2441 9.47461 39.4824 10.207 39.4883 11.1914ZM56.7852 6.66797V7.71094C56.7734 8.98242 56.7734 10.3828 56.4102 12.4219L55.6602 12.3281C56.041 10.3828 56.041 8.95312 56.0469 7.71094V7.28906H49.5898V6.66797H56.7852ZM48.5703 14.3789V13.7461H52.3672V10.0078H53.0938V13.7461H57.9922V14.3789H48.5703ZM70.332 5.57812V11.332H69.5938V5.57812H70.332ZM61.9414 10.5C63.4414 9.95508 64.6543 8.56055 64.6602 6.98438V5.96484H65.3984V6.98438C65.3926 8.49609 66.623 9.79688 68.1172 10.3008L67.7422 10.8984C66.5293 10.459 65.498 9.55078 65.0352 8.36719C64.584 9.63281 63.5527 10.6289 62.3281 11.0977L61.9414 10.5ZM63.4062 15.7617V15.1523H65.0117V12.6094H63.5V11.9883H70.4023V12.6094H68.9141V15.1523H70.5195V15.7617H63.4062ZM65.75 15.1523H68.1758V12.6094H65.75V15.1523ZM81.6289 11.0742V11.6836H72.207V11.0742H81.6289ZM73.2852 7.98047C73.2852 6.69727 74.6855 5.94141 76.9062 5.94141C79.127 5.94141 80.5273 6.69727 80.5273 7.98047C80.5273 9.25781 79.127 10.0195 76.9062 10.0195C74.6855 10.0195 73.2852 9.25781 73.2852 7.98047ZM73.4492 15.668V12.668H74.1992V15.0469H80.5859V15.668H73.4492ZM74.0469 7.98047C74.0352 8.85938 75.1719 9.4043 76.9062 9.39844C78.6465 9.4043 79.7773 8.85938 79.7773 7.98047C79.7773 7.11328 78.6465 6.55664 76.9062 6.55078C75.1719 6.55664 74.0352 7.11328 74.0469 7.98047ZM88.8242 7.26562C88.8242 8.71289 90.002 10.0371 91.4609 10.5469L91.0508 11.1445C89.8965 10.7051 88.9355 9.79688 88.4902 8.66016C88.0625 9.94336 87.0781 10.9395 85.8711 11.4258L85.4727 10.8281C86.9668 10.2539 88.1035 8.87109 88.1094 7.21875V6.10547H88.8242V7.26562ZM86.8438 14.0391C86.8379 12.873 88.1152 12.1992 90.2305 12.1992C92.3398 12.1992 93.6055 12.873 93.6055 14.0391C93.6055 15.2168 92.3398 15.8789 90.2305 15.8789C88.1152 15.8789 86.8379 15.2168 86.8438 14.0391ZM87.5703 14.0391C87.5645 14.8125 88.5957 15.2812 90.2305 15.293C91.8652 15.2812 92.8906 14.8125 92.8906 14.0391C92.8906 13.2832 91.8652 12.8027 90.2305 12.8086C88.5957 12.8027 87.5645 13.2832 87.5703 14.0391ZM92.7852 11.918V5.57812H93.5234V8.35547H95.1172V8.98828H93.5234V11.918H92.7852ZM105.266 10.6289V11.25H100.918V12.5742H104.094V15.7617H97.0156V12.5742H100.191V11.25H95.8438V10.6289H105.266ZM96.7461 6.53906V5.92969H104.34V6.53906H102.676V8.91797H104.316V9.55078H96.7578V8.91797H98.4102V6.53906H96.7461ZM97.7422 15.1523H103.379V13.1719H97.7422V15.1523ZM99.1484 8.91797H101.938V6.53906H99.1484V8.91797ZM110.914 5.76562C113.193 5.76562 114.535 6.4043 114.535 7.55859C114.535 8.73047 113.193 9.375 110.914 9.375C108.641 9.375 107.293 8.73047 107.293 7.55859C107.293 6.4043 108.641 5.76562 110.914 5.76562ZM106.215 10.7578V10.1484H115.637V10.7578H106.215ZM107.375 12.3281V11.7422H114.395V13.957H108.125V15.1758H114.723V15.7852H107.41V13.3828H113.68V12.3281H107.375ZM108.055 7.55859C108.055 8.34375 109.145 8.79492 110.914 8.80078C112.695 8.79492 113.785 8.34375 113.785 7.55859C113.785 6.80273 112.695 6.33984 110.914 6.33984C109.145 6.33984 108.055 6.80273 108.055 7.55859ZM122.914 7.58203C122.908 9.05273 124.062 10.4297 125.527 10.9688L125.105 11.5547C123.963 11.0859 122.996 10.1426 122.557 8.96484C122.123 10.2656 121.127 11.2969 119.914 11.8008L119.516 11.1914C121.01 10.623 122.188 9.16406 122.188 7.53516V6.19922H122.914V7.58203ZM121.379 15.668V12.4453H122.117V15.0469H128.246V15.668H121.379ZM124.836 8.73047V8.09766H127.262V5.57812H128V13.3594H127.262V8.73047H124.836ZM134.328 6.35156V6.97266H131.059V8.42578H134.211V9.02344H131.059V10.6055C132.693 10.6113 133.66 10.5527 134.809 10.3125L134.891 10.9336C133.672 11.1855 132.699 11.2383 130.977 11.2383H130.344V6.35156H134.328ZM131.68 13.0195V12.3984H138.594V15.9141H137.879V13.0195H131.68ZM135.559 11.7656V5.77734H136.262V8.33203H137.891V5.57812H138.594V11.8359H137.891V8.95312H136.262V11.7656H135.559ZM145.449 7.42969V8.03906H140.199V7.42969H142.449V5.89453H143.199V7.42969H145.449ZM140.609 11.1328C140.604 9.77344 141.535 8.81836 142.824 8.8125C144.107 8.81836 145.039 9.77344 145.039 11.1328C145.039 12.5039 144.107 13.4648 142.824 13.4648C141.535 13.4648 140.604 12.5039 140.609 11.1328ZM141.277 11.1328C141.271 12.0938 141.922 12.8145 142.824 12.8086C143.721 12.8145 144.377 12.0938 144.383 11.1328C144.377 10.1836 143.721 9.45703 142.824 9.44531C141.922 9.45703 141.271 10.1836 141.277 11.1328ZM146.035 15.3867V5.83594H146.727V9.98438H148.285V5.57812H148.988V15.9141H148.285V10.6055H146.727V15.3867H146.035ZM160.062 13.9219V14.5547H150.594V13.9219H154.93V11.5898H151.742V6.32812H152.492V8.27344H158.141V6.32812H158.867V11.5898H155.668V13.9219H160.062ZM152.492 10.9688H158.141V8.89453H152.492V10.9688ZM163.953 8.625C163.953 10.2539 164.873 12.0469 166.227 12.832L165.781 13.4062C164.762 12.791 163.982 11.625 163.613 10.3184C163.238 11.7422 162.412 12.9785 161.363 13.6172L160.871 13.0664C162.271 12.2637 163.244 10.4238 163.25 8.64844V6.57422H163.953V8.625ZM165.066 9.99609V9.35156H166.953V5.8125H167.656V15.375H166.953V9.99609H165.066ZM169.074 15.9141V5.57812H169.789V15.9141H169.074ZM180.805 13.9102V14.543H171.336V13.9102H173.75V11.0332C172.848 10.5879 172.297 9.84375 172.297 8.90625C172.297 7.31836 173.85 6.28125 176.035 6.26953C178.238 6.28125 179.785 7.31836 179.785 8.90625C179.785 9.83203 179.252 10.5645 178.367 11.0156V13.9102H180.805ZM173 8.90625C173 10.0898 174.271 10.916 176.035 10.9102C177.793 10.916 179.082 10.0898 179.082 8.90625C179.082 7.69922 177.793 6.88477 176.035 6.89062C174.271 6.88477 173 7.69922 173 8.90625ZM174.477 13.9102H177.629V11.3027C177.154 11.4375 176.615 11.5078 176.035 11.5078C175.467 11.5078 174.945 11.4375 174.477 11.3086V13.9102ZM182.727 15.0586C182.381 15.0645 182.094 14.7773 182.094 14.4375C182.094 14.0918 182.381 13.8105 182.727 13.8047C183.066 13.8105 183.348 14.0918 183.348 14.4375C183.348 14.7773 183.066 15.0645 182.727 15.0586Z" fill="#323232"/>
<path d="M10.14 2.42719L11.5448 1.23948L11.8676 1.62131L12.2495 1.29849L13.1939 0.5H14.4941H14.9941V0H16.9606V0.5H17.4606H20.4271H20.9271V0H22.8935V0.5H23.3935H26.36H26.86V0H28.8265V0.5H29.3265H32.293H32.793V0H34.7595V0.5H35.2595H38.226H38.726V0H40.6925V0.5H41.1925H44.159H44.659V0H46.6255V0.5H47.1255H50.092H50.592V0H52.5585V0.5H53.0585H56.0249H56.5249V0H58.4914V0.5H58.9914H61.9579H62.4579V0H64.4244V0.5H64.9244H67.8909H68.3909V0H70.3574V0.5H70.8574H73.8239H74.3239V0H76.2904V0.5H76.7904H79.7569H80.2569V0H82.2233V0.5H82.7233H85.6898H86.1898V0H88.1563V0.5H88.6563H91.6228H92.1228V0H94.0893V0.5H94.5893H97.5558H98.0558V0H100.022V0.5H100.522H103.489H103.989V0H105.955V0.5H106.455H109.422H109.922V0H111.888V0.5H112.388H115.355H115.855V0H117.821V0.5H118.321H121.288H121.788V0H123.754V0.5H124.254H127.221H127.721V0H129.687V0.5H130.187H133.154H133.654V0H135.62V0.5H136.12H139.087H139.587V0H141.553V0.5H142.053H145.02H145.52V0H147.486V0.5H147.986H150.952H151.452V0H153.419V0.5H153.919H156.885H157.385V0H159.352V0.5H159.852H162.818H163.318V0H165.285V0.5H165.785H168.751H169.251V0H171.218V0.5H171.718H174.684H175.184V0H177.151V0.5H177.651H180.617H181.117V0H183.084V0.5H183.584H186.55H187.05V0H189.017V0.5H189.517H190.5V1.375V1.875H191V3.625H190.5V4.125V6.875V7.375H191V9.125H190.5V9.625V12.375V12.875H191V14.625H190.5V15.125V17.875V18.375H191V20.125H190.5V20.625V21.5H189.517H189.017V22H187.05V21.5H186.55H183.584H183.084V22H181.117V21.5H180.617H177.651H177.151V22H175.184V21.5H174.684H171.718H171.218V22H169.251V21.5H168.751H165.785H165.285V22H163.318V21.5H162.818H159.852H159.352V22H157.385V21.5H156.885H153.919H153.419V22H151.452V21.5H150.952H147.986H147.486V22H145.519V21.5H145.019H142.053H141.553V22H139.586V21.5H139.086H136.12H135.62V22H133.654V21.5H133.154H130.187H129.687V22H127.721V21.5H127.221H124.254H123.754V22H121.788V21.5H121.288H118.321H117.821V22H115.855V21.5H115.355H112.388H111.888V22H109.922V21.5H109.422H106.455H105.955V22H103.989V21.5H103.489H100.522H100.022V22H98.0557V21.5H97.5557H94.5892H94.0892V22H92.1227V21.5H91.6227H88.6563H88.1563V22H86.1898V21.5H85.6898H82.7233H82.2233V22H80.2568V21.5H79.7568H76.7903H76.2903V22H74.3238V21.5H73.8238H70.8574H70.3574V22H68.3909V21.5H67.8909H64.9244H64.4244V22H62.4579V21.5H61.9579H58.9914H58.4914V22H56.5249V21.5H56.0249H53.0584H52.5584V22H50.592V21.5H50.092H47.1255H46.6255V22H44.659V21.5H44.159H41.1925H40.6925V22H38.726V21.5H38.226H35.2595H34.7595V22H32.7931V21.5H32.2931H29.3266H28.8266V22H26.8601V21.5H26.3601H23.3936H22.8936V22H20.9271V21.5H20.4271H17.4606H16.9606V22H14.9941V21.5H14.4941H13.1939L12.2495 20.7015L11.8676 20.3787L11.5448 20.7605L10.14 19.5728L10.4628 19.191L10.081 18.8682L7.9125 17.0348L7.53068 16.712L7.20786 17.0939L5.80303 15.9061L6.12585 15.5243L5.74402 15.2015L3.57554 13.3682L3.19371 13.0454L2.8709 13.4272L1.46607 12.2395L1.78888 11.8577L1.40705 11.5348L0.774441 11L1.40706 10.4652L1.78888 10.1423L1.46607 9.76052L2.8709 8.57281L3.19371 8.95464L3.57554 8.63183L5.74402 6.79849L6.12585 6.47568L5.80303 6.09385L7.20787 4.90615L7.53068 5.28797L7.9125 4.96516L10.081 3.13183L10.4628 2.80901L10.14 2.42719Z" stroke="#6B6B6B" stroke-linecap="square" stroke-linejoin="round" stroke-dasharray="3 3"/>
</svg>
