<svg width="201" height="22" viewBox="0 0 201 22" fill="none" xmlns="http://www.w3.org/2000/svg">
  <path d="M21.078 7.84c.006 1.453 1.219 2.707 2.719 3.2l-.387.585c-1.213-.416-2.232-1.307-2.69-2.455-.439 1.242-1.458 2.209-2.689 2.678l-.398-.598c1.506-.545 2.695-1.887 2.707-3.41v-.738h-2.508V6.48h5.73v.622h-2.484zm-1.723 7.828v-3.211h.739v2.59h6.199v.621zm5.86-2.473V5.578h.738v7.617zm10.664-7.629V8.73h1.605v.622H35.88v3.714h-.738v-7.5zm-7.535 5.614V6.492h4.582v.621h-3.844v3.434h.047c2.098.006 3.328-.059 4.781-.352l.106.621c-1.512.293-2.76.37-4.887.364zm1.136 4.488v-3.352h.727v2.73h6.176v.622zM46.25 5.531v2.602h1.605v.62H46.25v2.532h-.738V5.531zm-8.016 1.64v-.597h2.72V5.45h.726v1.125h2.718v.598zm.61 2.24c-.006-1.05.972-1.694 2.472-1.7 1.489.006 2.456.65 2.461 1.7-.005 1.054-.972 1.698-2.46 1.698-1.5 0-2.48-.644-2.473-1.699m.703 0c-.006.685.697 1.13 1.77 1.124 1.054.006 1.757-.44 1.769-1.125-.012-.674-.715-1.13-1.77-1.137-1.072.006-1.775.463-1.77 1.137m.187 3.023v-.575h6.516v2.192h-5.766v1.136h6.164v.598h-6.89v-2.308h5.754v-1.043zm15.13-4.887c.005 1.43 1.107 2.683 2.59 3.2l-.376.585c-1.184-.428-2.133-1.307-2.566-2.42-.434 1.225-1.436 2.174-2.649 2.631l-.398-.574c1.494-.551 2.672-1.875 2.683-3.41V6.96H51.71v-.62h5.555v.62h-2.403zm-2.063 5.46v-.62h6.715v3.527h-.739v-2.906zm5.976-1.206V5.578h.739v2.8h1.593v.645h-1.593v2.778zm12.48-1.77v.61H66.91v1.136h3.106v2.204h-6.27v1.195h6.598v.61H63.03v-2.368h6.27v-1.055h-6.305v-.586h3.176v-1.136h-4.336v-.61zm-8.179-.984V5.93h6.95v3.117zm.727-.61h5.484V6.54h-5.484zm13.101-2.671c2.28 0 3.621.638 3.621 1.793 0 1.171-1.341 1.816-3.62 1.816-2.274 0-3.622-.645-3.622-1.816 0-1.155 1.348-1.793 3.621-1.793m-4.699 4.992v-.61h9.422v.61zm1.16 1.57v-.586h7.02v2.215h-6.27v1.219h6.598v.61h-7.313v-2.403h6.27v-1.055zm.68-4.77c0 .786 1.09 1.237 2.86 1.243 1.78-.006 2.87-.457 2.87-1.242 0-.756-1.09-1.22-2.87-1.22-1.77 0-2.86.464-2.86 1.22m16.617-1.054v2.004h2.59v-2.93h.738v7.559h-.738V9.129h-2.59v2.11h-4.687V6.503zm-3.96 4.125h3.234V7.113h-3.235zm.726 5.039v-3.223h.738v2.602h6.129v.621zm16.933-10.09v10.348h-.738v-5.918h-2.414v-.621h2.414V5.578zm-8.59 7.664c1.418-.697 2.801-2.642 2.813-4.441V7.289H96.16v-.633h5.602v.633h-2.438v1.512c0 1.681 1.365 3.55 2.801 4.207l-.457.598c-1.16-.575-2.238-1.876-2.701-3.335-.469 1.553-1.576 2.936-2.736 3.557zm16.77-5.66c-.006 1.47 1.148 2.848 2.613 3.387l-.422.586c-1.142-.47-2.109-1.412-2.548-2.59a4.7 4.7 0 0 1-2.643 2.836l-.398-.61c1.494-.568 2.671-2.027 2.671-3.656V6.2h.727zm-1.535 8.086v-3.223h.738v2.602h6.129v.621zm3.457-6.938v-.632h2.426v-2.52h.738v7.781h-.738V8.73zm9.492-2.378v.62h-3.269v1.454h3.152v.597h-3.152v1.582c1.634.006 2.601-.052 3.75-.293l.082.622c-1.219.252-2.192.304-3.915.304h-.632V6.352zm-2.648 6.668v-.622h6.914v3.516h-.715V13.02zm3.879-1.254V5.777h.703v2.555h1.629V5.578h.703v6.258h-.703V8.953h-1.629v2.813zm9.89-4.336v.61h-5.25v-.61h2.25V5.895h.75V7.43zm-4.84 3.703c-.006-1.36.926-2.315 2.215-2.32 1.283.005 2.215.96 2.215 2.32 0 1.37-.932 2.332-2.215 2.332-1.289 0-2.221-.961-2.215-2.332m.668 0c-.006.96.645 1.682 1.547 1.676.897.006 1.553-.715 1.559-1.676-.006-.95-.662-1.676-1.559-1.688-.902.012-1.553.739-1.547 1.688m4.758 4.254v-9.55h.691v4.148h1.559V5.578h.703v10.336h-.703v-5.308h-1.559v4.78zm9.668-8.356c-.006 1.489 2.063 2.672 3.715 2.93l-.281.586c-1.524-.276-3.217-1.16-3.838-2.461-.621 1.3-2.315 2.185-3.815 2.46l-.293-.585c1.635-.258 3.698-1.441 3.703-2.93v-.164h-3.398v-.61h7.594v.61h-3.387zm-5.109 5.121v-.632h9.422v.632h-4.372v3.75h-.714v-3.75zm13.359-3.527c0 1.629.92 3.422 2.273 4.207l-.445.574c-1.019-.615-1.799-1.781-2.168-3.088-.375 1.424-1.201 2.66-2.25 3.3l-.492-.552c1.4-.802 2.373-2.642 2.379-4.418V6.574h.703zm1.113 1.371v-.644h1.887v-3.54h.703v9.563h-.703V9.996zm4.008 5.918V5.578h.715v10.336zm11.731-2.004v.633h-9.469v-.633h2.414v-2.877c-.902-.445-1.453-1.19-1.453-2.127 0-1.588 1.553-2.625 3.738-2.636 2.203.011 3.75 1.048 3.75 2.636 0 .926-.533 1.659-1.418 2.11v2.894zm-7.805-5.004c0 1.184 1.271 2.01 3.035 2.004 1.758.006 3.047-.82 3.047-2.004 0-1.207-1.289-2.021-3.047-2.015-1.764-.006-3.035.808-3.035 2.015m1.476 5.004h3.153v-2.607a6 6 0 0 1-1.594.205c-.568 0-1.09-.07-1.559-.2zm8.25 1.149a.627.627 0 0 1-.632-.621.64.64 0 0 1 .632-.633c.34.005.622.287.622.633a.62.62 0 0 1-.622.62" fill="#323232"/>
  <path d="m9.516 2.415 1.29-1.163.335.37.371-.334.874-.788h1.797V0h1.979v.5h3.978V0h1.979v.5h3.979V0h1.978v.5h3.979V0h1.979v.5h3.978V0h1.979v.5h3.979V0h1.978v.5h3.979V0h1.979v.5h3.978V0h1.98v.5h3.978V0h1.979v.5h3.978V0h1.979v.5h3.978V0h1.98v.5h3.978V0h1.979v.5h3.978V0h1.979v.5h3.979V0h1.978v.5h3.98V0h1.978v.5h3.978V0h1.979v.5h3.979V0h1.979v.5h3.978V0h1.979v.5h3.979V0h1.978v.5h3.979V0h1.979v.5h3.978V0h1.979v.5h3.979V0h1.978v.5h3.979V0h1.979v.5h3.978V0h1.979v.5h3.979V0h1.979v.5h3.978V0h1.979v.5h3.979V0h1.978v.5h3.979V0h1.979v.5h1.489v1.375h.5v1.75h-.5v3.75h.5v1.75h-.5v3.75h.5v1.75h-.5v3.75h.5v1.75h-.5V21.5h-1.489v.5h-1.979v-.5h-3.979v.5h-1.978v-.5h-3.979v.5h-1.979v-.5h-3.978v.5h-1.979v-.5h-3.979v.5h-1.979v-.5h-3.978v.5h-1.979v-.5h-3.979v.5h-1.978v-.5h-3.979v.5h-1.979v-.5h-3.978v.5h-1.979v-.5h-3.979v.5h-1.978v-.5h-3.979v.5h-1.979v-.5h-3.978v.5h-1.979v-.5h-3.979v.5h-1.979v-.5h-3.978v.5h-1.979v-.5h-3.979v.5H91.63v-.5h-3.98v.5h-1.979v-.5h-3.978v.5h-1.98v-.5h-3.978v.5h-1.978v-.5h-3.98v.5H67.8v-.5h-3.98v.5h-1.978v-.5h-3.979v.5h-1.979v-.5h-3.978v.5h-1.979v-.5h-3.979v.5H43.97v-.5h-3.98v.5h-1.979v-.5h-3.978v.5h-1.98v-.5h-3.978v.5h-1.978v-.5h-3.98v.5H20.14v-.5h-3.979v.5h-1.978v-.5h-1.797l-.874-.788-.371-.335-.335.371-1.29-1.163.335-.371-.371-.335-2.032-1.834-.371-.335-.335.372-1.29-1.164.335-.371-.371-.335-2.033-1.833-.371-.335-.335.371-1.29-1.163.335-.372-.371-.335L.746 11l.605-.545.371-.335-.335-.372 1.29-1.163.335.371.371-.335 2.033-1.833.37-.335-.334-.371 1.29-1.164.335.372.37-.335L9.48 3.12l.371-.335z" stroke="#6B6B6B" stroke-linecap="square" stroke-linejoin="round" stroke-dasharray="3 3"/>
</svg>
