<svg width="23" height="23" viewBox="0 0 23 23" fill="none" xmlns="http://www.w3.org/2000/svg"><path d="m22.66 4.937-4.599-4.6a1.152 1.152 0 1 0-1.629 1.63L17.92 3.45l-6.264 6.264-3.018-3.02a1.916 1.916 0 0 0-2.71 0L.562 12.063A1.9 1.9 0 0 0 0 13.417v7.666A1.917 1.917 0 0 0 1.916 23h7.666a1.9 1.9 0 0 0 1.355-.562l5.366-5.366a1.916 1.916 0 0 0 0-2.71l-3.02-3.02 6.265-6.262 1.486 1.487a1.152 1.152 0 1 0 1.629-1.629zm-8.254 10.78L9.423 20.7H2.3v-7.124l4.982-4.983 2.75 2.748-3.563 3.562a1.152 1.152 0 0 0 1.629 1.63l3.561-3.563z" fill="#000"/></svg>