<svg width="37" height="41" viewBox="0 0 37 41" fill="none" xmlns="http://www.w3.org/2000/svg">
  <path d="M13.425 5.573a5.7 5.7 0 0 1 .364-2.122 5.5 5.5 0 0 1 1.127-1.81A5.2 5.2 0 0 1 16.629.427a5.06 5.06 0 0 1 4.064 0 5.2 5.2 0 0 1 1.714 1.212 5.5 5.5 0 0 1 1.128 1.809c.256.675.38 1.397.365 2.123a5.56 5.56 0 0 1-1.574 3.775 5.14 5.14 0 0 1-3.662 1.554A5.14 5.14 0 0 1 15 9.349a5.56 5.56 0 0 1-1.575-3.775m11.114 4.788a5.7 5.7 0 0 1 .364-2.122 5.5 5.5 0 0 1 1.127-1.81 5.2 5.2 0 0 1 1.714-1.214 5.06 5.06 0 0 1 4.064 0 5.2 5.2 0 0 1 1.714 1.212 5.5 5.5 0 0 1 1.127 1.809c.257.675.38 1.397.365 2.123a5.56 5.56 0 0 1-1.573 3.775 5.14 5.14 0 0 1-3.663 1.554 5.14 5.14 0 0 1-3.663-1.552 5.56 5.56 0 0 1-1.576-3.774m7.222 11.563c0-.723.276-1.416.767-1.927a2.57 2.57 0 0 1 1.852-.798 2.57 2.57 0 0 1 1.853.798c.491.511.767 1.204.767 1.927s-.276 1.416-.767 1.927a2.57 2.57 0 0 1-1.852.798 2.57 2.57 0 0 1-1.853-.798 2.78 2.78 0 0 1-.767-1.927M27.16 33.487c0-.723.276-1.416.767-1.927a2.57 2.57 0 0 1 1.852-.798 2.57 2.57 0 0 1 1.852.798c.492.511.768 1.204.768 1.927s-.276 1.416-.768 1.927a2.57 2.57 0 0 1-1.852.798 2.57 2.57 0 0 1-1.852-.798 2.78 2.78 0 0 1-.767-1.927m-11.115 4.788c0-.723.276-1.416.767-1.927a2.57 2.57 0 0 1 1.853-.798 2.57 2.57 0 0 1 1.852.798c.491.511.767 1.204.767 1.927s-.276 1.416-.767 1.927a2.57 2.57 0 0 1-1.852.798 2.57 2.57 0 0 1-1.853-.798 2.78 2.78 0 0 1-.767-1.927M4.93 33.487c0-.723.276-1.416.767-1.927a2.57 2.57 0 0 1 1.852-.798c.695 0 1.361.287 1.853.798.49.511.767 1.204.767 1.927s-.276 1.416-.767 1.927a2.57 2.57 0 0 1-1.853.798 2.57 2.57 0 0 1-1.852-.798 2.78 2.78 0 0 1-.767-1.927M3.62 10.36c0-1.084.414-2.123 1.15-2.89a3.85 3.85 0 0 1 2.78-1.197c1.041 0 2.04.43 2.778 1.197a4.17 4.17 0 0 1 1.15 2.89 4.17 4.17 0 0 1-1.15 2.89 3.85 3.85 0 0 1-2.779 1.198 3.85 3.85 0 0 1-2.778-1.197 4.17 4.17 0 0 1-1.15-2.89M0 21.925c0-.813.31-1.593.863-2.168a2.9 2.9 0 0 1 2.084-.898 2.9 2.9 0 0 1 2.084.898 3.13 3.13 0 0 1 .863 2.168 3.13 3.13 0 0 1-.863 2.168 2.9 2.9 0 0 1-2.084.898 2.9 2.9 0 0 1-2.084-.898A3.13 3.13 0 0 1 0 21.924" fill="#9FC031"/>
</svg>
