<svg width="15" height="15" viewBox="0 0 15 15" fill="none" xmlns="http://www.w3.org/2000/svg"><path d="M1.003 6.724A.667.667 0 0 1 1.667 6h1.272a.667.667 0 0 1 .667.667V13a.667.667 0 0 1-.667.667h-.722a.667.667 0 0 1-.664-.61zm4.603-.266c0-.278.173-.528.425-.646.55-.26 1.486-.78 1.909-1.485.544-.908.646-2.548.663-2.924.002-.053.001-.105.008-.157.09-.651 1.347.109 1.829.913.261.436.295 1.009.267 1.457-.03.478-.17.94-.308 1.4l-.293.979h3.62a.666.666 0 0 1 .64.848l-1.79 6.338a.67.67 0 0 1-.641.486H6.273A.667.667 0 0 1 5.606 13z" stroke="#606060" stroke-linecap="round" stroke-linejoin="round"/></svg>