<svg width="20" height="18" viewBox="0 0 20 18" fill="none" xmlns="http://www.w3.org/2000/svg">
  <path d="M2.5 18a2.53 2.53 0 0 1-1.768-.718A2.42 2.42 0 0 1 0 15.55v-3.5c0-.279.113-.546.314-.743a1.083 1.083 0 0 1 1.515 0c.201.197.314.464.314.743v3.5c0 .193.16.35.357.35h15a.36.36 0 0 0 .253-.103.35.35 0 0 0 .104-.247v-3.5c0-.279.113-.546.314-.743a1.084 1.084 0 0 1 1.515 0c.201.197.314.464.314.743v3.5c0 .65-.263 1.273-.732 1.732A2.53 2.53 0 0 1 17.5 18z" fill="#000"/>
  <path d="M15.67 5.012a1.05 1.05 0 0 1 0 1.531q-.158.151-.364.235a1.16 1.16 0 0 1-1.225-.235l-2.956-2.844v8.218c0 .287-.118.563-.33.766A1.15 1.15 0 0 1 10 13a1.15 1.15 0 0 1-.796-.317 1.06 1.06 0 0 1-.33-.766V3.699L5.92 6.543q-.16.151-.365.235a1.16 1.16 0 0 1-1.226-.235 1.05 1.05 0 0 1 0-1.531L9.205.317C9.415.114 9.702 0 10 0s.584.114.795.317z" fill="#000"/>
</svg>
